<svg id="Layer_1" enable-background="new 0 0 4000 4000" height="512" viewBox="0 0 4000 4000" width="512" xmlns="http://www.w3.org/2000/svg"><g><g><path d="m1368.035 2640.641-201.469 364.901h1666.884l-201.469-364.901zm94.863 325.086c-14.885 0-26.942-12.072-26.942-26.957s12.057-26.957 26.942-26.957c17.033 0 30.89-13.857 30.89-30.89s-13.857-30.86-30.89-30.86c-14.885 0-26.942-12.072-26.942-26.957s12.057-26.957 26.942-26.957c46.743 0 84.773 38.03 84.773 84.773 0 46.744-38.03 84.805-84.773 84.805zm362.752 0c-14.885 0-26.942-12.072-26.942-26.957s12.056-26.957 26.942-26.957c17.033 0 30.89-13.857 30.89-30.89s-13.857-30.86-30.89-30.86c-14.885 0-26.942-12.072-26.942-26.957s12.056-26.957 26.942-26.957c46.743 0 84.773 38.03 84.773 84.773.001 46.744-38.029 84.805-84.773 84.805zm362.738 0c-14.885 0-26.942-12.072-26.942-26.957s12.056-26.957 26.942-26.957c17.033 0 30.89-13.857 30.89-30.89s-13.857-30.86-30.89-30.86c-14.885 0-26.942-12.072-26.942-26.957s12.056-26.957 26.942-26.957c46.743 0 84.773 38.03 84.773 84.773 0 46.744-38.03 84.805-84.773 84.805zm362.752 0c-14.885 0-26.942-12.072-26.942-26.957s12.056-26.957 26.942-26.957c17.033 0 30.89-13.857 30.89-30.89s-13.857-30.86-30.89-30.86c-14.885 0-26.942-12.072-26.942-26.957s12.056-26.957 26.942-26.957c46.743 0 84.773 38.03 84.773 84.773.001 46.744-38.029 84.805-84.773 84.805z"/></g><g><path d="m1827.345 1700.116h345.311v227.484h-345.311z"/></g><g><ellipse cx="2524.985" cy="1813.844" rx="149.019" ry="149.004"/></g><g><ellipse cx="1475.015" cy="1813.844" rx="149.019" ry="149.004"/></g><g><path d="m2540.975 1491.783h-1081.95c-177.594 0-322.075 144.466-322.075 322.06s144.481 322.06 322.075 322.06h1081.95c177.594 0 322.075-144.466 322.075-322.06s-144.481-322.06-322.075-322.06zm-1065.96 524.978c-111.881 0-202.902-91.036-202.902-202.918s91.021-202.917 202.902-202.917 202.902 91.036 202.902 202.917-91.021 202.918-202.902 202.918zm751.524-62.203c0 14.885-12.056 26.957-26.942 26.957h-399.194c-14.885 0-26.942-12.072-26.942-26.957v-281.398c0-14.885 12.057-26.957 26.942-26.957h399.194c14.885 0 26.942 12.072 26.942 26.957zm298.446 62.203c-111.882 0-202.903-91.036-202.903-202.918s91.021-202.917 202.903-202.917c111.881 0 202.902 91.036 202.902 202.917s-91.02 202.918-202.902 202.918z"/></g><g><path d="m3128.216 1221.307h-2256.417c-73.503 0-133.302 59.783-133.302 133.271v918.529c0 73.519 59.798 133.302 133.302 133.302h2256.418c73.504 0 133.302-59.783 133.302-133.302v-918.529c-.001-73.488-59.799-133.271-133.303-133.271zm-587.241 968.51h-1081.95c-207.304 0-375.959-168.669-375.959-375.974s168.654-375.974 375.959-375.974h1081.95c207.304 0 375.958 168.669 375.958 375.974s-168.654 375.974-375.958 375.974z"/></g><g><path d="m3366.713 994.458h-2733.411c-73.503 0-133.302 59.783-133.302 133.271v1744.601c0 73.458 59.768 133.211 133.241 133.211h471.79l223.521-404.867c4.735-8.592 13.766-13.947 23.583-13.947h1295.744c9.818 0 18.849 5.355 23.583 13.947l223.521 404.867h471.729c73.488 0 133.287-59.783 133.287-133.271v-1744.54c.001-73.489-59.797-133.272-133.286-133.272zm-2691.357 48.559c14.885 0 26.942 12.072 26.942 26.957s-12.057 26.957-26.942 26.957c-17.033 0-30.89 13.826-30.89 30.86s13.857 30.89 30.89 30.89c14.885 0 26.942 12.072 26.942 26.957s-12.057 26.957-26.942 26.957c-46.743 0-84.773-38.06-84.773-84.804-.001-46.744 38.029-84.774 84.773-84.774zm0 1860.052c14.885 0 26.942 12.072 26.942 26.957s-12.057 26.957-26.942 26.957c-46.743 0-84.773-38.03-84.773-84.773s38.03-84.804 84.773-84.804c14.885 0 26.942 12.072 26.942 26.957s-12.057 26.957-26.942 26.957c-17.033 0-30.89 13.856-30.89 30.89 0 17.033 13.856 30.859 30.89 30.859zm2452.86-442.746h-2256.417c-103.214 0-187.185-83.987-187.185-187.215v-918.529c0-103.198 83.972-187.185 187.185-187.185h2256.418c103.214 0 187.185 83.987 187.185 187.185v918.529c0 103.229-83.972 187.215-187.186 187.215zm196.443 496.66c-14.885 0-26.942-12.072-26.942-26.957s12.056-26.957 26.942-26.957c17.033 0 30.89-13.826 30.89-30.86 0-17.033-13.857-30.89-30.89-30.89-14.885 0-26.942-12.072-26.942-26.957s12.056-26.957 26.942-26.957c46.743 0 84.773 38.06 84.773 84.804.001 46.744-38.029 84.774-84.773 84.774zm0-1744.389c-14.885 0-26.942-12.072-26.942-26.957s12.056-26.957 26.942-26.957c17.033 0 30.89-13.857 30.89-30.89s-13.857-30.86-30.89-30.86c-14.885 0-26.942-12.072-26.942-26.957s12.056-26.957 26.942-26.957c46.743 0 84.773 38.03 84.773 84.773.001 46.745-38.029 84.805-84.773 84.805z"/></g></g></svg>