<?xml version="1.0" encoding="iso-8859-1"?>
<!-- Generator: Adobe Illustrator 19.0.0, SVG Export Plug-In . SVG Version: 6.00 Build 0)  -->
<svg version="1.1" id="Capa_1" xmlns="http://www.w3.org/2000/svg" xmlns:xlink="http://www.w3.org/1999/xlink" x="0px" y="0px"
	 viewBox="0 0 512 512" style="enable-background:new 0 0 512 512;" xml:space="preserve">
<g>
	<g>
		<circle cx="256" cy="256" r="48.64"/>
	</g>
</g>
<g>
	<g>
		<path d="M458.24,230.4C445.44,138.24,373.76,64,281.6,53.76V0h-51.2v53.76C138.24,64,64,138.24,53.76,230.4H0v51.2h53.76
			c12.8,92.16,84.48,166.4,176.64,176.64V512h51.2v-53.76c92.16-12.8,166.4-84.48,176.64-176.64H512v-51.2H458.24z M404.48,281.6
			c-10.24,64-58.88,112.64-122.88,122.88V358.4h-51.2v46.08c-64-10.24-112.64-61.44-122.88-122.88h46.08v-51.2h-46.08
			c10.24-64,58.88-112.64,122.88-122.88v46.08h51.2v-46.08c64,10.24,112.64,61.44,122.88,122.88H358.4v51.2H404.48z"/>
	</g>
</g>
<g>
</g>
<g>
</g>
<g>
</g>
<g>
</g>
<g>
</g>
<g>
</g>
<g>
</g>
<g>
</g>
<g>
</g>
<g>
</g>
<g>
</g>
<g>
</g>
<g>
</g>
<g>
</g>
<g>
</g>
</svg>
