<svg id="Capa_1" enable-background="new 0 0 512 512" height="512" viewBox="0 0 512 512" width="512" xmlns="http://www.w3.org/2000/svg"><g><path d="m121 121v158.789l158.789-158.789z"/><path d="m391 391v-158.789l-158.789 158.789z"/><circle cx="406" cy="106" r="15"/><circle cx="106" cy="406" r="15"/><path d="m467 0h-422c-24.814 0-45 20.186-45 45v422c0 24.814 20.186 45 45 45h422c24.814 0 45-20.186 45-45v-422c0-24.814-20.186-45-45-45zm-376 91h261.211l-261.211 261.211zm15 360c-24.814 0-45-20.186-45-45s20.186-45 45-45 45 20.186 45 45-20.186 45-45 45zm315-30h-261.211l261.211-261.211zm-15-270c-24.814 0-45-20.186-45-45s20.186-45 45-45 45 20.186 45 45-20.186 45-45 45z"/></g></svg>