<?xml version="1.0" encoding="iso-8859-1"?>
<!-- Generator: Adobe Illustrator 19.0.0, SVG Export Plug-In . SVG Version: 6.00 Build 0)  -->
<svg version="1.1" id="Capa_1" xmlns="http://www.w3.org/2000/svg" xmlns:xlink="http://www.w3.org/1999/xlink" x="0px" y="0px"
	 viewBox="0 0 512 512" style="enable-background:new 0 0 512 512;" xml:space="preserve">
<g>
	<g>
		<path d="M117.41,271v196c0,24.813,20.187,45,45,45h187.18c24.813,0,45-20.187,45-45V271H117.41z M256,397.489
			c-12.442,0-22.528-10.086-22.528-22.528s10.086-22.529,22.528-22.529s22.528,10.086,22.528,22.528S268.442,397.489,256,397.489z"
			/>
	</g>
</g>
<g>
	<g>
		<path d="M349.59,0H162.41c-24.813,0-45,20.187-45,45v196h277.18V45C394.59,20.187,374.403,0,349.59,0z M216.815,119.498
			c-12.442,0-22.528-10.086-22.528-22.528c0-12.442,10.086-22.528,22.528-22.528s22.528,10.086,22.528,22.528
			C239.343,109.412,229.257,119.498,216.815,119.498z M295.185,197.868c-12.442,0-22.528-10.086-22.528-22.528
			c0-12.442,10.086-22.528,22.528-22.528s22.528,10.086,22.528,22.528C317.713,187.782,307.627,197.868,295.185,197.868z"/>
	</g>
</g>
<g>
</g>
<g>
</g>
<g>
</g>
<g>
</g>
<g>
</g>
<g>
</g>
<g>
</g>
<g>
</g>
<g>
</g>
<g>
</g>
<g>
</g>
<g>
</g>
<g>
</g>
<g>
</g>
<g>
</g>
</svg>
