<svg height="512" viewBox="0 0 512 512" width="512" xmlns="http://www.w3.org/2000/svg"><g id="solid"><path d="m432 136h-16v19.565a137.9 137.9 0 0 0 40 97.12v-26.112a128.826 128.826 0 0 1 -24-74.573z"/><path d="m405.55 196.455-126.979 96.658-74.755 186.887h140.184v-168a8 8 0 0 1 3.058-6.291l80.076-62.917a154.214 154.214 0 0 1 -21.213-44.945c-.132-.462-.244-.929-.371-1.392z"/><path d="m288 134.465v-23.8a194.659 194.659 0 0 0 -64 0v23.8a210.459 210.459 0 0 1 64 0z"/><path d="m288 150.682a194.659 194.659 0 0 0 -64 0v25.318a64.4 64.4 0 0 0 12.8 38.4 24 24 0 0 0 38.4 0 64.392 64.392 0 0 0 12.8-38.4zm-48 33.318a8 8 0 1 1 8-8 8 8 0 0 1 -8 8zm32 0a8 8 0 1 1 8-8 8 8 0 0 1 -8 8z"/><path d="m267.3 281.53 80.428-58.493-25.38-25.38a8 8 0 0 1 -2.348-5.657v-57.209a64 64 0 1 0 -128 0v57.209a8 8 0 0 1 -2.343 5.657l-28.852 28.853a111.261 111.261 0 0 0 -32.805 79.196v174.294h58.584l77.988-194.971a8 8 0 0 1 2.728-3.499zm-43.3-57.53a80.5 80.5 0 0 1 -16-48v-72a8 8 0 0 1 6.431-7.845 210.876 210.876 0 0 1 83.138 0 8 8 0 0 1 6.431 7.845v72a80.5 80.5 0 0 1 -16 48 40 40 0 0 1 -64 0z"/><path d="m427.313 80-11.313 11.313v28.687a16.019 16.019 0 0 0 16-16 8 8 0 0 1 5.47-7.59l18.53-6.176v-10.234z"/><path d="m440.346 32-.277 32h15.999l.277-32z"/><path d="m448 152a112.409 112.409 0 0 0 8 41.415v-57.415h-8z"/><path d="m443.7 120h12.3v-12.9l-8.555 2.851a31.74 31.74 0 0 1 -3.745 10.049z"/></g></svg>