<svg fill="none" height="512" viewBox="0 0 24 24" width="512" xmlns="http://www.w3.org/2000/svg"><g fill="#000"><circle cx="12" cy="12" opacity=".4" r="10"/><path d="m8.70711 7.29289c-.39053-.39052-1.02369-.39052-1.41422 0-.39052.39053-.39052 1.02369 0 1.41422l3.29291 3.29289-3.29291 3.2929c-.39052.3905-.39052 1.0237 0 1.4142.39053.3905 1.02369.3905 1.41422 0l3.29289-3.2929 3.2929 3.2929c.3905.3905 1.0237.3905 1.4142 0s.3905-1.0237 0-1.4142l-3.2929-3.2929 3.2929-3.29289c.3905-.39053.3905-1.02369 0-1.41422-.3905-.39052-1.0237-.39052-1.4142 0l-3.2929 3.29291z"/></g></svg>