<?xml version="1.0" encoding="iso-8859-1"?>
<!-- Generator: Adobe Illustrator 19.0.0, SVG Export Plug-In . SVG Version: 6.00 Build 0)  -->
<svg version="1.1" id="Capa_1" xmlns="http://www.w3.org/2000/svg" xmlns:xlink="http://www.w3.org/1999/xlink" x="0px" y="0px"
	 viewBox="0 0 512 512" style="enable-background:new 0 0 512 512;" xml:space="preserve">
<g>
	<g>
		<path d="M134.869,273.113l14.03,2.069c1.864-22.787,1.03-24.228-0.121-38.348l-13.909,2.053c-0.732,0.117-1.479,0.161-2.197,0.161
			c-7.324,0-13.726-5.361-14.824-12.803c-1.216-8.203,4.453-15.82,12.642-17.036l13.868-2.047
			c-2.604-11.889-5.951-23.529-10.397-34.755l-12.817,6.099c-7.511,3.544-16.432,0.367-19.995-7.104
			c-3.56-7.485-0.381-16.436,7.104-19.995l12.854-6.116c-13.455-24.051-31.516-45.37-52.95-63.243C26.003,127.553,0,188.225,0,255
			c0,66.828,26.043,129.542,68.254,175.06c21.489-17.919,39.353-39.386,52.778-63.386l-12.78-6.08
			c-7.485-3.56-10.664-12.51-7.104-19.995c3.574-7.485,12.48-10.62,19.995-7.104l12.871,6.123
			c4.455-11.25,7.938-22.861,10.54-34.752l-14.064-2.075c-8.188-1.216-13.857-8.833-12.642-17.036
			C119.049,277.581,126.681,271.692,134.869,273.113z"/>
	</g>
</g>
<g>
	<g>
		<path d="M443.748,81.942c-21.479,17.919-39.337,39.391-52.762,63.393l12.762,6.072c7.485,3.56,10.664,12.51,7.104,19.995
			c-2.578,5.405-7.954,8.555-13.564,8.555c-4.293,0-5.637-1.072-19.283-7.566c-0.396,1-5.279,11.361-9.805,30.628
			c-0.322,1.353-0.454,2.756-0.751,4.116l14.063,2.075c8.188,1.216,13.857,8.833,12.642,17.036
			c-1.099,7.441-7.5,12.803-14.824,12.803c-0.718,0-1.465-0.044-2.197-0.161l-14.031-2.071C362.606,242.858,362,248.886,362,255
			c0,6.129,0.652,14.138,1.137,20.179l13.995-2.065c8.276-1.392,15.82,4.482,17.021,12.642c1.216,8.203-4.453,15.82-12.642,17.036
			l-14.041,2.071c1.895,8.734,4.1,19.034,10.344,34.838l13.042-6.205c7.485-3.516,16.421-0.381,19.995,7.104
			c3.56,7.485,0.381,16.436-7.104,19.995l-13.068,6.218c12.294,21.967,28.672,42.872,52.971,63.353
			C485.918,384.637,512,321.879,512,255C512,188.172,485.959,127.458,443.748,81.942z"/>
	</g>
</g>
<g>
	<g>
		<path d="M404.828,435.004c-16.663-17.017-30.18-34.76-41.455-55.201c-14.816,7.05-15.978,8.022-20.24,8.022
			c-5.61,0-10.986-3.149-13.564-8.555c-3.56-7.485-0.381-16.436,7.104-19.995l13.958-6.641
			c-5.745-14.469-11.871-36.382-13.308-43.323l-15.181,2.239c-0.732,0.117-1.479,0.161-2.197,0.161
			c-7.324,0-13.726-5.361-14.824-12.803c-1.216-8.203,4.453-15.82,12.642-17.036l15.372-2.269C332.485,272.126,332,262.61,332,255
			s0.485-15.126,1.133-22.604l-15.372-2.269c-8.188-1.216-13.857-8.833-12.642-17.036c1.201-8.174,8.848-13.975,17.021-12.642
			l15.181,2.239c1.4-6.777,7.546-29.065,13.308-43.323l-13.958-6.641c-7.485-3.56-10.664-12.51-7.104-19.995
			s12.48-10.62,19.995-7.104l13.81,6.572c26.189-47.489,57.918-70.136,58.92-71.003C377.734,23.132,320.062,0,257,0
			C193.937,0,134.26,23.135,89.7,61.199c23.641,20.279,43.603,44.242,58.435,71.232l14.302-6.806
			c7.485-3.516,16.436-0.381,19.995,7.104c3.559,7.485,0.381,16.436-7.104,19.995l-14.174,6.744
			c5.647,13.934,9.732,28.477,12.858,43.319l15.848-2.338c8.247-1.304,15.82,4.468,17.021,12.642
			c1.216,8.203-4.453,15.82-12.642,17.036l-15.756,2.325C179.152,239.941,180,247.399,180,255c0,7.59-0.699,17.079-1.37,24.57
			l15.608,2.303c8.188,1.216,13.857,8.833,12.642,17.036c-1.099,7.441-7.5,12.803-14.824,12.803c-0.718,0-1.465-0.044-2.197-0.161
			l-15.667-2.311c-3.124,14.837-7.478,29.286-13.134,43.246l14.27,6.79c7.485,3.56,10.664,12.51,7.104,19.995
			c-3.565,7.474-12.487,10.647-19.995,7.104l-14.255-6.782c-14.797,26.94-34.497,51.132-58.224,71.44
			C134.484,488.964,194.061,512,257,512c63.023,0,120.665-23.101,165.214-61.122C403.087,434.239,419.547,450.047,404.828,435.004z"
			/>
	</g>
</g>
<g>
</g>
<g>
</g>
<g>
</g>
<g>
</g>
<g>
</g>
<g>
</g>
<g>
</g>
<g>
</g>
<g>
</g>
<g>
</g>
<g>
</g>
<g>
</g>
<g>
</g>
<g>
</g>
<g>
</g>
</svg>
