<svg id="Layer_3" enable-background="new 0 0 64 64" height="512" viewBox="0 0 64 64" width="512" xmlns="http://www.w3.org/2000/svg"><g><path d="m24.584 52.998 9.707-9.707 1.415 1.415-8.292 8.292h9.585v-17.585l-17.585 17.585z"/><path d="m30.413 11-5.707 5.707-1.415-1.415 4.292-4.292h-6.17l-10.413 10.413v5.171l9.292-9.292 1.415 1.415-10.707 10.707v5.169l23.584-23.583z"/><path d="m53 37.413-6 5.999v1.586h6z"/><path d="m11 11v7.583l7.583-7.583z"/><path d="m47 19v5.583l5.584-5.583z"/><path d="m53 21.413-6 6v4.171l6-6z"/><path d="m53 28.414-6 6v6.168l6-5.999z"/><path d="m57 47.998v-31.998c0-.552-.449-1-1-1h-9v2h7c.552 0 1 .447 1 1v27.999c0 .553-.448 1-1 1h-7v2h9c.551-.001 1-.449 1-1.001z"/><path d="m44 3h-40.001c-.551 0-1 .448-1 1v56c0 .551.449 1 1 1h40.001c.551 0 1-.449 1-1v-56c0-.552-.449-1-1-1zm-1 52.998c0 1.654-1.347 3-3 3h-32.001c-1.654 0-3-1.346-3-3v-47.998c0-1.654 1.346-3 3-3h32.001c1.653 0 3 1.346 3 3z"/><path d="m40 7h-32.001c-.552 0-1 .448-1 1v47.999c0 .552.448 1 1 1h32.001c.551 0 1-.448 1-1v-47.999c0-.552-.449-1-1-1zm-1.001 46.998c0 .553-.447 1-1 1h-27.999c-.553 0-1-.447-1-1v-43.998c0-.553.447-1 1-1h27.999c.553 0 1 .447 1 1z"/><path d="m59.999 11h-12.999v2h9c1.653 0 3 1.346 3 3v31.999c0 1.654-1.347 3-3 3h-9v2h12.998.001c.552 0 1-.448 1.001-.999v-40c0-.552-.449-1-1.001-1z"/><path d="m11 42.582 2.291-2.291 1.415 1.415-3.706 3.706v5.17l25.999-25.998v-5.17l-20.293 20.292-1.415-1.415 21.708-21.707v-5.169l-25.999 25.998z"/><path d="m16.584 52.998 20.415-20.414v-5.17l-25.585 25.584z"/></g></svg>