<svg id="Layer_1" enable-background="new 0 0 512 512" height="512" viewBox="0 0 512 512" width="512" xmlns="http://www.w3.org/2000/svg"><path d="m3.648 346.194c-2.426 17.912-3.648 36.066-3.648 54.406v48.2c0 34.848 28.352 63.2 63.2 63.2h48.2c18.34 0 36.493-1.222 54.406-3.648z"/><path d="m165.81 508.351c.007-.001.015-.002.022-.003-.008.001-.015.002-.022.003z"/><path d="m501.804 201.681.003-.009v-.002z"/><path d="m310.317 10.196c-22.379 5.159-44.304 12.261-65.654 21.291-88.405 37.391-169.57 110.08-213.176 213.176-9.03 21.35-16.132 43.275-21.291 65.653l191.487 191.488c22.379-5.159 44.303-12.261 65.654-21.291 88.405-37.391 169.57-110.08 213.176-213.176 9.03-21.35 16.132-43.275 21.291-65.653zm52.689 186.997c5.858 5.857 5.858 15.355 0 21.213-2.929 2.929-6.768 4.394-10.606 4.394-3.839 0-7.677-1.464-10.606-4.394l-13.494-13.493-26.987 26.987 13.494 13.494c5.858 5.857 5.858 15.355 0 21.213-2.929 2.929-6.768 4.394-10.606 4.394s-7.678-1.465-10.606-4.394l-13.495-13.494-26.987 26.987 13.494 13.494c5.858 5.857 5.858 15.355 0 21.213-2.929 2.929-6.768 4.394-10.606 4.394s-7.678-1.465-10.606-4.394l-13.495-13.494-26.987 26.987 13.493 13.494c5.858 5.857 5.858 15.355 0 21.213-2.929 2.929-6.768 4.394-10.606 4.394-3.839 0-7.677-1.464-10.606-4.394l-13.494-13.494-13.493 13.494c-2.929 2.929-6.768 4.394-10.606 4.394s-7.678-1.465-10.606-4.394c-5.858-5.857-5.858-15.355 0-21.213l13.494-13.494-13.494-13.494c-5.858-5.857-5.858-15.355 0-21.213s15.355-5.858 21.213 0l13.493 13.494 26.987-26.987-13.494-13.494c-5.858-5.857-5.858-15.355 0-21.213 5.857-5.857 15.355-5.857 21.213 0l13.494 13.494 26.987-26.987-13.494-13.494c-5.858-5.857-5.858-15.355 0-21.213 5.857-5.857 15.355-5.857 21.213 0l13.494 13.494 26.987-26.987-13.493-13.494c-5.858-5.857-5.858-15.355 0-21.213s15.355-5.858 21.213 0l13.493 13.494 13.493-13.494c5.857-5.857 15.355-5.857 21.213 0s5.858 15.355 0 21.213l-13.494 13.494z"/><path d="m448.8 0h-48.2c-18.34 0-36.493 1.222-54.405 3.648l162.157 162.158c2.426-17.912 3.648-36.066 3.648-54.406v-48.2c0-34.848-28.352-63.2-63.2-63.2z"/><path d="m310.334 10.192c-.005.001-.01.002-.014.003.005-.001.011-.002.016-.003z"/></svg>