<svg id="Layer_1" enable-background="new 0 0 68 68" height="512" viewBox="0 0 68 68" width="512" xmlns="http://www.w3.org/2000/svg"><g><path d="m11.4563885 36.469883c-3.4044065 0-6.2124748 2.6264305-6.4753766 5.9701042h12.9606171c-.2624088-3.3436737-3.0709692-5.9701042-6.4852405-5.9701042zm7.5156383-8.9602414c-3.5859222 0-6.4955997 2.9194183-6.4955997 6.5055256 0 .161602.0103588.333374.0207167.5050888 2.8080683.3434219 5.1919413 2.0405693 6.4748831 4.4346809 1.2928066-2.3941116 3.6771736-4.1013069 6.4852409-4.4346809.0202236-.1717148.0305824-.3434868.0305824-.5050888 0-3.5861072-2.9195423-6.5055256-6.5158234-6.5055256zm7.5156384-7.5055885c-3.2727089 0-5.9702892 2.4243813-6.4245701 5.5660706 2.7883377.3535366 5.1519871 2.0506229 6.4349289 4.4245682 1.272583-2.3739452 3.6367264-4.0710316 6.424572-4.4245682-.4547768-3.1416893-3.1617279-5.5660706-6.4349308-5.5660706zm7.5156383-8.1622276c-3.4848042 0-6.3234539 2.7577562-6.4852409 6.2125969 2.8085613.333313 5.202301 2.0405121 6.4852409 4.4346199 1.2933006-2.3941078 3.6870384-4.1013069 6.4956017-4.4447308-.1514282-3.4447298-2.9999428-6.202486-6.4956017-6.202486zm7.5156403 8.1622276c-3.2727089 0-5.9697952 2.4243813-6.424572 5.5660706 2.7883377.3535366 5.151989 2.0506229 6.4349289 4.4245682 1.2730789-2.3739452 3.6367264-4.0710316 6.424572-4.4245682-.4542809-3.1416893-3.1617279-5.5660706-6.4349289-5.5660706zm0 16.4658299h-.0803986c-.0202255 0-.0305824.0101128-.0508041.0101128h-.050312c-3.323513.0908813-6.0309601 2.6769257-6.2933693 5.9599915h12.9704819c-.2727662-3.3436738-3.0808335-5.9701043-6.4955979-5.9701043zm-15.0312786 0h-.0808926c-.0197296 0-.0404453.0101128-.050312.0101128h-.0503101c-3.323513.0908813-6.0309582 2.6769257-6.2938614 5.9599915h12.960619c-.2624093-3.3436738-3.0709706-5.9701043-6.4852429-5.9701043zm7.5156383-8.9602414c-3.5859203 0-6.4951057 2.9194183-6.4951057 6.5055256 0 .161602.0098648.333374.0202236.5050888 2.8080692.3434219 5.2022991 2.0405693 6.4852428 4.4346809 1.2829399-2.3941116 3.6668129-4.1013069 6.4753761-4.4346809.0197296-.1717148.0300865-.3434868.0300865-.5050888.0000001-3.5861072-2.9195403-6.5055256-6.5158233-6.5055256zm15.0317726 0c-3.5760574 0-6.4956017 2.9194183-6.4956017 6.5055256 0 .161602.0103607.333374.0202255.5050888 2.8080673.3434219 5.202301 2.0405693 6.4852409 4.4346809 1.2829399-2.3941116 3.6771736-4.1013069 6.4852409-4.4346809.0103569-.1717148.0202217-.3434868.0202217-.5050888.0000002-3.5861072-2.9195402-6.5055256-6.5153273-6.5055256zm7.5156403 8.9602414h-.0808945c-.0202217 0-.0300903.0101128-.0508041.0101128h-.050312c-3.323513.0908813-6.0304642 2.6769257-6.2933693 5.9599915h12.9704857c-.27277-3.3436738-3.0808373-5.9701043-6.4951058-5.9701043z"/><path d="m65.0791321 44.4603386c.6517181 0 1.0820618.6502533.8633575 1.264183-.9355392 2.626236-3.4527931 4.5140457-6.4016991 4.5140457h-13.2028007l2.6958046 4.9530106c.2371826.4357719-.0782585.9665985-.574398.9665985h-28.900135c-.4965248 0-.8119297-.5315819-.5739746-.9673729l2.7040501-4.9522362h-13.2131606c-2.9788342 0-5.5172143-1.9263268-6.429698-4.5942383-.1995431-.5834236.2708402-1.1839905.8874431-1.1839905h62.1452107z"/></g></svg>