<svg height="512" viewBox="0 0 58 58" width="512" xmlns="http://www.w3.org/2000/svg"><g id="Page-1" fill="none" fill-rule="evenodd"><g id="039---Positive-Interactions" fill="rgb(0,0,0)" fill-rule="nonzero"><path id="Shape" d="m40 42c0 2.7614237 2.2385763 5 5 5s5-2.2385763 5-5-2.2385763-5-5-5c-.931283.000782-1.8432428.2657012-2.63.764-.6010626.9178775-1.2946927 1.7716792-2.07 2.548-.1969086.5410719-.298415 1.1122142-.3 1.688z"/><circle id="Oval" cx="13" cy="10" r="5"/><path id="Shape" d="m43 29c0-7.7319865-6.2680135-14-14-14s-14 6.2680135-14 14 6.2680135 14 14 14c7.7285595-.0082673 13.9917327-6.2714405 14-14zm-8.293-3.293-8 8c-.3904999.3903819-1.0235001.3903819-1.414 0l-2-2c-.3789722-.3923789-.3735524-1.0160848.0121814-1.4018186s1.0094397-.3911536 1.4018186-.0121814l1.293 1.293 7.293-7.293c.3923789-.3789722 1.0160848-.3735524 1.4018186.0121814s.3911536 1.0094397.0121814 1.4018186z"/><path id="Shape" d="m13 25c.186 0 .359-.006.53-.013.7056552-2.7286124 2.1201056-5.2221851 4.1-7.228-.7872867-.4965396-1.6992093-.7597142-2.63-.759h-4c-2.76005315.0033061-4.99669388 2.2399468-5 5v.727c.62724134.4546401 1.29703368.8474733 2 1.173v-1.9c0-.5522847.44771525-1 1-1s1 .4477153 1 1v2.605c.9791727.2585083 1.987285.3912431 3 .395z"/><path id="Shape" d="m8.6 15.434c-2.30425043-1.8661256-3.18278196-4.9815864-2.19293518-7.77661743.98984677-2.79503102 3.63330538-4.66319596 6.59843518-4.66319596s5.6085884 1.86816494 6.5984352 4.66319596c.9898468 2.79503103.1113152 5.91049183-2.1929352 7.77661743.6347863.2323615 1.2316098.5575645 1.771.965 1.7195024-1.3434913 3.6967211-2.3193367 5.809-2.867.007-.17.013-.343.013-.53.0109692-5.35538929-3.5280342-10.06980361-8.6735676-11.55432386-5.1455335-1.48452024-10.65191397.62024134-13.49531443 5.15845559-2.84340047 4.53821427-2.33546165 10.41122417 1.24488203 14.39386827.37224072-2.5437128 2.10680932-4.6796882 4.52-5.566z"/><path id="Shape" d="m40.6 47.434c-1.581411-1.2817141-2.525334-3.1892784-2.585-5.224-1.5230246 1.037537-3.2149042 1.8022665-5 2.26-.007.17-.013.343-.013.53.0009902 2.9559883 1.098448 5.806528 3.08 8 .3718798-2.543234 2.1055877-4.6790946 4.518-5.566z"/><path id="Shape" d="m47 49h-4c-2.7600532.0033061-4.9966939 2.2399468-5 5v.727c.6272413.4546401 1.2970337.8474733 2 1.173v-1.9c0-.5522847.4477153-1 1-1s1 .4477153 1 1v2.6c1.9653284.5266622 4.0346716.5266622 6 0v-2.6c0-.5522847.4477153-1 1-1s1 .4477153 1 1v1.9c.7027671-.3239366 1.3725526-.7150913 2-1.168v-.732c-.0033061-2.7600532-2.2399468-4.9966939-5-5z"/><path id="Shape" d="m45 33c-.186 0-.359.006-.53.013-.1812537.7171641-.4121436 1.4208604-.691 2.106.4026542-.0758778.8112721-.1157022 1.221-.119 2.9611134.0053531 5.5985341 1.8733149 6.5863552 4.6648074s.1123234 5.9025652-2.1863552 7.7691926c2.4131907.8863118 4.1477593 3.0222872 4.52 5.566 3.1706404-3.5183049 3.9708775-8.5742866 2.0417143-12.8997646-1.9291631-4.3254779-6.2255382-7.1083706-10.9617143-7.1002354z"/><path id="Shape" d="m33.377 3.037 1.33-1.33c.3789722-.39237889.3735524-1.01608478-.0121814-1.40181857-.3857338-.3857338-1.0094397-.39115364-1.4018186-.01218143l-3 3c-.3903819.39049985-.3903819 1.02350015 0 1.414l3 3c.3923789.37897221 1.0160848.37355237 1.4018186-.01218142.3857338-.3857338.3911536-1.00943969.0121814-1.40181858l-1.244-1.244c12.6550651.78678562 22.5208016 11.271511 22.537 23.951 0 .5522847.4477153 1 1 1s1-.4477153 1-1c-.0163705-13.8176817-10.825563-25.2151176-24.623-25.963z"/><path id="Shape" d="m24.707 50.293c-.3923789-.3789722-1.0160848-.3735524-1.4018186.0121814s-.3911536 1.0094397-.0121814 1.4018186l1.244 1.244c-12.6550651-.7867856-22.52080162-11.271511-22.537-23.951 0-.5522847-.44771525-1-1-1s-1 .4477153-1 1c.01637054 13.8176817 10.825563 25.2151176 24.623 25.963l-1.33 1.33c-.2599566.2510745-.3642126.6228779-.2726972.9725073.0915155.3496295.3645604.6226744.7141899.7141899.3496294.0915154.7214328-.0127406.9725073-.2726972l3-3c.3903819-.3904999.3903819-1.0235001 0-1.414z"/></g></g></svg>