<svg id="Capa_1" enable-background="new 0 0 512 512" height="512" viewBox="0 0 512 512" width="512" xmlns="http://www.w3.org/2000/svg"><path d="m476.267 38.91c-77.818 28.01-163.91 15.341-230.359-33.899-17.02-12.612-40.446-.163-43.903 23.331l-16.258 110.477c-.58 3.942-1.044 7.882-1.426 11.817.323-.106.647-.205.969-.313 22.337-7.451 43.244-18.463 62.139-32.733 9.707-7.331 21.137-11.206 33.053-11.206 14.265 0 28.122 5.571 39.018 15.686 10.452 9.703 17.47 23.111 19.761 37.754l17.26 110.325c4.853 31.022 4.198 62.708-1.776 92.924l30.619-15.885c57.927-30.052 99.484-91.58 109.966-162.813l16.258-110.477c3.457-23.492-15.39-42.162-35.321-34.988z"/><path d="m309.622 164.463c-2.656-16.977-15.717-28.077-29.139-28.077-5.126 0-10.303 1.618-14.974 5.146-43.478 32.833-95.633 49.876-148.476 49.876-27.374 0-54.925-4.57-81.566-13.887-2.875-1.006-5.726-1.477-8.484-1.477-16.423-.002-29.66 16.698-26.517 36.786l17.26 110.325c11.129 71.135 53.243 132.283 111.44 161.808l40.682 20.639c8.481 4.302 17.601 6.398 26.637 6.398 15.099 0 29.968-5.848 41.267-17.021l32.435-32.078c46.399-45.889 67.825-116.977 56.696-188.113zm-210.727 133.456c-6.518 1.02-12.386 5.393-16.523 12.315-2.809 4.7-7.785 7.307-12.89 7.307-2.619 0-5.271-.686-7.682-2.127-7.111-4.25-9.43-13.46-5.18-20.571 8.791-14.708 22.158-24.141 37.638-26.563 15.481-2.421 31.09 2.479 43.952 13.799 6.219 5.474 6.823 14.952 1.35 21.17s-14.952 6.823-21.17 1.35c-6.053-5.328-12.977-7.701-19.495-6.68zm94.525 133.618c-31.589 4.942-61.202-16.659-66.144-48.248-.005-.031-.01-.063-.015-.094-.632-4.087 3.438-7.308 7.314-5.867 15.814 5.879 33.309 7.907 51.164 5.113 17.855-2.793 33.895-10.067 47.157-20.495 3.251-2.556 8.11-.733 8.757 3.352.005.031.01.063.015.094 4.942 31.589-16.66 61.203-48.248 66.145zm89.689-150.746c-5.473 6.219-14.952 6.823-21.17 1.35-6.054-5.328-12.98-7.699-19.495-6.68-6.52 1.02-12.387 5.393-16.523 12.314-2.809 4.7-7.786 7.308-12.89 7.308-2.619 0-5.27-.686-7.681-2.126-7.111-4.25-9.431-13.459-5.181-20.571 8.79-14.708 22.157-24.142 37.638-26.564 15.477-2.423 31.089 2.479 43.952 13.799 6.219 5.473 6.823 14.951 1.35 21.17z"/></svg>