<svg height="512" viewBox="0 0 57 56" width="512" xmlns="http://www.w3.org/2000/svg"><g id="Page-1" fill="none" fill-rule="evenodd"><g id="003---Inspect-Antique" fill="rgb(0,0,0)" fill-rule="nonzero" transform="translate(-1)"><path id="Shape" d="m10.19 56h17.62c.2703194.0033932.5276564-.115717.7-.324 1.7497675-2.0909773 3.2979856-4.342657 4.624-6.725-4.5481612-.2199496-8.7811762-2.3883814-11.617-5.951h-19.287c1.61204355 4.6418448 4.07773796 8.9413782 7.27 12.677.170229.205299.42330728.323769.69.323zm-1.74-6.835c.46117326-.3036759 1.08119728-.1760897 1.385.285.572.869 1.186 1.725 1.83 2.55h3.335c.5522847 0 1 .4477153 1 1s-.4477153 1-1 1h-3.82c-.3037783.000114-.5911385-.1378631-.781-.375-.79-.988-1.542-2.023-2.234-3.075-.30367591-.4611733-.17608974-1.0811973.285-1.385z"/><path id="Shape" d="m18.148 31h-5.148c-.5522847 0-1-.4477153-1-1s.4477153-1 1-1h5.53c1.314817-5.1942227 5.1675921-9.3709786 10.239-11.1-1.3263971-1.6795558-2.3364792-3.5862085-2.981-5.627-.648389-2.42170023-.4319628-4.99370584.612-7.273h-8.4c-.5522847 0-1-.44771525-1-1s.4477153-1 1-1h11.5c.8284271 0 1.5-.67157288 1.5-1.5s-.6715729-1.5-1.5-1.5h-21c-.82842712 0-1.5.67157288-1.5 1.5s.67157288 1.5 1.5 1.5h4.5c.5522847 0 1 .44771525 1 1s-.4477153 1-1 1h-1.4c1.0447669 2.27979051 1.2612101 4.85270586.612 7.275-.933 3.288-3.142 5.933-5.277 8.492l-.723.869c-1.83088448 2.176938-3.24361573 4.673543-4.167 7.364h5.955c.55228475 0 1 .4477153 1 1s-.44771525 1-1 1h-6.515c-.7125126 3.3026945-.64987368 6.7255861.183 10h18.5c-1.7453589-3.0240363-2.4546934-6.5355932-2.02-10z"/><circle id="Oval" cx="30.995" cy="26" r="1"/><path id="Shape" d="m27.338 38.657c.2510745.2599566.6228779.3642126.9725073.2726972.3496295-.0915155.6226744-.3645604.7141899-.7141899.0915154-.3496294-.0127406-.7214328-.2726972-.9725073-2.0173984-2.0249769-2.3317056-5.189783-.752-7.572.2945253-.459119.1667863-1.0695686-.2871125-1.3720769-.4538989-.3025083-1.0664887-.185463-1.3768875.2630769-2.1061618 3.1758571-1.6873688 7.3951332 1.002 10.095z"/><path id="Shape" d="m24.1 42.9c5.4661977 5.4601724 14.3232696 5.4569163 19.7854512-.0072737 5.4621816-5.4641901 5.4621816-14.3212625 0-19.7854526-5.4621816-5.46419-14.3192535-5.4674461-19.7854512-.0072737-5.4591926 5.4711067-5.4591926 14.3288933 0 19.8zm18.385-18.385c3.432141 3.4319134 4.4589559 8.5933897 2.6016305 13.0775801-1.8573253 4.4841904-6.2330111 7.4079826-11.0866305 7.4079826s-9.2293052-2.9237922-11.0866305-7.4079826c-1.8573254-4.4841904-.8305105-9.6456667 2.6016305-13.0775801 4.6891928-4.6787507 12.2808072-4.6787507 16.97 0z"/><path id="Shape" d="m46.644 42.781c-.4104144.5386322-.854996 1.0503519-1.331 1.532-.4707253.4637167-.9696776.8978787-1.494 1.3l9.881 9.797c.7889193.7531388 2.0292946.7570933 2.823.009.3809121-.3714943.5964623-.8805407.598155-1.4126114s-.2106143-1.0424782-.589155-1.4163886z"/></g></g></svg>