<svg id="Capa_1" enable-background="new 0 0 512 512" height="512" viewBox="0 0 512 512" width="512" xmlns="http://www.w3.org/2000/svg"><g><path d="m467.637 239.734c-98.166-70.272-159.451-161.775-193.829-228.838-3.419-6.688-10.297-10.896-17.808-10.896s-14.389 4.208-17.808 10.896c-34.323 67.203-96.074 158.87-193.824 228.834-5.25 3.753-8.363 9.811-8.365 16.265s3.112 12.514 8.36 16.271c98.019 70.167 159.571 161.865 193.829 228.838 3.419 6.688 10.297 10.896 17.808 10.896s14.389-4.208 17.808-10.896c34.323-67.203 96.074-158.87 193.824-228.834 5.25-3.753 8.363-9.811 8.365-16.265.003-6.454-3.112-12.514-8.36-16.271zm-211.637 211.122c-48.251-82.242-96.015-138.079-167.097-194.856 71.029-56.735 118.812-112.556 167.097-194.856 48.251 82.242 96.015 138.079 167.097 194.856-71.029 56.735-118.812 112.556-167.097 194.856z"/></g></svg>