<svg height="512pt" viewBox="-61 0 512 512" width="512pt" xmlns="http://www.w3.org/2000/svg"><path d="m233.128906 0h-46.257812c-86.5 0-156.871094 71.371094-156.871094 157.871094 0 20.296875 7.601562 38.675781 19.734375 53.128906h100.265625c22.113281 0 41.25 12.152344 51.65625 30h23.34375c41.421875 0 75-33.578125 75-75v-15h30v15c0 57.988281-47.011719 105-105 105h-15c0 33.089844-26.910156 60-60 60h-60v-30h60c16.539062 0 30-13.460938 30-30s-13.460938-30-30-30h-92.574219c-31.714843 0-57.425781 25.710938-57.425781 57.425781 0 15.230469 6.050781 29.835938 16.820312 40.601563l51.96875 51.972656h272.726563c31.652344-55.824219 48.484375-118.539062 48.484375-183.164062v-49.964844c0-86.640625-70.234375-157.871094-156.871094-157.871094zm0 0"/><path d="m90 421v91h105.382812c-9.519531-12.574219-15.382812-28.050781-15.382812-45s5.863281-33.425781 15.382812-46zm0 0"/><path d="m210 467c0 24.851562 20.148438 45 45 45h75v-91h-75c-24.851562 0-45 21.148438-45 46zm0 0"/></svg>