<svg id="Layer_1" height="512" viewBox="0 0 512 512" width="512" xmlns="http://www.w3.org/2000/svg" data-name="Layer 1"><path d="m319.08 174.006 24.04 13.084 24.04-13.084v-25.574l-23.968-13.046-24.112 13.124z"/><path d="m367.16 268.642v-25.469l-24.04-13.085-24.04 13.085v25.471l24.039 13.084z"/><path d="m290.04 290.495v25.568l24.04 13.085 24.04-13.085v-25.568l-24.04-13.085z"/><path d="m290.04 195.851v25.477l24.04 13.085 24.04-13.085v-25.477l-24.04-13.085z"/><path d="m261 174.006 24.04 13.084 24.04-13.084v-25.496l-24.04-13.085-24.04 13.085z"/><path d="m338.12 126.683v-25.592l-24.04-13.084-24.04 13.084v25.592l24.04 13.085z"/><path d="m280.04 126.683v-25.592l-24.04-13.084-24.04 13.084v25.592l24.04 13.085z"/><path d="m173.88 195.851v25.477l24.04 13.085 24.04-13.085v-25.477l-24.04-13.085z"/><path d="m144.84 243.173v25.477l24.04 13.085 24.04-13.085v-25.477l-24.04-13.085z"/><path d="m348.12 221.328 24.04 13.085 24.04-13.085v-25.574l-23.951-13.037-24.129 13.134z"/><path d="m202.92 174.006 24.04 13.084 24.04-13.084v-25.496l-24.04-13.085-24.04 13.085z"/><path d="m231.96 195.851v25.477l24.04 13.085 24.04-13.085v-25.477l-24.04-13.085z"/><path d="m231.96 290.495v25.574l24.04 13.085 24.04-13.085v-25.574l-24.04-13.085z"/><path d="m202.92 243.173v25.477l24.04 13.085 24.04-13.085v-25.477l-24.04-13.085z"/><path d="m261 243.173v25.477l24.034 13.082 24.046-13.088v-25.471l-24.04-13.085z"/><path d="m173.88 290.495v25.574l10.369 5.644 13.671 7.441 24.04-13.085v-25.574l-24.04-13.085z"/><path d="m319.081 337.817v25.67l24.04 13.085 24.04-13.085v-25.67l-24.04-13.085z"/><path d="m290.042 385.238v25.671l24.041 13.084 24.04-13.084v-25.671l-24.04-13.084z"/><path d="m309.08 337.82-24.04-13.085-24.04 13.085v25.668l24.042 13.086 24.038-13.084z"/><path d="m132.905 453.39a15.3 15.3 0 0 0 13.195 7.61h219.8a15.3 15.3 0 0 0 13.2-7.61l109.843-189.748a15.29 15.29 0 0 0 0-15.284l-109.843-189.748a15.3 15.3 0 0 0 -13.2-7.61h-219.8a15.3 15.3 0 0 0 -13.2 7.61l-109.843 189.748a15.29 15.29 0 0 0 0 15.284zm-24.371-329.22 9.793-16.915a5 5 0 1 1 8.654 5.011l-9.793 16.915a5 5 0 1 1 -8.654-5.011zm-2.734 68.613a5 5 0 0 1 2.61-4.392l26.43-14.385v-28.546a5 5 0 0 1 2.61-4.391l26.43-14.386v-28.563a5 5 0 0 1 2.61-4.391l29.04-15.807a5 5 0 0 1 4.78 0l26.65 14.506 26.65-14.506a5 5 0 0 1 4.78 0l26.65 14.506 26.65-14.506a5 5 0 0 1 4.78 0l29.04 15.807a5 5 0 0 1 2.61 4.391v28.563l26.43 14.386a5 5 0 0 1 2.61 4.391v28.546l26.43 14.385a5 5 0 0 1 2.61 4.392v28.545l26.431 14.385a5 5 0 0 1 2.61 4.392v31.613a5 5 0 0 1 -2.61 4.391l-26.431 14.391v28.538a5 5 0 0 1 -2.61 4.391l-26.429 14.381v28.648a5 5 0 0 1 -2.61 4.392l-26.428 14.385v28.645a5 5 0 0 1 -2.61 4.391l-29.04 15.807a5 5 0 0 1 -4.781 0l-26.65-14.506-26.649 14.506a5 5 0 0 1 -4.781 0l-26.65-14.506-26.65 14.506a5 5 0 0 1 -4.78 0l-29.04-15.807a5 5 0 0 1 -2.61-4.391v-28.642l-26.432-14.387a5 5 0 0 1 -2.61-4.392v-28.641l-26.43-14.386a5 5 0 0 1 -2.61-4.392v-28.54l-26.431-14.391a5 5 0 0 1 -2.61-4.391v-31.613a5 5 0 0 1 2.61-4.392l26.431-14.385zm-42.9 10.208 33.424-57.737a5 5 0 0 1 8.654 5.01l-33.42 57.736a5 5 0 1 1 -8.654-5.01z"/><path d="m231.962 385.238v25.671l24.04 13.084 24.04-13.084v-25.669l-24.041-13.085z"/><path d="m377.16 268.643 24.135 13.137 23.946-13.033v-25.671l-23.952-13.036-24.129 13.133z"/><path d="m348.12 290.495v25.567l24.04 13.084 24.04-13.085v-25.566l-24.04-13.085z"/><path d="m163.88 221.328v-25.477l-24.129-13.134-23.951 13.037v25.574l24.04 13.085z"/><path d="m221.96 126.683v-25.592l-24.04-13.084-24.04 13.084v25.592l24.04 13.085z"/><path d="m134.84 268.65v-25.477l-24.129-13.133-23.952 13.036v25.671l23.953 13.036z"/><path d="m192.92 174.006v-25.496l-24.112-13.124-23.968 13.046v25.574l24.04 13.084z"/><path d="m251 337.82-24.04-13.085-24.04 13.085v25.668l24.042 13.086 24.038-13.084z"/><path d="m163.88 316.069v-25.574l-24.04-13.085-24.04 13.085v25.574l24.04 13.085 13.671-7.441z"/><path d="m173.882 385.238v25.671l24.04 13.084 24.04-13.084v-25.669l-24.041-13.085z"/><path d="m192.92 337.818-12.593-6.855-11.447-6.23-11.447 6.23-12.593 6.855v25.67l24.04 13.084 24.04-13.084z"/></svg>