<svg fill="none" height="512" viewBox="0 0 24 24" width="512" xmlns="http://www.w3.org/2000/svg"><g fill="rgb(0,0,0)"><path d="m10.25 3.01548v2.36256c-.2346-.08292-.48702-.12803-.75-.12803-1.24264 0-2.25 1.00736-2.25 2.25s1.00736 2.25 2.25 2.25c1.2426 0 2.25-1.00736 2.25-2.25v-5.5c0-.23801-.113-.46189-.3044-.6033-.1915-.1414-.4387-.18353-.6662-.11354l-5.99996 1.84616c-.3147.09682-.52944.38758-.52944.71683v2.53188c-.23458-.08292-.48702-.12803-.75-.12803-1.24264 0-2.25 1.00736-2.25 2.25s1.00736 2.24999 2.25 2.24999 2.25-1.00735 2.25-2.24999v-4.09992z"/><path d="m13.0303 16.5303c.2929-.2929.2929-.7677 0-1.0606s-.7677-.2929-1.0606 0l-1.5 1.5c-.2929.2929-.2929.7677 0 1.0606s.7677.2929 1.0606 0z"/><path clip-rule="evenodd" d="m13.5692 7.65161c2.0502-2.05025 5.3744-2.05025 7.4246 0 2.0503 2.05025 2.0503 5.37439 0 7.42459-.9844.9845-2.2625 1.4962-3.5523 1.5353l-6.2279 5.5944c-1.28498 1.1543-3.24847 1.1017-4.4699-.1197l-.21594-.2159c-1.2046-1.2046-1.27462-3.135-.16046-4.4237l5.5652-6.4371c.0365-.0422.0766-.0793.1196-.1113.1048-1.18441.6105-2.34003 1.5171-3.24659zm0 7.42459c.5722.5723 1.2437.9848 1.959 1.2376l-5.3169 4.7762c-.69198.6216-1.74925.5932-2.40694-.0644l-.21594-.216c-.64863-.6486-.68634-1.688-.0864-2.3819l4.76358-5.5099c.2439.7897.6784 1.5333 1.3036 2.1584z" fill-rule="evenodd"/></g></svg>