<svg height="496pt" viewBox="0 -28 496.0464 496" width="496pt" xmlns="http://www.w3.org/2000/svg"><path d="m495.945312 186.523438c-.398437-2.800782-1.597656-4.800782-4-6.398438l-237.199218-178c-3.601563-2.800781-8.398438-2.800781-12 0l-238.800782 178.796875c-4.398437 3.203125-5.199218 9.601563-2 14 2 2.402344 4.800782 4 8 4 2 0 4-.796875 6-2l233.199219-174.398437 230.800781 173.601562c2 1.597656 4.800782 2.398438 7.199219 2 2.800781-.402344 4.800781-1.601562 6.402344-4 2-2 2.800781-4.800781 2.398437-7.601562zm0 0"/><path d="m255.144531 274.125c.402344-.402344.800781-.800781 1.203125-1.203125 5.199219-8.398437 2.796875-16-1.203125-20s-10.796875-6-18.796875-.796875c-.402344.398438-.800781.796875-1.203125 1.199219-5.199219 8.398437-2.796875 16 1.203125 20 4 3.597656 10.796875 6 18.796875.800781zm0 0"/><path d="m279.945312 345.722656c0-1.199218-.398437-2.398437-.800781-3.597656 0-.402344 0-.402344 0-.800781-1.199219-4.402344-3.199219-8-5.597656-11.601563-1.601563-2.398437-3.601563-4.398437-6-6.398437-1.199219-.800781-2.402344-1.601563-3.601563-2.402344-5.199218-3.199219-10.800781-4.796875-17.199218-4.796875-7.199219 0-14 2.398438-19.601563 6.398438-.796875.800781-1.597656 1.199218-2.398437 2-.398438.398437-.800782.398437-.800782.800781-.800781.398437-1.199218 1.199219-1.597656 2-.402344.398437-.800781.800781-.800781 1.199219-.800781.800781-1.199219 1.601562-1.601563 2.398437 0 .402344-.398437.402344-.398437.800781-.800781 1.199219-1.199219 2-2 3.199219 0 0 0 .402344-.402344.800781-.398437.800782-.796875 2-1.199219 2.800782 0 .398437-.398437.800781-.398437 1.199218-.402344.800782-.402344 1.601563-.800781 2.800782 0 .398437-.398438.800781-.398438 1.199218-.402344.800782-.402344 2-.402344 2.800782v1.199218c0 1.199219-.398437 2.800782-.398437 4v10.800782h67.597656v-10.800782c0-1.597656 0-2.800781-.398437-4.398437-.800782-1.199219-.800782-1.199219-.800782-1.601563zm0 0"/><path d="m172.347656 292.921875c-27.203125 0-49.601562 22.800781-49.601562 50.800781v17.601563h74.398437v-10.800781c0-1.601563 0-3.601563.402344-5.199219 0-1.601563.398437-3.199219.800781-4.800781 0 0 0 0 0-.398438.398438-1.601562.796875-3.203125 1.199219-4.800781 0-.402344 0-.402344.398437-.800781.402344-1.199219.800782-2.800782 1.601563-4 0-.398438.398437-.800782.800781-1.199219.398438-1.199219.796875-2 1.597656-3.199219.402344-.800781.800782-1.203125 1.199219-1.601562.402344-.800782.800781-1.601563 1.601563-2.398438.398437-.800781.800781-1.203125 1.601562-2 .398438-.800781.796875-1.203125 1.597656-2 .402344-.800781 1.199219-1.203125 1.601563-2 .398437-.402344 1.199219-1.203125 1.597656-1.601562.402344-.398438.402344-.398438.800781-.800782-10.398437-12.800781-25.199218-20.800781-41.597656-20.800781zm0 0"/><path d="m195.945312 227.324219c0-13.476563-10.566406-24.402344-23.597656-24.402344-13.035156 0-23.601562 10.925781-23.601562 24.402344 0 13.476562 10.566406 24.398437 23.601562 24.398437 13.03125 0 23.597656-10.921875 23.597656-24.398437zm0 0"/><path d="m436.746094 178.921875-183.199219-140c-2.800781-2-6.800781-2-9.601563 0l-186.398437 143.203125c-1.199219.796875-1.601563 2-1.601563 3.199219v250.800781c0 2 1.601563 4 4 4h376c2 0 4-1.601562 4-4v-250.800781c0-2.402344-1.199218-4.800781-3.199218-6.402344zm-115.601563 1.203125c22.402344 0 40.800781 18.796875 40.800781 41.597656 0 23.199219-18.398437 41.601563-40.800781 41.601563-22.398437 0-40.796875-18.800781-40.796875-41.601563-.402344-22.800781 18-41.597656 40.796875-41.597656zm-96.796875 60.796875c.398438-.398437.796875-.796875.796875-.796875l2.402344-1.601562c12.800781-8.398438 28.398437-7.199219 38.800781 2.800781 9.597656 9.199219 14 26.398437 1.597656 42.800781-.398437.398438-.398437.398438-.800781.796875-6.398437 5.203125-14 8-21.199219 8-7.597656 0-14.800781-2.796875-20.398437-8.398437-10-9.199219-14.402344-26.800782-1.199219-43.601563zm-52-53.597656c22 0 39.597656 18 39.597656 40.398437 0 22.402344-17.597656 40.402344-39.597656 40.402344s-39.601562-18-39.601562-40.402344c0-22.398437 18-40.398437 39.601562-40.398437zm216.796875 186c0 2-1.597656 4-4 4h-270.398437c-2 0-4-.800781-5.601563-2.402344-1.597656-1.597656-2.398437-3.597656-2.398437-5.597656v-25.601563c0-36.800781 29.601562-66.800781 65.601562-66.800781 20.398438 0 39.199219 9.601563 51.597656 25.601563 1.199219 1.601562 2.800782 2 4.800782 1.199218 5.601562-2.398437 11.601562-3.597656 18-3.597656 5.199218 0 10.398437.796875 15.199218 2.398438 1.601563.398437 3.601563 0 4.402344-1.601563 12.796875-17.597656 32.796875-28 54.796875-28 37.601563 0 68 31.203125 68 69.203125zm0 0"/><path d="m321.144531 288.921875c-17.199219 0-32.796875 8.402344-42.796875 22.800781 1.597656 1.199219 2.796875 2.402344 4 3.601563 1.199219 1.199219 2.398438 2.800781 3.597656 4 0 0 0 .398437.402344.398437.796875 1.199219 2 2.800782 2.796875 4 0 0 0 .402344.402344.402344.800781 1.597656 1.597656 2.796875 2.398437 4.398438 0 0 0 .398437.402344.398437.796875 1.601563 1.199219 2.800781 2 4.402344v.398437c.398438 1.601563.796875 3.199219 1.199219 4.800782v.800781c.398437 1.597656.398437 3.199219.800781 4.398437v.800782c0 2 .398438 3.601562.398438 5.601562v10.796875h76.800781v-18.796875c-.402344-29.203125-24-53.203125-52.402344-53.203125zm0 0"/><path d="m346.347656 221.722656c0-14.136718-11.285156-25.597656-25.203125-25.597656-13.914062 0-25.199219 11.460938-25.199219 25.597656 0 14.140625 11.285157 25.601563 25.199219 25.601563 13.917969 0 25.203125-11.460938 25.203125-25.601563zm0 0"/></svg>