<svg id="Solid" height="512" viewBox="0 0 128 128" width="512" xmlns="http://www.w3.org/2000/svg"><path d="m112 32.2v36.64h-32.88l.05-.8.49-.39a1.666 1.666 0 0 0 .62-1.11l.6-5.22a1.429 1.429 0 0 0 -1.43-1.6h-10.97a1.429 1.429 0 0 0 -1.43 1.6l.6 5.23a1.667 1.667 0 0 0 .62 1.1l.49.39.05.8h-5.86v-10.49a3.715 3.715 0 0 0 -1.17-2.71c-.03-.02-.05-.05-.08-.07l-2.37-1.84a.451.451 0 0 1 -.1-.33 5.6 5.6 0 0 0 -.79-3.4 5.943 5.943 0 0 1 -.78-2.77.887.887 0 0 0 .23-.59v-3.72a.924.924 0 0 0 -.92-.92h-3.55a.931.931 0 0 0 -.92.92v3.72a.9.9 0 0 0 .24.59 5.84 5.84 0 0 1 -.78 2.76 5.663 5.663 0 0 0 -.79 3.41.5.5 0 0 1 -.17.4l-2.3 1.77c-.03.02-.05.05-.08.07a3.715 3.715 0 0 0 -1.17 2.71v10.49h-31.45v-36.64z"/><path d="m21.271 122.969a1.5 1.5 0 0 1 -1.5-1.5v-25.111a1.5 1.5 0 0 1 3 0v25.111a1.5 1.5 0 0 1 -1.5 1.5z"/><path d="m24.875 122.969h-7.5a1.5 1.5 0 0 1 0-3h7.5a1.5 1.5 0 0 1 0 3z"/><path d="m63.969 122.969a1.5 1.5 0 0 1 -1.5-1.5v-25.111a1.5 1.5 0 1 1 3 0v25.111a1.5 1.5 0 0 1 -1.5 1.5z"/><path d="m67.573 122.969h-7.5a1.5 1.5 0 0 1 0-3h7.5a1.5 1.5 0 0 1 0 3z"/><path d="m106.667 122.969a1.5 1.5 0 0 1 -1.5-1.5v-25.111a1.5 1.5 0 0 1 3 0v25.111a1.5 1.5 0 0 1 -1.5 1.5z"/><path d="m110.271 122.969h-7.5a1.5 1.5 0 0 1 0-3h7.5a1.5 1.5 0 1 1 0 3z"/><path d="m12.815 89.621h16.974a4.768 4.768 0 0 1 4.768 4.768v.3a1.671 1.671 0 0 1 -1.671 1.671h-23.169a1.671 1.671 0 0 1 -1.671-1.671v-.3a4.768 4.768 0 0 1 4.769-4.768z"/><path d="m55.513 89.621h16.974a4.768 4.768 0 0 1 4.768 4.768v.3a1.671 1.671 0 0 1 -1.671 1.671h-23.169a1.671 1.671 0 0 1 -1.671-1.671v-.3a4.768 4.768 0 0 1 4.769-4.768z"/><path d="m98.211 89.621h16.973a4.768 4.768 0 0 1 4.768 4.768v.3a1.671 1.671 0 0 1 -1.671 1.671h-23.168a1.671 1.671 0 0 1 -1.671-1.671v-.3a4.768 4.768 0 0 1 4.768-4.768z"/><path d="m79.42 65.266-.13 1.16a.662.662 0 0 1 -.25.44l-.68.54a.444.444 0 0 0 -.17.32l-.25 3.71a.447.447 0 0 1 -.44.42h-7.07a.447.447 0 0 1 -.44-.42l-.25-3.71a.444.444 0 0 0 -.17-.32l-.68-.54a.662.662 0 0 1 -.25-.44l-.13-1.16z"/><path d="m125.51 9.53v16.67a3.009 3.009 0 0 1 -3 3h-117.02a3.009 3.009 0 0 1 -3-3v-16.67a3 3 0 0 1 3-3h117.02a3 3 0 0 1 3 3z"/><path d="m125.51 74.84v4a3 3 0 0 1 -3 3h-117.02a3 3 0 0 1 -3-3v-4a3.009 3.009 0 0 1 3-3h42.26a2.219 2.219 0 0 0 1.92 1.11h11.05a2.235 2.235 0 0 0 1.93-1.11h6.41a1.44 1.44 0 0 0 1.37 1.02h7.07a1.453 1.453 0 0 0 1.37-1.02h43.64a3.009 3.009 0 0 1 3 3z"/><rect height="9.858" rx=".971" width="10.958" x="49.708" y="60.866"/></svg>