<svg height="512pt" viewBox="-47 0 512 512.00161" width="512pt" xmlns="http://www.w3.org/2000/svg"><path d="m202.132812 157.867188c0-12.929688 3.523438-25.574219 9.984376-36.601563-30.140626 7.085937-52.652344 34.195313-52.652344 66.46875 0 37.640625 30.625 68.265625 68.265625 68.265625 21.273437 0 40.824219-9.769531 53.546875-25.90625-2.191406.203125-4.402344.304688-6.613282.304688-39.996093 0-72.53125-32.535157-72.53125-72.53125zm0 0"/><path d="m316.445312 59.734375h-155.027343c-3.601563 21.410156-20.546875 38.347656-41.957031 41.957031v155.027344c21.410156 3.597656 38.347656 20.546875 41.957031 41.957031h155.027343c3.601563-21.410156 20.546876-38.347656 41.957032-41.957031v-155.027344c-21.410156-3.609375-38.347656-20.546875-41.957032-41.957031zm-9.898437 160.707031c-13.289063 31.964844-44.222656 52.625-78.816406 52.625-47.050781 0-85.332031-38.28125-85.332031-85.332031 0-47.054687 38.28125-85.335937 85.332031-85.335937.886719 0 1.765625.054687 2.636719.113281l1.058593.058593c3.441407.144532 6.460938 2.328126 7.648438 5.5625 1.191406 3.226563.339843 6.855469-2.179688 9.210938-11.40625 10.640625-17.695312 25.035156-17.695312 40.523438 0 30.582031 24.882812 55.464843 55.464843 55.464843 7.125 0 14.125-1.371093 20.796876-4.070312 3.183593-1.296875 6.835937-.535157 9.265624 1.902343 2.425782 2.441407 3.140626 6.101563 1.820313 9.277344zm34.789063-75.375c0 4.710938-3.824219 8.535156-8.535157 8.535156h-13.53125l-20.601562 20.597657v13.535156c0 4.710937-3.820313 8.53125-8.53125 8.53125-4.710938 0-8.535157-3.820313-8.535157-8.53125v-13.535156l-20.597656-20.597657h-13.535156c-4.710938 0-8.53125-3.824218-8.53125-8.535156 0-4.710937 3.820312-8.53125 8.53125-8.53125h13.535156l20.597656-20.601562v-13.535156c0-4.707032 3.824219-8.53125 8.535157-8.53125 4.710937 0 8.53125 3.824218 8.53125 8.53125v13.535156l20.601562 20.601562h13.53125c4.710938 0 8.535157 3.820313 8.535157 8.53125zm0 0"/><path d="m276.832031 144.722656 13.535157-13.535156 13.535156 13.535156-13.535156 13.535156zm0 0"/><path d="m409.714844 0h-332.800782c-3.261718 0-6.453124.273438-9.625.675781-18.46875 2.328125-35.671874 11.492188-47.941406 25.480469-5.050781 5.757812-9.257812 12.261719-12.417968 19.242188-4.128907 9.148437-6.449219 19.105468-6.824219 29.140624-.238281 6.441407.007812 12.945313.007812 19.394532v36.660156 4.753906 282.785156c0 42.351563 34.449219 76.800782 76.800781 76.800782h51.199219v8.53125c0 3.449218 2.082031 6.574218 5.265625 7.886718 3.183594 1.324219 6.859375.589844 9.300782-1.851562l19.566406-19.566406 19.566406 19.566406c1.632812 1.628906 3.816406 2.5 6.035156 2.5 1.101563 0 2.210938-.203125 3.265625-.648438 3.191407-1.3125 5.265625-4.4375 5.265625-7.886718v-8.53125h213.335938c4.707031 0 8.53125-3.816406 8.53125-8.535156v-25.597657h-221.867188v-17.066406h221.867188v-17.066406h-51.199219c-4.710937 0-8.535156-3.816407-8.535156-8.535157s3.824219-8.53125 8.535156-8.53125h51.199219v-17.066406h-341.332032c-14.113281 0-25.601562 11.484375-25.601562 25.597656 0 14.113282 11.488281 25.601563 25.601562 25.601563h51.199219v17.066406h-51.199219c-23.527343 0-42.667968-19.140625-42.667968-42.667969 0-23.527343 19.140625-42.667968 42.667968-42.667968h341.332032v-366.929688c0-4.722656-3.8125-8.535156-8.53125-8.535156zm-264.535156 452.265625v-25.597656h34.132812v56.199219l-11.03125-11.035157c-1.664062-1.664062-3.851562-2.5-6.035156-2.5s-4.367188.835938-6.03125 2.5l-11.035156 11.035157zm-85.332032-108.996094c-.53125.121094-1.042968.300781-1.5625.445313-10.09375 2.523437-19.378906 7.039062-27.460937 13.132812-.128907.09375-.253907.179688-.375.273438-.058594.050781-.121094.101562-.179688.152344-4.726562 3.636718-9.0625 7.75-12.832031 12.363281-.085938.09375-.171875.179687-.25.273437v-45.039062c0-26.65625 17.785156-49.695313 42.667969-57.136719v75.535156zm0-145.601562c-17.222656 3.921875-32.0625 13.609375-42.667968 26.765625v-36.699219c0-26.660156 17.785156-49.691406 42.667968-57.132813zm0-137.132813c-17.222656 3.925782-32.0625 13.609375-42.667968 26.769532v-10.503907c0-3.023437.300781-5.984375.734374-8.890625.078126-.523437.144532-1.050781.238282-1.5625.511718-2.859375 1.203125-5.660156 2.117187-8.363281.09375-.289063.214844-.570313.316407-.863281 2.003906-5.699219 4.847656-11.03125 8.402343-15.820313.136719-.179687.273438-.359375.410157-.535156 5.625-7.390625 12.929687-13.46875 21.402343-17.597656.042969-.015625.085938-.042969.128907-.058594 2.839843-1.382813 5.828124-2.550781 8.910156-3.472656zm315.621094 204c0 4.707032-3.824219 8.53125-8.53125 8.53125-18.828125 0-34.136719 15.308594-34.136719 34.132813 0 4.710937-3.820312 8.535156-8.53125 8.535156h-170.667969c-4.710937 0-8.53125-3.824219-8.53125-8.535156 0-18.824219-15.308593-34.132813-34.132812-34.132813-4.710938 0-8.535156-3.824218-8.535156-8.53125v-170.667968c0-4.710938 3.824218-8.535157 8.535156-8.535157 18.824219 0 34.132812-15.308593 34.132812-34.132812 0-4.710938 3.820313-8.53125 8.53125-8.53125h170.667969c4.710938 0 8.53125 3.820312 8.53125 8.53125 0 18.824219 15.308594 34.132812 34.136719 34.132812 4.707031 0 8.53125 3.824219 8.53125 8.535157zm0 0"/></svg>