<svg height="512" viewBox="0 0 60 60" width="512" xmlns="http://www.w3.org/2000/svg"><g id="Page-1" fill="none" fill-rule="evenodd"><g id="027---Tennis" fill="rgb(0,0,0)" fill-rule="nonzero" transform="translate(-1 -1)"><path id="Shape" d="m43.472 37.822c-.4975251-.4959071-1.2192848-.6934413-1.9-.52-2.95-3.284-3.5-7.24-4.128-11.786-.8-5.814-1.71-12.4-8.1-18.8-3.2546087-3.3233368-7.6107421-5.34387148-12.25-5.682-4.3650927-.36415387-8.67191748 1.1936649-11.794 4.266-3.0696941 3.12380027-4.62737059 7.4292225-4.267 11.794.33860437 4.6400413 2.36026355 8.9966546 5.685 12.251 6.308 6.309 12.713 7.139 18.362 7.871 4.64.6 8.675 1.13 12.223 4.361-.1704597.6784782.025973 1.3967087.518 1.894l16.928 16.929c.3729186.3831886.8844134.6000927 1.4191085.6017859.5346952.0016933 1.0475535-.2119669 1.4228915-.5927859l2.809-2.815c.3803874-.3737744.5946515-.8847066.5946515-1.418s-.2142641-1.0442256-.5946515-1.418zm-40.372-23.408c.15976309-1.5286391.58514796-3.0176554 1.257-4.4l1.653 1.653-2.828 2.833zm2.91 5.739-1.823 1.823c-.61828384-1.5250844-1.00001828-3.135653-1.132-4.776zm-1.41-4.243 2.829-2.828 2.824 2.828-2.828 2.829zm12.725 12.728 2.828-2.828 2.828 2.828-2.828 2.828zm1.541 4.37c-1.6414125-.1320306-3.2530123-.5141069-4.779-1.133l1.823-1.823zm2.7-8.612 2.834-2.829 2.824 2.833-2.824 2.824zm5.657-8.486-2.823 2.829-2.833-2.829 2.833-2.829zm-1.415-4.243 2.8-2.8c.9087215 1.00738123 1.700433 2.1144355 2.36 3.3l-2.33 2.333zm-5.655 2.833-2.829-2.828 2.829-2.829 2.828 2.828zm-1.414 1.41-2.829 2.829-2.828-2.829 2.828-2.828zm1.414 1.414 2.829 2.829-2.829 2.828-2.829-2.828zm5.657 2.829 2.828-2.829 2.829 2.829-2.829 2.828zm4.242-4.243 1.823-1.823c.6188931 1.5259877 1.0009694 3.1375875 1.133 4.779zm-5.652-5.657-2.833-2.828 2.333-2.325c1.1853728.65947802 2.2924006 1.45083521 3.3 2.359zm-4.247-4.242-2.953-2.956c1.6413246.13258777 3.2528408.51464424 4.779 1.133zm-5.653-2.829-2.833 2.829-1.646-1.646c1.378633-.673756 2.8642363-1.10183989 4.39-1.265zm1.41 1.418 2.829 2.829-2.829 2.825-2.829-2.829zm-1.41 7.068-2.833 2.832-2.828-2.832 2.828-2.829zm-2.829 5.656 2.829 2.829-2.828 2.828-2.833-2.828zm4.243 4.243 2.825 2.833-2.829 2.824-2.828-2.824zm-1.414 7.071-2.329 2.329c-1.1855378-.6592171-2.29259407-1.4505946-3.3-2.359l2.8-2.8zm7.152 4.323-.081-.081 2.829-2.828 1.647 1.648c-1.3820057.6725312-2.8705787 1.0992397-4.399 1.261zm6.148-2.329-1.994-1.994 2.829-2.829 1.997 1.991c-.3868714.5477453-.8172651 1.0634151-1.287 1.542-.4791665.4711849-.9958706.9026079-1.545 1.29zm3.9-4.585-1.648-1.647 2.829-2.828.081.081c-.1614364 1.5270096-.5885295 3.0140516-1.262 4.394zm-23.443-20.618 2 2-2.832 2.825-1.994-1.994c.38631321-.548174.81674347-1.06388764 1.287-1.542.47726306-.47061665.9919545-.9017 1.539-1.289zm-3.157 18.471 2.329-2.329 2.824 2.829-2.8 2.8c-.90630843-1.0077154-1.69566437-2.1147594-2.353-3.3zm17.5 10.957c6.5065385-.9473833 11.5645474-6.1485589 12.33-12.679.213 1.212.382 2.418.547 3.615.638 4.623 1.242 9 4.494 12.713l-1.471 1.455c-3.974-3.535-8.447-4.117-13.166-4.729-.907-.117-1.823-.238-2.743-.379z"/><path id="Shape" d="m21 50c.0007564 2.3162303-.8951847 4.542823-2.5 6.213-3.3278184-3.4735805-3.3278184-8.9524195 0-12.426 1.6048153 1.670177 2.5007564 3.8967697 2.5 6.213zm-4.04-7.5c-3.9468102 4.2234459-3.9468102 10.7825541 0 15.006-3.0054181 1.9961249-6.9145819 1.9961249-9.92 0 1.90110215-2.0371903 2.95889186-4.7195448 2.96-7.506-.00262606-2.7843827-1.06031006-5.4643252-2.96-7.5 3.0054181-1.9961249 6.9145819-1.9961249 9.92 0zm-11.46 1.287c1.60153585 1.6722956 2.49692346 3.8975129 2.5 6.213-.00307654 2.3154871-.89846415 4.5407044-2.5 6.213-3.3386362-3.4692277-3.3386362-8.9567723 0-12.426z"/></g></g></svg>