<?xml version="1.0" encoding="UTF-8"?>
<svg xmlns="http://www.w3.org/2000/svg" viewBox="0 0 64 64" width="512" height="512"><g id="Layer_14" data-name="Layer 14"><path d="M42.994,18.1A5.142,5.142,0,0,0,39.9,20.078a12.563,12.563,0,0,1,1.553,1.081A4.3,4.3,0,0,0,42.994,18.1Z"/><path d="M21.006,18.1a4.3,4.3,0,0,0,1.538,3.057A12.563,12.563,0,0,1,24.1,20.078,5.142,5.142,0,0,0,21.006,18.1Z"/><path d="M23.833,33.34A7.212,7.212,0,0,1,23,30c0-4.411,4.037-8,9-8s9,3.589,9,8a7.2,7.2,0,0,1-.833,3.34A6.932,6.932,0,0,0,43,28c0-4.411-4.935-8-11-8s-11,3.589-11,8A6.932,6.932,0,0,0,23.833,33.34Z"/><path d="M40,52H24a3.006,3.006,0,0,0-2.829,2H42.829A3.006,3.006,0,0,0,40,52Z"/><rect x="28" y="48" width="8" height="2"/><path d="M32,38a15.752,15.752,0,0,1-7.353-1.762A9.869,9.869,0,0,0,22.05,42H25V40h2v2H37V40h2v2h2.95a9.869,9.869,0,0,0-2.6-5.762A15.752,15.752,0,0,1,32,38Z"/><path d="M7,42H20.052a12.068,12.068,0,0,1,2.875-6.852A9.03,9.03,0,0,1,19,28a8.387,8.387,0,0,1,2.111-5.445A6.3,6.3,0,0,1,19,17.877V17a1,1,0,0,1,1-1,7.144,7.144,0,0,1,5.909,3.171,16.427,16.427,0,0,1,12.182,0A7.144,7.144,0,0,1,44,16a1,1,0,0,1,1,1v.877a6.3,6.3,0,0,1-2.111,4.678A8.387,8.387,0,0,1,45,28a9.03,9.03,0,0,1-3.927,7.148A12.068,12.068,0,0,1,43.948,42H57V14H7Z"/><path d="M37.171,28h1.421a5.721,5.721,0,0,0-.82-1.388A5.719,5.719,0,0,1,37.171,28Z"/><path d="M58,10H6a3,3,0,0,0-3,3V43a3,3,0,0,0,3,3H58a3,3,0,0,0,3-3V13A3,3,0,0,0,58,10Zm1,33a1,1,0,0,1-1,1H6a1,1,0,0,1-1-1V13a1,1,0,0,1,1-1H58a1,1,0,0,1,1,1Z"/><path d="M25.408,28h1.421a5.719,5.719,0,0,1-.6-1.388A5.721,5.721,0,0,0,25.408,28Z"/><path d="M32,36c3.859,0,7-2.691,7-6H35a1,1,0,0,1-.707-1.707l.586-.586a3.8,3.8,0,0,0,1.113-2.629,7.93,7.93,0,0,0-7.984,0,3.8,3.8,0,0,0,1.113,2.629l.586.586A1,1,0,0,1,29,30H25C25,33.309,28.141,36,32,36Zm-1-4a1,1,0,0,0,2,0h2a3,3,0,0,1-6,0Z"/></g></svg>
