<svg height="512pt" viewBox="0 -82 512.00041 512" width="512pt" xmlns="http://www.w3.org/2000/svg"><path d="m511.738281 227.746094c-1.777343-11.007813-12.140625-18.496094-23.148437-16.714844l-12.84375 2.070312c-25.578125 34.792969-79.007813 26.328126-93.367188-13.390624l-4.203125-2.007813-.753906-16.585937c-.652344-14.253907-12.675781-25.316407-26.933594-24.773438l-1.054687.039062c2.371094-2.914062 3.796875-6.632812 3.796875-10.683593v-13.265625c0-9.355469-7.585938-16.945313-16.941407-16.945313h-88.503906c-9.355468 0-16.941406 7.585938-16.941406 16.945313v13.265625c0 6.40625 3.554688 11.976562 8.796875 14.855469-14.203125.542968-27.691406 1.054687-27.691406 1.054687l-80.433594 22.277344-74.046875-45.28125c-9.851562-6.023438-22.71875-2.921875-28.742188 6.925781-6.023437 9.851562-2.921874 22.71875 6.925782 28.742188l81.933594 50.105468c5.023437 3.070313 11.105468 3.878906 16.757812 2.234375l80.996094-23.609375.585937 5.609375-76.453125 35.589844c-16.832031 7.832031-29.867187-3.605469-31.445312-4.195313l-9.023438-5.519531-74.515625-12.953125c-11.371093-1.980468-22.199219 5.636719-24.175781 17.011719s5.640625 22.199219 17.015625 24.175781l117.296875 20.398438c3.875.675781 7.875.242187 11.53125-1.261719l74.203125-30.511719.015625.152344 101.78125-3.402344 3.519531-24.535156 7.15625 66.109375c.652344 6.023437 3.972657 11.4375 9.050781 14.742187l62.246094 40.566407c9.34375 6.089843 21.851563 3.449219 27.941406-5.894531 6.089844-9.339844 3.449219-21.847657-5.890624-27.9375l-54.230469-35.339844-4.144531-38.308594 5.921874 2.832031 41.476563 19.804688c3.59375 1.714843 7.742187 2.386719 11.917969 1.714843l67.902344-10.957031c11.007812-1.773437 18.492187-12.140625 16.714843-23.148437zm0 0"/><path d="m471.0625 179.878906c-.894531-21.21875-18.816406-37.691406-40.035156-36.796875-21.214844.894531-37.691406 18.816407-36.796875 40.035157.894531 21.214843 18.820312 37.691406 40.035156 36.796874 21.21875-.894531 37.691406-18.820312 36.796875-40.035156zm0 0"/><path d="m404.386719 119.921875c0 8.65625-7.019531 15.675781-15.679688 15.675781-8.660156 0-15.679687-7.019531-15.679687-15.675781 0-8.660156 7.019531-15.679687 15.679687-15.679687 8.660157 0 15.679688 7.019531 15.679688 15.679687zm0 0"/><path d="m432.660156 80.246094c0 4.835937-3.917968 8.753906-8.753906 8.753906s-8.753906-3.917969-8.753906-8.753906c0-4.832032 3.917968-8.753906 8.753906-8.753906s8.753906 3.921874 8.753906 8.753906zm0 0"/><path d="m392.058594 52.960938c0 5.257812-4.257813 9.515624-9.515625 9.515624-5.253907 0-9.515625-4.257812-9.515625-9.515624 0-5.253907 4.261718-9.515626 9.515625-9.515626 5.257812 0 9.515625 4.261719 9.515625 9.515626zm0 0"/><path d="m500.136719 4.886719c-17.847657-6.738281-40.257813-6.496094-57.746094.761719-10.570313 4.386718-25.910156 4.386718-36.476563 0-18.148437-7.53125-41.601562-7.53125-59.746093 0-10.566407 4.386718-25.90625 4.386718-36.476563 0-18.144531-7.53125-41.597656-7.53125-59.742187 0-10.570313 4.386718-25.910157 4.386718-36.476563 0-18.148437-7.53125-41.601562-7.53125-59.746094 0-10.566406 4.386718-25.90625 4.386718-36.476562 0-18.148438-7.53125-41.597656-7.53125-59.742188 0-10.570312 4.386718-25.910156 4.386718-36.476562 0-7.742188-3.210938-16.625.460937-19.835938 8.203124-3.214843 7.738282.457032 16.621094 8.199219 19.835938 18.144531 7.527344 41.597657 7.53125 59.746094 0 10.566406-4.386719 25.90625-4.386719 36.476563 0 18.148437 7.53125 41.601562 7.527344 59.746093 0 10.566407-4.386719 25.90625-4.386719 36.476563 0 18.144531 7.53125 41.597656 7.527344 59.742187 0 10.570313-4.386719 25.90625-4.386719 36.476563 0 9.074218 3.761719 19.472656 5.644531 29.871094 5.644531 10.402343 0 20.800781-1.882812 29.875-5.644531 10.566406-4.386719 25.90625-4.386719 36.472656 0 18.148437 7.53125 41.601562 7.53125 59.746094 0 10.570312-4.386719 25.910156-4.386719 36.472656 0l.085937-.207031c10.019531 4.523437 21.386719-2.820313 21.386719-13.8125 0-7.230469-5.0625-13.265625-11.832031-14.78125zm0 0"/></svg>