<svg id="Capa_1" enable-background="new 0 0 512 512" height="512" viewBox="0 0 512 512" width="512" xmlns="http://www.w3.org/2000/svg"><g><path d="m112 295.988c0-8.284-6.716-15-15-15h-82c-8.284 0-15 6.716-15 15s6.716 15 15 15h82c8.284 0 15-6.716 15-15z"/><path d="m15 250.988h32c8.284 0 15-6.716 15-15s-6.716-15-15-15h-32c-8.284 0-15 6.716-15 15s6.716 15 15 15z"/><ellipse cx="347.925" cy="56.002" rx="55" ry="55" transform="matrix(.707 -.707 .707 .707 62.306 262.423)"/><path d="m492.252 65.934c-15.569-5.667-32.784 2.361-38.451 17.93l-25.652 70.477-50.94-18.541c-9.134 3.362-18.998 5.201-29.284 5.201-31.463 0-58.967-17.196-73.663-42.671l-12.266-4.464c-15.11-5.499-31.28-7.455-47.265-5.717l-57.268 6.229c-17.045 1.854-31.556 13.233-37.421 29.345l-23.392 64.268c-5.667 15.569 2.361 32.785 17.93 38.451 15.569 5.667 32.785-2.361 38.451-17.93l19.289-52.997 60.65-5.826-72.89 200.262h-75.5c-19.33 0-34.999 15.67-35 34.999v.001c0 19.33 15.67 35 35 35h93.006c18.918 0 35.816-11.832 42.286-29.609l16.418-45.109 56.382 20.522-35.768 98.272c-8.309 22.828 8.596 46.97 32.889 46.97 14.714 0 27.857-9.203 32.889-23.029l44.318-121.764c8.5-23.354-3.542-49.177-26.896-57.677l-23.492-8.55 39.332-108.065 65.779 23.942c23.354 8.5 49.177-3.541 57.677-26.896l30.781-84.572c5.668-15.57-2.359-32.785-17.929-38.452z"/></g></svg>