<svg id="svg" xmlns="http://www.w3.org/2000/svg" width="400" height="400" viewBox="0 0 400 400"><g id="svgg"><path id="path0" d="M112.037 5.530 C 18.261 24.179,-29.301 130.683,18.691 214.561 C 30.566 235.316,53.238 257.178,72.947 266.877 L 81.050 270.865 72.165 276.356 C 49.965 290.077,22.540 315.607,21.008 323.979 C 18.474 337.829,24.128 344.534,57.031 366.698 C 120.196 409.247,216.291 408.192,280.094 364.249 C 288.250 358.632,294.333 355.785,301.897 354.046 C 440.854 322.094,427.708 117.903,285.765 103.474 L 274.645 102.344 271.227 92.894 C 248.566 30.235,179.210 -7.828,112.037 5.530 M171.784 22.053 C 185.694 25.609,202.175 33.556,214.407 42.606 L 223.345 49.219 197.287 75.340 C 167.321 105.380,170.650 104.580,158.263 84.707 C 147.169 66.907,139.063 40.905,139.063 23.118 L 139.063 16.823 149.609 17.952 C 155.410 18.572,165.389 20.418,171.784 22.053 M124.206 27.734 C 127.703 59.377,135.918 81.221,152.788 103.737 L 159.685 112.942 149.752 122.876 L 139.818 132.809 98.425 91.314 L 57.031 49.818 63.281 44.473 C 76.498 33.169,102.494 21.881,122.153 18.910 C 122.736 18.822,123.660 22.793,124.206 27.734 M119.349 153.276 L 109.811 162.814 99.827 155.396 C 81.227 141.575,47.032 128.174,30.273 128.136 C 18.050 128.109,15.469 126.674,16.545 120.501 C 19.392 104.166,30.204 80.345,40.900 66.840 L 45.801 60.652 87.344 102.195 L 128.887 143.738 119.349 153.276 M241.235 69.164 C 244.578 73.663,249.994 82.969,253.271 89.844 C 260.090 104.152,260.972 102.765,242.459 106.859 C 231.612 109.258,213.600 116.828,204.383 122.863 C 199.581 126.006,196.473 124.957,187.152 117.047 L 182.031 112.702 207.795 86.820 C 237.691 56.786,233.629 58.930,241.235 69.164 M185.831 135.516 C 186.202 135.773,184.391 138.259,181.806 141.039 C 179.222 143.819,174.769 149.142,171.910 152.869 L 166.712 159.644 158.779 151.710 L 150.845 143.777 160.827 133.706 L 170.808 123.634 177.982 129.341 C 181.928 132.479,185.460 135.258,185.831 135.516 M247.191 147.530 L 265.476 160.156 265.550 173.012 L 265.625 185.868 249.099 196.956 L 232.572 208.044 219.174 202.682 L 205.777 197.321 199.692 181.864 C 195.858 172.123,192.078 165.140,189.471 162.982 L 185.334 159.557 195.564 149.701 C 210.471 135.339,224.949 127.045,227.224 131.564 C 228.149 133.400,237.134 140.585,247.191 147.530 M341.762 141.335 C 350.886 148.194,351.265 148.735,348.725 151.275 C 347.248 152.752,343.280 163.848,339.909 175.931 L 333.779 197.902 323.530 202.575 L 313.281 207.248 297.266 196.558 L 281.250 185.868 281.303 173.012 L 281.356 160.156 300.260 147.033 C 310.657 139.816,319.498 132.633,319.906 131.072 C 320.860 127.426,327.253 130.428,341.762 141.335 M48.271 146.934 C 63.011 151.018,77.407 157.949,89.228 166.652 L 98.872 173.751 72.483 200.188 L 46.094 226.626 41.899 221.516 C 27.386 203.840,17.202 178.146,14.719 152.945 L 13.612 141.716 25.372 142.781 C 31.839 143.367,42.144 145.236,48.271 146.934 M155.278 182.545 C 153.272 187.419,150.447 196.825,149.001 203.449 L 146.372 215.491 141.029 205.011 C 138.091 199.247,132.305 189.876,128.172 184.187 L 120.657 173.843 130.222 164.278 L 139.786 154.714 149.356 164.199 L 158.926 173.684 155.278 182.545 M115.896 193.359 C 126.385 207.259,136.074 229.270,138.333 244.328 L 139.374 251.276 130.234 253.043 C 125.207 254.014,116.307 256.512,110.457 258.593 C 100.084 262.283,99.658 262.311,93.270 259.704 C 83.139 255.571,68.540 247.203,62.537 242.090 L 57.104 237.462 82.831 211.700 C 112.577 181.913,108.828 183.993,115.896 193.359 M215.560 217.712 L 227.214 222.702 233.045 242.955 C 239.733 266.183,239.815 264.874,231.881 261.543 C 216.358 255.026,192.845 250.282,173.828 249.830 C 163.923 249.595,162.500 249.196,162.500 246.656 C 162.500 244.553,163.646 243.750,166.647 243.750 C 169.805 243.750,174.556 240.028,186.569 228.145 C 195.245 219.562,202.695 212.580,203.125 212.630 C 203.555 212.680,209.151 214.967,215.560 217.712 M358.870 225.183 C 374.019 235.218,378.812 237.666,381.827 236.910 C 385.501 235.988,385.609 236.192,384.846 242.586 C 382.970 258.293,374.975 281.877,372.748 278.273 C 372.057 277.156,363.481 276.563,348.008 276.563 L 324.326 276.563 316.851 269.199 C 308.007 260.488,308.099 261.728,314.617 239.225 L 319.775 221.419 328.247 217.033 C 339.306 211.308,336.996 210.694,358.870 225.183 M206.572 269.333 C 235.354 276.715,259.292 290.488,285.054 314.489 C 301.913 330.196,302.108 328.959,280.228 345.205 C 212.814 395.259,124.837 396.443,57.171 348.206 C 30.081 328.895,30.368 330.437,50.511 312.439 C 98.056 269.956,151.474 255.201,206.572 269.333 M303.363 277.579 L 310.740 284.845 305.308 295.632 L 299.875 306.420 296.236 303.601 C 294.235 302.050,288.111 296.963,282.627 292.296 C 277.143 287.630,268.262 281.047,262.891 277.669 C 250.411 269.819,249.627 270.313,274.556 270.313 L 295.986 270.313 303.363 277.579 M101.042 304.167 C 100.469 304.740,100.000 307.552,100.000 310.417 C 100.000 315.134,99.568 315.625,95.424 315.625 C 83.663 315.625,82.344 328.826,93.921 330.677 C 99.226 331.526,100.000 332.181,100.000 335.825 C 100.000 340.843,102.579 343.750,107.031 343.750 C 111.535 343.750,114.063 340.830,114.063 335.625 C 114.063 331.563,114.509 331.250,120.313 331.250 C 126.116 331.250,126.563 331.563,126.563 335.625 C 126.563 340.830,129.090 343.750,133.594 343.750 C 138.098 343.750,140.625 340.830,140.625 335.625 C 140.625 331.563,141.071 331.250,146.875 331.250 C 152.679 331.250,153.125 331.563,153.125 335.625 C 153.125 340.830,155.652 343.750,160.156 343.750 C 164.660 343.750,167.188 340.830,167.188 335.625 C 167.188 331.563,167.634 331.250,173.438 331.250 C 179.241 331.250,179.688 331.563,179.688 335.625 C 179.688 340.830,182.215 343.750,186.719 343.750 C 191.223 343.750,193.750 340.830,193.750 335.625 C 193.750 331.563,194.196 331.250,200.000 331.250 C 205.804 331.250,206.250 331.563,206.250 335.625 C 206.250 340.830,208.777 343.750,213.281 343.750 C 217.785 343.750,220.313 340.830,220.313 335.625 C 220.313 332.114,221.015 331.250,223.871 331.250 C 228.697 331.250,234.375 327.039,234.375 323.461 C 234.375 319.155,230.102 315.625,224.888 315.625 C 220.918 315.625,220.313 315.046,220.313 311.250 C 220.313 306.045,217.785 303.125,213.281 303.125 C 208.777 303.125,206.250 306.045,206.250 311.250 C 206.250 315.313,205.804 315.625,200.000 315.625 C 194.196 315.625,193.750 315.313,193.750 311.250 C 193.750 306.045,191.223 303.125,186.719 303.125 C 182.215 303.125,179.688 306.045,179.688 311.250 C 179.688 315.313,179.241 315.625,173.438 315.625 C 167.634 315.625,167.188 315.313,167.188 311.250 C 167.188 306.045,164.660 303.125,160.156 303.125 C 155.652 303.125,153.125 306.045,153.125 311.250 C 153.125 315.313,152.679 315.625,146.875 315.625 C 141.031 315.625,140.625 315.333,140.625 311.129 C 140.625 300.963,127.693 299.683,126.859 309.766 C 126.197 317.758,114.063 319.165,114.063 311.250 C 114.063 304.585,105.358 299.850,101.042 304.167 " stroke="none" fill="#000000" fill-rule="evenodd"></path></g></svg>