<svg height="512" viewBox="0 0 128 128" width="512" xmlns="http://www.w3.org/2000/svg"><g id="manicure"><path d="m34.35 80.22v12.78a7.8 7.8 0 0 1 -7.79 7.8h-9.73a7.81 7.81 0 0 1 -7.83-7.8v-12.78a12.2 12.2 0 0 0 -2.89 7.9l.05 29a4 4 0 0 0 4 4h23.1a4 4 0 0 0 2.86-1.12 3.91 3.91 0 0 0 1.17-2.83v-29a12.2 12.2 0 0 0 -2.94-7.95z"/><path d="m58.22 18.56 2.63.9a3.15 3.15 0 0 1 2 2l.9 2.63a.29.29 0 0 0 .56 0l.9-2.63a3.15 3.15 0 0 1 2-2l2.63-.9a.3.3 0 0 0 0-.57l-2.63-.9a3.15 3.15 0 0 1 -2-2l-.9-2.63a.29.29 0 0 0 -.56 0l-.9 2.63a3.15 3.15 0 0 1 -2 2l-2.63.9a.3.3 0 0 0 0 .57z"/><path d="m76.66 76.11a7.8 7.8 0 0 1 -7.79 7.8h-9.74a7.8 7.8 0 0 1 -7.79-7.8v-12.76a12.2 12.2 0 0 0 -2.89 7.9v45.9a4 4 0 0 0 4 4h23.1a4 4 0 0 0 4-4v-45.9a12.12 12.12 0 0 0 -2.89-7.91z"/><path d="m21.89 41.46 2.63.9a3.16 3.16 0 0 1 2 2l.86 2.64a.3.3 0 0 0 .62 0l.9-2.63a3.16 3.16 0 0 1 2-2l2.63-.9a.29.29 0 0 0 0-.56l-2.72-.91a3.17 3.17 0 0 1 -2-2l-.81-2.6a.3.3 0 0 0 -.57 0l-.95 2.6a3.14 3.14 0 0 1 -1.95 2l-2.64.9a.29.29 0 0 0 0 .56z"/><path d="m16.83 96.78h9.73a3.8 3.8 0 0 0 3.79-3.78v-18.9a8.66 8.66 0 0 0 -17.35 0v18.9a3.8 3.8 0 0 0 3.83 3.78z"/><path d="m55.34 57.24v18.87a3.8 3.8 0 0 0 3.79 3.8h9.74a3.8 3.8 0 0 0 3.79-3.8v-8.53c-1.06 1.48-1.28 2.16-2.91 2.43a2.65 2.65 0 0 1 -2.26-1 3.81 3.81 0 0 1 -.57-.9c-2.08-5.45-2-13.33.07-16.21a13.6 13.6 0 0 1 1.91-1.85 8.58 8.58 0 0 0 -4.9-1.48 8.67 8.67 0 0 0 -8.66 8.67z"/><path d="m118.85 80.23v12.77a7.81 7.81 0 0 1 -7.8 7.8h-9.73a7.81 7.81 0 0 1 -7.8-7.8v-12.78a12.29 12.29 0 0 0 -2.89 7.9l.05 29a4 4 0 0 0 4 4h23.11a4 4 0 0 0 4-4l-.06-29a12.14 12.14 0 0 0 -2.88-7.89z"/><path d="m76.46 56.32a3.07 3.07 0 0 0 -1.23-3 3.43 3.43 0 0 0 -1.92-.6 5.67 5.67 0 0 0 -.76.1 3.53 3.53 0 0 0 -2.34 1.51 6.26 6.26 0 0 0 -.81 3.78c0 1.15.17 4.7.35 5.34a.5.5 0 0 0 .88.21c.07-.09 1.59-1.82 1.7-2 1.24-1.58 3.96-3.01 4.13-5.34z"/><path d="m101.32 96.78h9.73a3.8 3.8 0 0 0 3.8-3.8v-18.88a8.67 8.67 0 0 0 -17.33 0v18.9a3.8 3.8 0 0 0 3.8 3.78z"/><path d="m122.65 18.59-18.43 18.41a6 6 0 0 1 -2.94 1.6 5 5 0 0 1 -2.33.06 6.05 6.05 0 0 1 -2.16-.83l-9.09 9.1a5.24 5.24 0 0 1 -2 1.22 4.84 4.84 0 0 1 -3.2-.15l-3.45 3.46-1.4 1.4a2 2 0 0 1 -2.83-2.83l1-.94 3.91-3.91a4.81 4.81 0 0 1 -.33-1.74 4.92 4.92 0 0 1 .89-2.8c.42-.61 9.55-9.67 9.55-9.67a6.9 6.9 0 0 1 -.94-1.67 6.76 6.76 0 0 1 -.36-2.17 6.45 6.45 0 0 1 .85-2.93 10.53 10.53 0 0 1 .86-1.2l18.42-18.38a6 6 0 0 1 8.49 0l5.49 5.49a6 6 0 0 1 0 8.48z"/></g></svg>