<svg enable-background="new 0 0 64 64" height="512" viewBox="0 0 64 64" width="512" xmlns="http://www.w3.org/2000/svg"><g id="Icon_Expand"><g><path d="m63 36.9c0 5.5-4.6 10.1-10.1 10.1-5.6 0-10.1-4.6-10.1-10.1 0-5.6 4.6-10.1 10.1-10.1 5.5-.1 10.1 4.5 10.1 10.1zm-27.7 18.7c-20.3 3.4-25.9 1.7-29.9-8.8-.8-2.2-3.8-14-1.2-17.2.3-.4.9-.9 2.3-.7 1.8.3 3.5.8 5.3 1.3 3.6 1 7.6 2.2 13.8 2.2 12.3 0 18.9-9.5 20.8-17.7l3.1-12.4 4.5 1.2-5.4 22c-4.6 1.7-7.9 6.2-7.9 11.4 0 3.1 1.2 6 3.2 8.1l-.8 3.3c-.1.2-1.6 6.1-7.8 7.3zm19.1.6v5.8h-3.1v-5.7c0-4.8-3-7.7-4.6-8.9 1.8 1.1 3.9 1.7 6.2 1.7 2.2 0 4.3-.6 6.2-1.7-1.7 1.1-4.7 4.1-4.7 8.8z"/><g fill="rgb(0,0,0)"><path d="m34.9 36.3c.4-.4.4-1 0-1.4s-1-.4-1.4 0c0 0-3.2 2.8-12.9 1h-.3c-4-.8-6.9-1.3-8.7.1-1.1.8-1.6 2.2-1.8 4.2-.4 5.5 4.5 12.4 4.7 12.7s.5.4.8.4c.2 0 .4-.1.6-.2.5-.3.6-.9.2-1.4 0-.1-4.7-6.6-4.3-11.4.1-1.4.4-2.3 1-2.8 1.1-.9 3.8-.4 7.1.2h.3c11 2.2 14.6-1.2 14.7-1.4z"/><path d="m36.6 49.6-13.9 1.7c-.5.1-.9.6-.9 1.1.1.5.5.9 1 .9h.1l13.9-1.7c.5-.1.9-.6.9-1.1 0-.6-.5-1-1.1-.9z"/><path d="m36.6 45.3-13.8 1.7c-.5.1-.9.6-.9 1.1.1.5.5.9 1 .9h.1l13.9-1.7c.5-.1.9-.6.9-1.1-.1-.5-.6-.9-1.2-.9z"/></g></g></g></svg>