<svg height="512" viewBox="0 0 58 54" width="512" xmlns="http://www.w3.org/2000/svg"><g id="Page-1" fill="none" fill-rule="evenodd"><g id="018---Frisbee" fill="rgb(0,0,0)" fill-rule="nonzero"><path id="Shape" d="m39.454 25.933c4.6165596-4.4500008 8.4400791-9.6550061 11.306-15.391 2.068-4.5 2.359-7.979.8-9.54-1.79-1.791-6.066-1.1-11.306 1.689.2259728.12186732.4331197.27579596.615.457 3.481 3.481-4.348 12.883-7.832 16.367-3.468 3.468-12.894 11.305-16.367 7.832-.1812181-.1822414-.3351428-.3897198-.457-.616-2.787 5.242-3.48 9.516-1.69 11.306 3.096 3.093 13.853-1.028 24.931-12.104zm-8.01 1.808c1.8024454-1.4592135 3.5255721-3.0137662 5.162-4.657 8.235-8.234 11.655-15.719 11.945-18.741.0249509-.36297978.2450795-.68376618.5747862-.83761785.3297068-.15385166.7169593-.1164886 1.0111701.09756013s.4489493.57100322.4040437.93205772c-.38 3.965-4.46 11.9-12.52 19.964-1.6874461 1.6933792-3.4636129 3.2959683-5.321 4.801-.2781313.2243628-.6548313.2833013-.9882008.154614-.3333695-.1286874-.5727617-.4254499-.628-.7785-.0552382-.3530502.0820695-.7087512.3602008-.933114zm-13.625 7.331c1.8259458-.2970021 3.5858263-.9112681 5.2-1.815.4937426-.2485281 1.0954718-.0497425 1.344.444.2485281.4937426.0497425 1.0954719-.444 1.344-1.8368391 1.0007688-3.830101 1.682772-5.895 2.017-.034 0-.067.005-.1.005-.5328742.0000667-.9721942-.4177315-.9988712-.9499375-.026677-.5322061.3686613-.9918418.8988712-1.0450625z"/><path id="Shape" d="m22.767 24.935c3.2660928-1.8389964 6.2487024-4.141214 8.855-6.835 2.6938141-2.606399 4.9957317-5.5893932 6.834-8.856.954-1.82 2.2-4.935.131-4.935-3.6 0-9.854 5.267-12.671 8.084-2.6938141 2.606399-4.9957317 5.5893932-6.834 8.856-1.35 2.575-1.474 4.207-1 4.683s2.109.351 4.685-.997zm3.159-9.683 2.847-2.852c.3923789-.3789722 1.0160848-.3735524 1.4018186.0121814s.3911536 1.0094397.0121814 1.4018186l-2.847 2.853c-.3907415.3904653-1.0240347.3902414-1.4145-.0005-.3904653-.3907415-.3902414-1.0240347.0005-1.4145z"/><path id="Shape" d="m56.853 5.237-2.353-1.883c.0221735 2.79046372-.6361606 5.54427712-1.918 8.023-2.9654299 5.9510684-6.9253462 11.3520302-11.709 15.97-8.524 8.524-17.64 13.64-23.434 13.64-.2 0-.386-.029-.581-.042l1.9 2.386c.7411223.9370224 1.9656106 1.3480614 3.122 1.048 6.544-1.74 14.711-7.039 21.847-14.174s12.433-15.305 14.173-21.847c.3017445-1.15594179-.1091886-2.38089131-1.047-3.121z"/><path id="Shape" d="m6.7 36.9c-.4043959-.0000863-.76893405-.2437275-.92367798-.6173454-.15474393-.373618-.06922994-.8036603.21667798-1.0896546l.712-.712c.39237889-.3789722 1.01608478-.3735524 1.40181858.0121814.38573379.3857338.39115363 1.0094397.01218142 1.4018186l-.719.705c-.18463046.1884143-.43623073.296243-.7.3z"/><path id="Shape" d="m2.424 41.168c-.4043959-.0000863-.76893405-.2437275-.92367798-.6173454-.15474393-.373618-.06922994-.8036603.21667798-1.0896546l1.424-1.424c.39237889-.3789722 1.01608478-.3735524 1.40181858.0121814.38573379.3857338.39115363 1.0094397.01218142 1.4018186l-1.424 1.424c-.18749273.1875494-.44180519.2929434-.707.293z"/><path id="Shape" d="m16.664 49.712c-.4043959-.0000863-.7689341-.2437275-.923678-.6173454-.1547439-.373618-.0692299-.8036603.216678-1.0896546l.713-.712c.2527654-.2525868.6210837-.3511379.966213-.25853s.6146362.3623053.707.7075c.0923639.3451947-.0064476.7134432-.259213.96603l-.713.712c-.1876563.1871827-.4419486.2922087-.707.292z"/><path id="Shape" d="m12.393 53.984c-.4043959-.0000863-.7689341-.2437275-.923678-.6173454-.1547439-.373618-.0692299-.8036603.216678-1.0896546l1.423-1.423c.3923789-.3789722 1.0160848-.3735524 1.4018186.0121814s.3911536 1.0094397.0121814 1.4018186l-1.423 1.423c-.1874927.1875494-.4418052.2929434-.707.293z"/><path id="Shape" d="m5.272 45.44c-.4043959-.0000863-.76893405-.2437275-.92367798-.6173454-.15474393-.373618-.06922994-.8036603.21667798-1.0896546l4.272-4.272c.25107447-.2599566.62287789-.3642126.97250732-.2726972.34962948.0915155.62267438.3645604.71418988.7141899.0915154.3496294-.0127406.7214328-.2726972.9725073l-4.272 4.272c-.18705309.1882061-.44165142.2937185-.707.293z"/><path id="Shape" d="m1 49.712c-.4043959-.0000863-.76893405-.2437275-.92367798-.6173454-.15474393-.373618-.06922994-.8036603.21667798-1.0896546l1.424-1.424c.25347994-.2525868.62245849-.3507566.96794502-.25753.34548653.0932267.61499341.3636866.707.7095.0920066.3458135-.00746508.7144432-.26094502.96703l-1.424 1.419c-.18705309.1882061-.44165142.2937185-.707.293z"/><path id="Shape" d="m9.544 49.712c-.4043959-.0000863-.76893405-.2437275-.92367798-.6173454-.15474393-.373618-.06922994-.8036603.21667798-1.0896546l3.56-3.56c.3904653-.3907414 1.0237585-.3909653 1.4145-.0005.3907414.3904653.3909653 1.0237585.0005 1.4145l-3.561 3.56c-.1870531.1882061-.44165142.2937185-.707.293z"/><path id="Shape" d="m5.272 53.984c-.4043959-.0000863-.76893405-.2437275-.92367798-.6173454-.15474393-.373618-.06922994-.8036603.21667798-1.0896546l1.424-1.423c.39547275-.3575753 1.00192995-.3420027 1.37852992.035398s.39088455.9838896.03247008 1.378602l-1.421 1.423c-.18705309.1882061-.44165142.2937185-.707.293z"/></g></g></svg>