<svg id="Layer_1" height="512" viewBox="0 0 512 512" width="512" xmlns="http://www.w3.org/2000/svg" data-name="Layer 1"><path d="m406.319 0h-300.638a59.994 59.994 0 0 0 -59.932 59.93v392.14a59.991 59.991 0 0 0 59.93 59.93h300.64a59.992 59.992 0 0 0 59.931-59.93v-392.14a59.994 59.994 0 0 0 -59.931-59.93zm-247.508 152.44a11.992 11.992 0 0 1 -11.781 12.21c-.07 0-.151.01-.221.01a12 12 0 0 1 -11.99-11.79c-.538-30.031 7.98-57.77 25.37-82.77h-40.9a12 12 0 0 1 0-24h66.222a12 12 0 0 1 8.689 20.28c-24.389 25.59-35.97 53.74-35.389 86.06zm173.74 89.6a60.3 60.3 0 0 1 42.848 57.7c0 33.38-32.968 60.259-60.26 60.26h-.779l12.379 46.63a12 12 0 0 1 -11.6 15.07h-87.23a12 12 0 0 1 -11.6-15.07l12.378-46.64c-.259.01-.518.009-.78.01-27.29 0-60.249-26.88-60.25-60.26a60.411 60.411 0 0 1 45.291-58.36 60.254 60.254 0 1 1 120.09-7.09 60.881 60.881 0 0 1 -.487 7.75z" fill-rule="evenodd"/></svg>