<svg height="511pt" viewBox="-85 0 511 511.99975" width="511pt" xmlns="http://www.w3.org/2000/svg"><path d="m337.613281 280.460938-50.996093-69.535157c-1.667969-2.277343-3.796876-4.175781-6.246094-5.574219l-60.800782-36.003906-15.539062-65.699218 39.347656-74.109376c5.210938-9.804687 1.480469-21.980468-8.328125-27.1875-9.808593-5.207031-21.980469-1.476562-27.1875 8.328126l-42.902343 80.796874c-2.289063 4.3125-2.933594 9.308594-1.808594 14.058594l18.777344 79.371094-73.921876 129.511719-103.640624 160.351562c-7.234376 11.191407-4.023438 26.128907 7.167968 33.363281 11.214844 7.246094 26.140625 4 33.359375-7.167968l106.226563-164.355469 31.246094 14.597656 68.304687 58.640625-.195313 77.957032c-.03125 13.328124 10.746094 24.15625 24.070313 24.191406h.0625c13.296875-.003906 24.09375-10.765625 24.125-24.070313l.222656-89.082031c.019531-7.054688-3.054687-13.769531-8.410156-18.367188l-46.039063-39.523437 83.613282-29.652344c12.683594-4.496093 17.457031-19.980469 9.492187-30.839843zm-97.8125 19.496093 26.894531-48.195312 22.5 30.675781zm0 0"/><path d="m291.460938 100.421875c-19.988282-11.410156-45.441407-4.453125-56.847657 15.535156-11.410156 19.988281-4.453125 45.441407 15.535157 56.847657 19.988281 11.410156 45.4375 4.453124 56.847656-15.535157s4.453125-45.441406-15.535156-56.847656zm0 0"/></svg>