<svg id="Capa_1" enable-background="new 0 0 609.668 609.668" height="512" viewBox="0 0 609.668 609.668" width="512" xmlns="http://www.w3.org/2000/svg"><g><g id="Page-1_18_"><g id="_x30_19---House-Maintanence" transform="translate(-1)"><g clip-rule="evenodd" fill-rule="evenodd"><path id="Path_132_" d="m20.131 227.486c.443.621 1.135 1.018 1.894 1.089.7.014 1.38-.234 1.905-.697l12.933-11.757h.065l179.958-163.465c4.152-3.772 10.49-3.772 14.642 0l174.177 158.272c9.717-7.431 20.354-13.574 31.646-18.278l-211.321-191.92c-1.008-.973-2.606-.973-3.614 0l-220.29 199.977c-1.376 1.428-1.492 3.651-.272 5.214z"/><path id="Path_131_" d="m389.43 225.549-165.229-150.13-168.733 153.21v190.125c.012 9.194 7.462 16.644 16.656 16.656h81.319v-119.747c0-18.037 14.622-32.658 32.658-32.658h76.202c18.037 0 32.658 14.622 32.658 32.658v119.747h18.408l48.476-56.041c-21.799-49.795-12.99-107.689 22.632-148.747 1.556-1.797 3.309-3.364 4.953-5.073z"/><path id="Path_130_" d="m341.335 43.512c-1.546.04-2.79 1.284-2.83 2.83v27.118l54.43 49.423v-76.54c-.04-1.546-1.284-2.79-2.83-2.83h-48.77z"/></g><path id="Shape_28_" d="m252.505 600.715c16.409 13.571 40.668 11.483 54.517-4.692l135.216-156.443c2.865-3.344 7.462-4.633 11.648-3.266 36.448 12.038 76.462 5.809 107.528-16.737 31.065-22.547 49.39-58.659 49.242-97.044-.059-4.547-2.938-8.579-7.22-10.11s-9.065-.239-11.993 3.241l-46.473 53.744c-2.116 2.449-5.212 3.829-8.448 3.767l-78.271-1.426c-5.258-.094-9.697-3.933-10.549-9.122l-12.671-77.227c-.529-3.205.402-6.478 2.536-8.927l46.462-53.723c10.146-11.724 5.791-20.183-9.547-17.984-37.948 5.374-71.007 28.646-88.867 62.557s-18.348 74.337-1.313 108.67c2.069 3.985 1.532 8.824-1.361 12.258l-135.313 156.455c-6.933 8.005-10.331 18.475-9.421 29.026s6.052 20.284 14.254 26.983zm20.89-41.759 19.976-23.307c3.952-4.385 10.679-4.821 15.164-.982s5.093 10.552 1.371 15.134l-19.976 23.307c-3.952 4.385-10.679 4.821-15.164.982-4.484-3.839-5.093-10.552-1.371-15.134z"/><path id="Path_129_" clip-rule="evenodd" d="m273.189 315.663c0-6.012-4.874-10.886-10.886-10.886h-76.203c-6.012 0-10.886 4.874-10.886 10.886v119.747h97.974v-119.747z" fill-rule="evenodd"/></g></g></g></svg>