<?xml version="1.0" encoding="UTF-8"?>
<!-- Generator: Adobe Illustrator 26.0.1, SVG Export Plug-In . SVG Version: 6.00 Build 0)  -->
<svg xmlns="http://www.w3.org/2000/svg" xmlns:xlink="http://www.w3.org/1999/xlink" version="1.1" id="Capa_1" x="0px" y="0px" viewBox="0 0 512 512" style="enable-background:new 0 0 512 512;" xml:space="preserve" width="512" height="512">
<g>
	<g>
		<circle cx="61.961" cy="35.31" r="35.31"/>
		<rect x="0.168" y="158.897" width="123.586" height="17.655"/>
		<path d="M80.615,84.875c-5.806,2.191-12.09,3.401-18.654,3.401s-12.847-1.209-18.654-3.401    c-3.011,21.329-12.748,41.003-27.923,56.366h93.152C93.363,125.878,83.626,106.204,80.615,84.875z"/>
		<polygon points="436.092,388.414 423.892,364.014 411.693,388.414   "/>
		<polygon points="469.191,353.103 438.175,353.103 451.468,379.688   "/>
		<polygon points="396.317,379.688 409.609,353.103 378.594,353.103   "/>
		<path d="M422.707,511.905c0.391,0.057,0.786,0.095,1.185,0.095c0.399,0,0.794-0.038,1.185-0.095l15.119-105.836h-32.609    L422.707,511.905z"/>
		<polygon points="446.579,486.237 503.842,406.069 458.031,406.069   "/>
		<polygon points="343.943,406.069 401.206,486.237 389.754,406.069   "/>
		<polygon points="466.87,388.414 504.502,388.414 485.686,360.19   "/>
		<polygon points="362.099,360.19 343.283,388.414 380.915,388.414   "/>
		<path d="M95.775,319.954l-50.302-50.302c-15.43,17.984-25.401,40.779-27.314,65.796h71.172    C90.479,329.822,92.705,324.585,95.775,319.954z"/>
		<path d="M89.332,353.103H18.16c1.912,25.017,11.884,47.812,27.314,65.796l50.302-50.302    C92.705,363.967,90.479,358.73,89.332,353.103z"/>
		<path d="M472.034,98.271c-17.984-15.43-40.779-25.401-65.796-27.314v71.172c5.626,1.146,10.863,3.372,15.495,6.443L472.034,98.271    z"/>
		<path d="M57.958,431.384c17.984,15.43,40.78,25.401,65.796,27.314v-71.172c-5.626-1.146-10.863-3.372-15.495-6.443L57.958,431.384    z"/>
		<rect x="317.961" y="70.621" width="70.621" height="70.621"/>
		<path d="M440.659,176.552h71.172c-1.912-25.017-11.884-47.812-27.314-65.796l-50.302,50.302    C437.287,165.688,439.513,170.925,440.659,176.552z"/>
		<path d="M434.216,209.702l50.302,50.302c15.428-17.984,25.401-40.78,27.314-65.796h-71.172    C439.513,199.833,437.287,205.07,434.216,209.702z"/>
		<path d="M421.732,222.186c-4.631,3.071-9.868,5.297-15.495,6.443v71.172c25.017-1.912,47.812-11.885,65.796-27.314    L421.732,222.186z"/>
		<path d="M423.892,185.379c0-14.602-11.881-26.483-26.483-26.483h-79.448v52.966h79.448    C412.012,211.862,423.892,199.981,423.892,185.379z"/>
		<rect x="229.686" y="282.483" width="70.621" height="17.655"/>
		<rect x="229.686" y="247.172" width="70.621" height="17.655"/>
		<rect x="229.686" y="141.241" width="70.621" height="17.655"/>
		<rect x="229.686" y="211.862" width="70.621" height="17.655"/>
		<rect x="229.686" y="176.552" width="70.621" height="17.655"/>
		<rect x="229.686" y="105.931" width="70.621" height="17.655"/>
		<path d="M108.26,307.469c4.631-3.071,9.868-5.297,15.495-6.443v-71.172c-25.017,1.912-47.812,11.885-65.796,27.314L108.26,307.469    z"/>
		<rect x="229.686" y="70.621" width="70.621" height="17.655"/>
		<rect x="141.41" y="229.517" width="70.621" height="70.621"/>
		<rect x="141.41" y="388.414" width="70.621" height="70.621"/>
		<rect x="167.892" y="70.621" width="44.138" height="70.621"/>
		<rect x="317.961" y="229.517" width="70.621" height="70.621"/>
		<rect x="229.686" y="388.414" width="61.793" height="70.621"/>
	</g>
</g>















</svg>
