<svg height="511pt" viewBox="0 0 511 511.94776" width="511pt" xmlns="http://www.w3.org/2000/svg"><path d="m312.941406 341.789062c-33.746094-21.375-63.765625-48.128906-88.871094-79.195312l-140.800781 140.605469c42.21875 50.058593 76.757813 71.957031 89.539063 79.015625l136.046875-136.050782c1.460937-1.472656 2.707031-2.914062 4.085937-4.375zm0 0"/><path d="m166.253906 203.574219-152.078125 152.070312c-15.5 15.34375-18.160156 39.429688-6.386719 57.785157 12.285157 17.792968 26.289063 34.335937 41.8125 49.382812 15.050782 15.527344 31.589844 29.53125 49.382813 41.816406 18.351563 11.78125 42.445313 9.117188 57.78125-6.382812l2.609375-2.609375c-34.28125-21.703125-64.726562-48.9375-90.097656-80.597657-6.078125-7.292968-5.628906-18.003906 1.042968-24.757812l140.730469-140.714844c3.550781-3.667968 8.523438-5.605468 13.621094-5.3125 5.152344.210938 9.984375 2.570313 13.320313 6.5 24.429687 30.4375 53.890624 56.464844 87.113281 76.945313 28.707031-37.171875 28.542969-68.070313 27.324219-78.902344-18.640626-10.171875-35.539063-23.253906-50.0625-38.75-15.496094-14.519531-28.578126-31.417969-38.746094-50.0625-12.589844-1.414063-52.269532-1.484375-97.367188 43.589844zm-103.6875 155.519531-25.917968 25.925781c-3.585938 3.480469-9.300782 3.4375-12.832032-.097656-3.53125-3.53125-3.574218-9.242187-.097656-12.828125l25.917969-25.929688c3.585937-3.492187 9.3125-3.457031 12.847656.082032 3.539063 3.539062 3.578125 9.265625.082031 12.847656zm142.566406-142.5625-116.644531 116.640625c-3.585937 3.480469-9.300781 3.433594-12.832031-.097656s-3.574219-9.246094-.097656-12.828125l116.640625-116.640625c3.585937-3.476563 9.300781-3.433594 12.832031.097656 3.53125 3.535156 3.574219 9.246094.097656 12.832031zm0 0"/><path d="m431.96875 41.566406-8.828125-8.839844c-23.402344 11.359376-45.050781 26.011719-64.289063 43.519532 9.289063 15.929687 20.804688 30.449218 34.207032 43.113281 12.667968 13.390625 27.179687 24.910156 43.097656 34.203125 17.5-19.242188 32.15625-40.890625 43.527344-64.285156l-15.3125-15.3125c-2.367188-2.296875-3.316406-5.691406-2.476563-8.882813.835938-3.191406 3.328125-5.683593 6.519531-6.519531 3.191407-.839844 6.585938.109375 8.886719 2.476562l12.980469 12.972657 19.457031-19.457031c3.574219-3.59375 3.570313-9.398438-.007812-12.988282l-38.875-38.886718c-3.59375-3.578126-9.402344-3.574219-12.992188.011718l-19.453125 19.449219 6.488282 6.496094c2.3125 2.308593 3.210937 5.675781 2.367187 8.832031-.847656 3.15625-3.3125 5.621094-6.464844 6.464844-3.15625.84375-6.523437-.058594-8.832031-2.367188zm0 0"/><path d="m380.128906 132.292969c-13.570312-13.042969-25.4375-27.742188-35.328125-43.75-22.464843 20.480469-43.847656 42.121093-64.050781 64.839843 9.3125 16.195313 20.953125 30.929688 34.554688 43.738282 12.796874 13.585937 27.523437 25.21875 43.703124 34.519531 22.722657-20.199219 44.382813-41.566406 64.886719-64.015625-16.019531-9.890625-30.722656-21.761719-43.765625-35.332031zm0 0"/></svg>