<svg height="511pt" viewBox="-52 0 511 511.98767" width="511pt" xmlns="http://www.w3.org/2000/svg"><path d="m301.527344 352.582031c-5.578125 2.511719-11.1875 4.9375-16.828125 7.296875l-20.996094 49.027344c-9.777344 22.84375-36.210937 33.371094-58.988281 23.617188-3.308594-1.417969-6.347656-3.191407-9.113282-5.246094l-2.265624 7.050781c-7.59375 23.667969-32.921876 36.621094-56.511719 29.054687-23.625-7.585937-36.632813-32.886718-29.050781-56.511718l.0625-.195313c-20.683594 2.523438-37.246094 3.480469-38.671876 3.59375-31.5625 2.144531-53.519531 32.292969-45.871093 62.988281l.042969.171876c7.625 30.605468 41 46.945312 69.847656 34.199218 6.480468-2.242187 96.675781-48.152344 227.058594-57.605468l5.84375-.425782c31.457031-2.28125 53.261718-32.367187 45.636718-62.972656-7.664062-30.75-41.300781-47.066406-70.195312-34.042969zm0 0"/><path d="m388.972656 148.367188-72.496094-6.882813-54.109374-29.488281c-3.828126-10.78125-12.019532-19.96875-23.410157-24.722656-31.015625-12.699219-32.96875-14.351563-39.789062-15.785157-2.652344-.953125-5.539063-1.394531-8.535157-1.183593-15.609374 1.082031-65.25 4.527343-83.199218 5.773437l-77.179688-35.515625c-10.523437-4.84375-22.988281-.238281-27.835937 10.289062-4.839844 10.527344-.234375 22.988282 10.292969 27.832032l82.050781 37.757812c3.234375 1.488282 6.761719 2.113282 10.226562 1.871094l57.539063-3.992188-19.867188 7.035157s-39.65625 109.351562-43.140625 120.980469c-2.449219 8.421874-.703125 17.875 5.488281 24.976562l48.785157 55.976562-28.613281 89.164063c-4.5 14.015625 3.214843 29.027344 17.234374 33.523437 13.984376 4.492188 29.015626-3.191406 33.519532-17.234374l33.210937-103.484376c2.851563-8.886718.847657-18.617187-5.285156-25.65625l-17.117187-19.636718s33.703124 14.230468 45.832031 19.792968c-4.148438 9.6875-29.445313 68.753907-34.671875 80.96875-5.835938 13.625.585937 29.246094 14.007812 34.992188 13.5 5.785156 29.1875-.449219 34.992188-14.007812l44.898437-104.847657c5.691407-13.289062-.246093-28.6875-13.382812-34.71875l-58.574219-26.878906c6.316406-14.097656 26.050781-58.125 35.53125-79.285156l44.796875 24.410156c2.488281 1.355469 5.230469 2.195313 8.054687 2.464844 81.09375 7.664062 76.890626 7.382812 78.785157 7.382812 10.695312 0 19.832031-8.136719 20.863281-19 1.097656-11.535156-7.367188-21.773437-18.902344-22.871093zm0 0"/><path d="m299.554688 2.089844c-24.425782-7.59375-50.378907 6.046875-57.972657 30.472656-7.597656 24.425781 6.046875 50.378906 30.472657 57.972656 24.425781 7.597656 50.378906-6.046875 57.972656-30.472656 7.597656-24.425781-6.046875-50.378906-30.472656-57.972656zm0 0"/></svg>