<svg height="511pt" viewBox="-106 1 511 511.999" width="511pt" xmlns="http://www.w3.org/2000/svg"><path d="m150.324219 0c-82.613281 0-149.824219 67.210938-149.824219 149.824219v1.867187c0 26.195313 21.3125 47.503906 47.503906 47.503906 7.296875 0 14.308594-1.617187 20.839844-4.808593 16.449219-8.039063 26.667969-24.398438 26.667969-42.695313v-1.867187c0-30.222657 24.589843-54.8125 54.8125-54.8125 30.226562 0 54.816406 24.589843 54.816406 54.8125 0 30.226562-24.589844 54.816406-54.816406 54.816406h-7.222657c-26.195312 0-47.503906 21.308594-47.503906 47.503906v78.492188c0 26.195312 21.308594 47.507812 47.503906 47.507812 26.195313 0 47.503907-21.3125 47.503907-47.507812v-36.480469c64.171875-17.871094 109.542969-76.691406 109.542969-144.332031.003906-82.613281-67.207032-149.824219-149.824219-149.824219zm0 0"/><path d="m142.324219 396.175781c-31.933594 0-57.910157 25.980469-57.910157 57.914063 0 31.929687 25.980469 57.910156 57.910157 57.910156 31.933593 0 57.910156-25.980469 57.910156-57.910156 0-31.933594-25.976563-57.914063-57.910156-57.914063zm0 0"/></svg>