<svg id="Line" enable-background="new 0 0 128 128" height="512" viewBox="0 0 128 128" width="512" xmlns="http://www.w3.org/2000/svg"><g><path d="m108.994 93.002c-8.837 0-16.001 7.164-16.001 16.001s7.164 16.001 16.001 16.001 16.001-7.164 16.001-16.001-7.164-16.001-16.001-16.001zm-8.001 21.998c-1.104 0-2-.895-2-2s.896-2 2-2c1.105 0 2 .895 2 2s-.895 2-2 2zm0-9c-1.104 0-2-.895-2-2s.896-2 2-2c1.105 0 2 .895 2 2s-.895 2-2 2zm8 15c-1.104 0-2-.895-2-2s.896-2 2-2c1.105 0 2 .895 2 2s-.895 2-2 2zm0-10c-1.104 0-2-.895-2-2s.896-2 2-2c1.105 0 2 .895 2 2s-.895 2-2 2zm0-10c-1.104 0-2-.895-2-2s.896-2 2-2c1.105 0 2 .895 2 2s-.895 2-2 2zm8 14c-1.104 0-2-.895-2-2s.896-2 2-2c1.105 0 2 .895 2 2s-.895 2-2 2zm0-9c-1.104 0-2-.895-2-2s.896-2 2-2c1.105 0 2 .895 2 2s-.895 2-2 2z"/><path d="m35.235 92.647-4.26-4.26-25.537 24.626 9.561 9.561 24.631-25.527-4.344-4.344c-.017-.018-.035-.037-.051-.056z"/><path d="m2.993 116.97c-.005 1.056.575 2.174 1.725 3.323l3 3c1.511 1.511 3.264 2.586 5.818.646l-9.487-9.487c-.69.857-1.052 1.702-1.056 2.518z"/><path d="m116.293 39.714c-.005-.005-.01-.01-.014-.014l-16.656-17.002c-.011-.012-.022-.023-.033-.036l-11.293-10.944c-3.037-3.093-6.594-4.718-10.304-4.718-3.7.011-7.353 1.679-10.282 4.696l-29.011 29.011c-6.743 6.379-5.473 17.511-.863 24.756 1.999 3.144 4.39 9.654-1.545 18.422l7.803 7.803c3.558-2.513 7.042-3.688 10.898-3.688 3.111 0 6.372 1.896 8.32 3.03l.182.104c8.644 5.017 18.885 2.999 23.796-1.847l28.995-28.995c3.073-2.986 4.697-6.542 4.707-10.296.011-3.698-1.615-7.254-4.7-10.282z"/><path d="m124.997 50.082c.014-4.998-2.011-9.745-5.7-13.367-.003-.002-.005-.005-.007-.007l-14.002-14.003c-.018-.018-.035-.036-.051-.055l-13.952-13.952c-3.616-3.684-8.345-5.707-13.324-5.707-.018 0-.033 0-.051 0-4.959.014-9.647 2.037-13.2 5.696l-29.01 29.011c-6.011 5.8-8.418 18.825-1.85 29.778 2.744 4.576 2.052 9.662-2.059 15.116-.553.733-1.364 2.662-.173 3.618.028.023.056.048.081.073l5.002 5.002c.018.018.035.036.051.055l4.951 4.952c.007.007.013.015.02.022s0 .001.001.001c.018.019.035.037.052.058.955 1.191 2.885.38 3.618-.173 3.274-2.467 6.417-3.703 9.395-3.703 1.982 0 3.893.548 5.722 1.645 10.955 6.566 23.979 4.158 29.766-1.837l29.013-29.012c3.671-3.564 5.694-8.252 5.707-13.211zm-36.297 40.625c-3.749 3.701-8.929 5.293-14.071 5.293-4.373 0-8.72-1.151-12.138-3.135l-.183-.106c-1.774-1.032-4.743-2.759-7.315-2.759-2.299 0-5.879.394-10.398 3.799-.396.299-.957.262-1.309-.092l-9-9c-.347-.347-.391-.893-.105-1.29 5.568-7.756 4.144-13.46 1.969-16.88-5.039-7.921-6.346-20.168 1.156-27.264l28.98-28.98c3.298-3.397 7.458-5.281 11.704-5.293 4.262 0 8.312 1.832 11.717 5.3l11.329 10.979c.023.023.047.048.068.073l16.596 16.941c3.475 3.413 5.305 7.462 5.293 11.71-.011 4.242-1.895 8.402-5.303 11.714z"/></g></svg>