<svg id="Icons" height="512" viewBox="0 0 60 60" width="512" xmlns="http://www.w3.org/2000/svg"><path d="m9.272 39.534a1.142 1.142 0 0 0 -.972-.534h-2.253a48.923 48.923 0 0 0 -4.009 17.947 1.01 1.01 0 0 0 .284.745.994.994 0 0 0 .72.308h2.97c.129-8.566 1.868-14.17 3.341-17.392a1.105 1.105 0 0 0 -.081-1.074z"/><path d="m12.3 16.66a56.075 56.075 0 0 1 16.7-2.638v-4.991c-7.365.319-13.234 4.072-16.916 7.251a.2.2 0 0 0 -.047.279.191.191 0 0 0 .263.099z"/><path d="m33 56a2 2 0 0 0 4 0v-15h-4z"/><path d="m31 8h8.001v7h-8.001z"/><path d="m37 3a1 1 0 0 0 -1-1h-2a1 1 0 0 0 -1 1v3h4z"/><path d="m35.431 24a4.58 4.58 0 0 1 1.569-1.422v-5.578h-4v7z"/><path d="m28 33a1 1 0 0 0 1 1h15a1 1 0 0 0 1-1v-2h-17z"/><rect height="3" rx="1" width="6" x="16" y="35"/><path d="m57.916 16.282c-3.682-3.182-9.551-6.932-16.916-7.251v4.991a56.075 56.075 0 0 1 16.7 2.638.193.193 0 0 0 .259-.1.2.2 0 0 0 -.043-.278z"/><path d="m46 24h-6.764a2.6 2.6 0 0 0 -2.336 1.447 1 1 0 0 1 -.9.553h-19a1 1 0 0 1 -1-1 1 1 0 0 0 -1-1h-5.792a1.974 1.974 0 0 0 -1.565.751 7.942 7.942 0 0 0 -1.6 4.235.021.021 0 0 0 .012.014h39.945a1 1 0 0 0 1-1v-3a1 1 0 0 0 -1-1z"/><path d="m26 33v-2h-19.948a1.991 1.991 0 0 1 -1.994-2h-.623a1.01 1.01 0 0 0 -1 .862l-.429 3a1 1 0 0 0 .994 1.138h4a1 1 0 0 1 .833 1.554c-.013.019-.338.52-.823 1.446h1.29a3.149 3.149 0 0 1 2.66 1.453 3.114 3.114 0 0 1 .216 2.987c-1.395 3.043-3.038 8.36-3.164 16.56h1.024a1.011 1.011 0 0 0 1-.973c.326-9.8 3-14.352 3.11-14.542a1 1 0 0 1 .854-.485h10a2 2 0 0 0 2-2 1 1 0 0 1 1-1h15a1 1 0 0 0 1-1v-2h-14a3 3 0 0 1 -3-3zm-2 4a3 3 0 0 1 -3 3h-4a3 3 0 0 1 -3-3v-1a3 3 0 0 1 3-3h4a3 3 0 0 1 3 3z"/></svg>