<svg id="Layer_1" enable-background="new 0 0 512 512" height="512" viewBox="0 0 512 512" width="512" xmlns="http://www.w3.org/2000/svg"><g><path d="m349.435 397.959h29.336c-6.277-17.784-19.561-30.516-37.842-36.487 4.251 11.699 7.113 23.93 8.506 36.487z"/><path d="m409.997 397.959h35.477c-3.832-27.959-16.725-53.759-37.159-73.854-24.152-23.749-56.111-36.829-89.989-36.829-11.105 0-20.681.91-29.611 2.919 5.001 3.866 9.803 8.05 14.377 12.547 7.888 7.757 14.856 16.209 20.865 25.211 22.164 1.533 41.804 9.097 57.19 22.132 14.51 12.296 24.334 28.669 28.85 47.874z"/><path d="m15.129 91.767h291.96c6.996 35.172 38.089 61.768 75.286 61.768h7.732v120.882c10.645 5.423 20.706 12.079 30 19.899v-140.782h26.313v168.955c16.174 22.159 26.246 48.034 29.28 75.471h.72v-244.426h20.452c8.284 0 15-6.716 15-15s-6.716-15-15-15h-20.452v-31.767h17.938c8.284 0 15-6.716 15-15s-6.716-15-15-15h-74.252v-31.767h75.638c8.284 0 15-6.716 15-15s-6.716-15-15-15h-113.37c-37.197 0-68.289 26.595-75.286 61.767h-291.959c-8.284 0-15 6.716-15 15s6.716 15 15 15zm404.977 0h26.313v31.768h-26.313z"/><path d="m254.974 270.262c19.358-9.048 38.751-12.985 63.351-12.985.645 0 1.288.016 1.933.023-16.505-27.255-46.257-43.468-81.394-43.468-40.08 0-67 20.628-83.163 47.664 11.789-2.761 23.973-4.191 36.367-4.191 21.976 0 43.294 4.467 62.906 12.957z"/><path d="m496.781 427.959h-6.21-468.88-6.214c-8.284 0-15 6.716-15 15s6.716 15 15 15h18.444c7.282 12.131 16.845 22.803 28.415 31.534 19.513 14.724 42.747 22.507 67.192 22.507h253.249c24.432 0 47.657-7.775 67.164-22.486 11.582-8.734 21.155-19.412 28.443-31.554h18.396c8.284 0 15-6.716 15-15s-6.715-15.001-14.999-15.001z"/><path d="m286.763 397.959h32.438c-2.304-16.769-7.857-32.762-16.352-47.212-.214-.332-.422-.668-.61-1.018-5.551-9.243-12.302-17.846-20.183-25.596-9.829-9.665-20.951-17.562-32.97-23.531-.362-.16-.721-.327-1.07-.516-17.233-8.358-36.265-12.782-55.949-12.782-33.868 0-65.82 13.073-89.97 36.812-20.438 20.089-33.335 45.886-37.174 73.843h32.423c10.365-43.838 49.753-76.573 94.721-76.573 44.927 0 84.287 32.728 94.696 76.573z"/><path d="m128.53 397.959h127.039c-9.422-27.09-34.833-46.573-63.501-46.573-28.707 0-54.146 19.488-63.538 46.573z"/></g></svg>