<svg id="_x33_0" enable-background="new 0 0 64 64" height="512" viewBox="0 0 64 64" width="512" xmlns="http://www.w3.org/2000/svg"><g><path d="m61 37c0-9.764-10.243-18.068-24.05-19.708.03.235.05.471.05.708 0 1.434-.542 2.794-1.526 4.006.996 1.228 1.526 2.593 1.526 3.994 0 5.047-6.589 9-15 9-7.944 0-14.255-3.527-14.932-8.17-2.657 3.072-4.068 6.539-4.068 10.17 0 .374.018.745.047 1.114l.067.008c-.013.108-.019.218-.03.326 1.081 10.354 13.633 18.552 28.916 18.552s27.835-8.198 28.916-18.552c-.011-.109-.017-.219-.03-.326l.067-.008c.029-.369.047-.74.047-1.114zm-28 16h-5.536c-1.702 0-3.41-.169-5.076-.503l-.166-.033c-1.539-.308-3.115-.464-4.686-.464h-2.536v-4.724c-1.148-.168-2.307-.276-3.464-.276h-2.536v-10h5.938c1.449 0 2.897.178 4.304.53 1.248.312 2.533.47 3.82.47h3.938v4.861c.683.09 1.372.139 2.062.139h3.938zm23.354-12.682c.814 1.703.604 3.765-.536 5.254-1.667 2.178-4.16 3.428-6.839 3.428h-5.959c-2.679 0-5.172-1.25-6.839-3.428-1.141-1.489-1.351-3.551-.536-5.254.396-.826.396-1.811 0-2.637-.806-1.685-.86-3.643-.15-5.373 1.321-3.224 4.356-5.308 7.73-5.308h5.551c3.374 0 6.408 2.084 7.729 5.309.71 1.73.655 3.688-.15 5.373-.396.825-.396 1.811-.001 2.636z"/><path d="m18 17c.552 0 1-.449 1-1v-2c0-1.654 1.346-3 3-3s3 1.346 3 3v14c0 .551.448 1 1 1s1-.449 1-1v-17.171c0-.935-.222-1.838-.643-2.657-1.18.521-2.68.828-4.357.828s-3.177-.307-4.357-.828c-.421.818-.643 1.722-.643 2.657v5.171c0 .551.448 1 1 1z"/><path d="m21 14v2c0 .34-.069.662-.174.967.722.031 1.448.035 2.174.009v-2.976c0-.551-.448-1-1-1s-1 .449-1 1z"/><path d="m22 33c7.047 0 13-3.206 13-7 0-.876-.333-1.753-.957-2.577-1.309 1.049-3.018 1.922-5.043 2.552v2.025c0 1.654-1.346 3-3 3s-3-1.346-3-3v-1.041c-.334.013-.666.041-1 .041-4.99 0-9.325-1.398-12.037-3.583-.627.825-.963 1.705-.963 2.583 0 3.794 5.953 7 13 7z"/><path d="m15.002 16.019c0-.007-.002-.013-.002-.019v-5.171c0-1.325.343-2.599.971-3.745-.36-.35-.629-.737-.79-1.154-3.737 1.107-6.181 3.075-6.181 5.07 0 1.993 2.348 3.906 6.002 5.019z"/><path d="m22 25c.333 0 .666-.026 1-.04v-5.995c-.334.011-.668.035-1 .035-1.029 0-2.054-.06-3.055-.167-.299.1-.613.167-.945.167-.672 0-1.286-.23-1.787-.604-2.655-.577-4.859-1.529-6.446-2.722-.509.749-.767 1.529-.767 2.326 0 3.794 5.953 7 13 7z"/><path d="m29 23.869c3.683-1.295 6-3.519 6-5.869 0-.793-.255-1.569-.759-2.315-1.334.999-3.109 1.829-5.241 2.414z"/><path d="m29 16.015c3.634-1.116 6-3.054 6-5.015 0-1.995-2.444-3.963-6.181-5.07-.161.417-.43.804-.79 1.154.628 1.146.971 2.419.971 3.745z"/><path d="m22 7c.569 0 1.085-.052 1.572-.124l-1.287-3.862c-.098-.003-.186-.014-.285-.014-.569 0-1.085.052-1.572.124l1.287 3.862c.097.003.185.014.285.014z"/><path d="m27 5c0-.561-.939-1.29-2.511-1.694l1.017 3.052c.949-.406 1.494-.931 1.494-1.358z"/><path d="m19.51 6.694-1.017-3.052c-.948.406-1.493.931-1.493 1.358 0 .561.939 1.289 2.51 1.694z"/><path d="m24.758 44.47c-1.248-.312-2.533-.47-3.82-.47h-3.938v2h1.602c1.663 0 3.308.176 4.889.523 2.324.511 4.824.614 7.229.296l.28-.037v-1.782h-1.938c-1.45 0-2.898-.178-4.304-.53z"/><path d="m27.954 49c-1.657 0-3.312-.175-4.894-.523-1.439-.317-2.939-.477-4.458-.477h-1.602v2h.536c1.702 0 3.41.169 5.076.503l.166.033c1.539.308 3.115.464 4.686.464h3.536v-2.201l-.02.003c-.999.132-2.013.198-3.026.198z"/><path d="m54.655 33.067c-1.013-2.47-3.321-4.067-5.88-4.067h-5.551c-2.559 0-4.866 1.597-5.88 4.067-.495 1.208-.457 2.576.105 3.751.653 1.366.653 2.997 0 4.363-.493 1.031-.368 2.277.319 3.175 1.286 1.68 3.2 2.644 5.251 2.644h5.959c2.051 0 3.965-.963 5.251-2.644.688-.897.813-2.144.319-3.175-.653-1.366-.653-2.997 0-4.363.564-1.175.602-2.542.107-3.751zm-8.655 10.933c-3.314 0-6-2.686-6-6s2.686-6 6-6 6 2.686 6 6-2.686 6-6 6z"/><path d="m32 59c-11.403 0-21.38-4.395-26.764-10.919 4.38 7.579 14.726 12.919 26.764 12.919s22.384-5.34 26.764-12.92c-5.384 6.525-15.361 10.92-26.764 10.92z"/><path d="m11 43v2h.536c1.157 0 2.315.104 3.464.259v-2.121c-.79-.09-1.591-.138-2.398-.138z"/><path d="m17.49 41.523c2.324.51 4.824.614 7.229.296l.281-.037v-1.782h-1.938c-1.449 0-2.897-.178-4.304-.53-1.248-.312-2.533-.47-3.82-.47h-3.938v2h1.602c1.663 0 3.307.176 4.888.523z"/><path d="m46 34v2c1.103 0 2 .897 2 2h2c0-2.206-1.794-4-4-4z"/></g></svg>