<svg height="464pt" viewBox="0 0 464 464" width="464pt" xmlns="http://www.w3.org/2000/svg"><path d="m296 140.480469v-96.664063l-27.296875 10.917969 17.648437 88.265625c3.152344-.929688 6.359376-1.769531 9.648438-2.519531zm0 0"/><path d="m271.113281 148.335938-21.394531-106.921876-24.488281 4.898438 20.546875 116.414062c7.367187-5.550781 15.878906-10.40625 25.335937-14.390624zm0 0"/><path d="m216.304688 210.136719c1.304687-12.527344 6.824218-24.144531 15.535156-34.328125l-18.207032-103.175782-28.058593 5.605469 29.410156 132.328125zm0 0"/><path d="m425.121094 161.945312c11.664062 8.566407 20.445312 18.894532 25.605468 30.382813l12.464844-105.929687-24.664062-4.925782zm0 0"/><path d="m344 136.246094v-136.246094h-32v137.550781c7.734375-1.007812 15.753906-1.550781 24-1.550781 2.703125 0 5.34375.136719 8 .246094zm0 0"/><path d="m386.902344 37.929688-26.902344-4.488282v104.109375c3.398438.441407 6.742188.976563 10.03125 1.601563zm0 0"/><path d="m410.414062 152.824219 15.050782-90.289063 7.582031 1.519532 5.921875-41.4375-32.402344-5.410157-20.957031 125.792969c8.910156 2.625 17.261719 5.894531 24.804687 9.824219zm0 0"/><path d="m336 400c44.113281 0 80-35.886719 80-80s-35.886719-80-80-80c-33.199219 0-62.558594 20.289062-74.488281 50.902344 16.417969 18.394531 26.488281 42.5625 26.488281 69.097656h-.246094c9.796875 7.296875 16.246094 18.871094 16.246094 32 0 .390625-.105469.753906-.113281 1.144531 10.113281 4.464844 20.867187 6.855469 32.113281 6.855469zm0 0"/><path d="m264 416c13.230469 0 24-10.769531 24-24s-10.769531-24-24-24h-72.808594c-3.71875 18.230469-19.871094 32-39.191406 32-5.519531 0-10.886719-1.160156-16-3.457031-10.222656 4.59375-21.777344 4.59375-32 0-10.222656 4.59375-21.777344 4.59375-32 0-5.113281 2.296875-10.480469 3.457031-16 3.457031-18.902344 0-34.703125-13.222656-38.855469-30.878906-9.878906 2.96875-17.144531 12.039062-17.144531 22.878906 0 13.230469 10.769531 24 24 24zm0 0"/><path d="m264 352c2.617188 0 5.160156.289062 7.632812.769531-3.695312-45.144531-41.554687-80.769531-87.632812-80.769531h-80c-46.078125 0-83.9375 35.625-87.632812 80.769531 2.472656-.480469 5.015624-.769531 7.632812-.769531zm-72-56h16v16h-16zm-40-8h16v16h-16zm-32 0h16v16h-16zm-40 8h16v16h-16zm0 0"/><path d="m56 384c4.128906 0 8.160156-1.128906 11.976562-3.351562l4.023438-2.34375 4.023438 2.34375c7.632812 4.457031 16.3125 4.457031 23.945312 0l4.03125-2.34375 4.023438 2.34375c7.632812 4.457031 16.3125 4.457031 23.945312 0l4.03125-2.34375 4.023438 2.34375c3.816406 2.222656 7.847656 3.351562 11.976562 3.351562 10.414062 0 19.214844-6.710938 22.527344-16h-141.054688c3.3125 9.289062 12.113282 16 22.527344 16zm0 0"/><path d="m24 432c-2.734375 0-5.414062-.28125-8-.808594v8.808594c0 13.230469 10.769531 24 24 24h208c13.230469 0 24-10.769531 24-24v-8.808594c-2.585938.527344-5.265625.808594-8 .808594zm0 0"/><path d="m440 221.769531v-5.769531c0-35.886719-45.679688-64-104-64s-104 28.113281-104 64v5.769531l-23.328125 7.773438 3.417969 30.425781c13.71875 3.855469 26.300781 10.40625 37.101562 19.128906 15.679688-33.363281 49.183594-55.097656 86.808594-55.097656 52.9375 0 96 43.0625 96 96s-43.0625 96-96 96c-12.503906 0-24.519531-2.457031-35.894531-7.0625-2.824219 6-7.082031 11.140625-12.351563 15.0625h.246094v16c0 9.039062-3.128906 17.296875-8.207031 24h160.941406l22.679687-234.433594zm0 0"/></svg>