<svg height="497pt" viewBox="-83 0 497 497.398" width="497pt" xmlns="http://www.w3.org/2000/svg"><path d="m58.949219 437.160156c4.160156 9.980469 9.957031 19.183594 17.179687 27.300782l10.308594-9.179688c-6.210938-6.992188-11.183594-14.878906-14.765625-23.457031zm0 0"/><path d="m54.160156 376.070312 13.414063 3.269532c2.1875-9.039063 5.863281-17.617188 10.925781-25.484375l-11.613281-7.453125c-5.890625 9.152344-10.167969 19.136718-12.726563 29.667968zm0 0"/><path d="m246.308594 384.054688c-1.679688-10.742188-5.105469-21.023438-10.214844-30.613282l-12.1875 6.464844c4.367188 8.230469 7.335938 17.0625 8.765625 26.289062zm0 0"/><path d="m86.871094 474.835938c8.371094 6.945312 17.753906 12.417968 27.875 16.234374l4.875-12.898437c-8.691406-3.289063-16.742188-7.980469-23.941406-13.964844zm0 0"/><path d="m65.183594 399.347656c0-2.460937.089844-4.921875.320312-7.335937l-13.757812-1.199219c-.25 2.832031-.363282 5.683594-.363282 8.535156 0 7.980469.964844 15.9375 2.875 23.621094l13.386719-3.3125c-1.632812-6.601562-2.460937-13.429688-2.460937-20.308594zm0 0"/><path d="m172.246094 480.46875 3.726562 13.296875c10.4375-2.945313 20.265625-7.566406 29.210938-13.757813l-7.867188-11.335937c-7.660156 5.308594-16.101562 9.292969-25.070312 11.796875zm0 0"/><path d="m207.300781 460.574219 9.472657 10.027343c7.914062-7.453124 14.46875-16.101562 19.507812-25.691406l-12.214844-6.4375c-4.328125 8.253906-9.980468 15.683594-16.765625 22.101563zm0 0"/><path d="m149.476562 483.597656s-.023437 0-.046874 0c-5.882813 0-11.773438-.621094-17.480469-1.816406l-2.828125 13.5c6.625 1.402344 13.476562 2.117188 20.308594 2.117188h.066406c3.9375 0 7.914062-.253907 11.824218-.714844l-1.65625-13.707032c-3.355468.410157-6.785156.621094-10.1875.621094zm0 0"/><path d="m233.679688 399.347656c0 9.359375-1.519532 18.5625-4.53125 27.347656l13.066406 4.484376c3.496094-10.234376 5.265625-20.929688 5.265625-31.96875v-.253907h-13.800781zm0 0"/><path d="m211.785156 323.65625c-3.683594 3.058594-7.613281 5.839844-11.730468 8.347656 6.460937 4.832032 12.167968 10.558594 17 17.046875l11.058593-8.234375c-4.734375-6.375-10.210937-12.125-16.328125-17.160156zm0 0"/><path d="m195.535156 390.070312-28.089844 12.964844-5.785156-12.527344 28.09375-12.964843zm0 0"/><path d="m137.191406 390.472656-5.707031 12.5625-26.6875-12.132812 5.710937-12.5625zm0 0"/><path d="m149.433594 430.890625c5.296875 0 9.601562 4.304687 9.601562 9.597656h13.800782c0-12.898437-10.496094-23.394531-23.402344-23.394531-12.902344 0-23.398438 10.496094-23.398438 23.394531h13.800782c0-5.292969 4.304687-9.597656 9.597656-9.597656zm0 0"/><path d="m149.433594 272.191406c5.296875 0 9.601562 4.308594 9.601562 9.605469h13.800782c0-12.90625-10.496094-23.402344-23.402344-23.402344-12.902344 0-23.398438 10.496094-23.398438 23.402344h13.800782c0-5.296875 4.304687-9.605469 9.597656-9.605469zm0 0"/><path d="m132.285156 238.066406c0 5.960938-4.828125 10.792969-10.789062 10.792969-5.960938 0-10.792969-4.832031-10.792969-10.792969 0-5.957031 4.832031-10.789062 10.792969-10.789062 5.960937 0 10.789062 4.832031 10.789062 10.789062zm0 0"/><path d="m188.164062 238.066406c0 5.960938-4.832031 10.792969-10.789062 10.792969-5.960938 0-10.789062-4.832031-10.789062-10.792969 0-5.957031 4.828124-10.789062 10.789062-10.789062 5.957031 0 10.789062 4.832031 10.789062 10.789062zm0 0"/><path d="m87.078125 323.679688c-4.003906 3.289062-7.730469 6.898437-11.179687 10.808593l10.328124 9.132813c3.816407-4.324219 8.027344-8.210938 12.578126-11.640625 14.792968 8.972656 32.109374 14.125 50.625 14.125 18.515624 0 35.832031-5.152344 50.621093-14.101563 4.117188-2.507812 8.050781-5.289062 11.734375-8.347656 21.777344-18.011719 35.695313-45.21875 35.695313-75.625 0-26.6875-10.734375-50.929688-28.105469-68.640625-3.574219 2.976563-7.34375 5.734375-11.289062 8.25 15.78125 15.300781 25.59375 36.714844 25.59375 60.390625 0 46.460938-37.789063 84.269531-84.25 84.269531-16.949219 0-32.730469-5.035156-45.953126-13.683593-1.589843-1.035157-3.152343-2.117188-4.648437-3.265626-20.421875-15.386718-33.644531-39.835937-33.644531-67.320312 0-23.675781 9.808594-45.089844 25.589844-60.390625-3.941407-2.519531-7.710938-5.273437-11.285157-8.25-17.375 17.710937-28.105469 41.953125-28.105469 68.640625 0 30.40625 13.914063 57.613281 35.695313 75.648438zm0 0"/><path d="m90.203125 169.945312c3.820313 3.035157 7.890625 5.796876 12.167969 8.210938 13.867187 7.910156 29.945312 12.417969 47.058594 12.417969 17.117187 0 33.1875-4.507813 47.058593-12.417969 4.277344-2.414062 8.351563-5.175781 12.167969-8.210938 21.964844-17.457031 36.0625-44.414062 36.0625-74.65625 0-52.625-42.664062-95.289062-95.289062-95.289062-52.621094 0-95.289063 42.664062-95.289063 95.289062 0 30.242188 14.101563 57.199219 36.0625 74.65625zm87.171875-97.003906c5.960938 0 10.789062 4.832032 10.789062 10.789063 0 5.960937-4.828124 10.792969-10.789062 10.792969s-10.789062-4.832032-10.789062-10.792969c0-5.957031 4.828124-10.789063 10.789062-10.789063zm-27.941406 54.902344c7.480468 0 13.796875-4.394531 13.796875-9.601562h13.800781c0 12.902343-12.378906 23.402343-27.597656 23.402343-15.214844 0-27.59375-10.5-27.59375-23.402343h13.800781c0 5.203124 6.320313 9.601562 13.792969 9.601562zm-17.148438-44.113281c0 5.960937-4.832031 10.792969-10.789062 10.792969-5.960938 0-10.792969-4.832032-10.792969-10.792969 0-5.957031 4.832031-10.789063 10.792969-10.789063 5.957031 0 10.789062 4.832032 10.789062 10.789063zm-23.996094-60.09375 5.742188 9.960937c-5.167969 2.976563-9.957031 6.605469-14.234375 10.777344l-8.027344-8.234375c4.96875-4.839844 10.523438-9.050781 16.519531-12.503906zm-41.5 71.652343c0-12.964843 2.933594-25.386718 8.71875-36.921874 1.308594-2.613282 2.78125-5.203126 4.386719-7.691407l9.671875 6.21875c-1.378906 2.148438-2.648437 4.378907-3.78125 6.628907-4.96875 9.917968-7.492187 20.609374-7.492187 31.765624zm0 0"/><path d="m297.1875 301.871094h13.800781v80.386718h-13.800781zm0 0"/><path d="m297.1875 400.179688h13.800781v96.867187h-13.800781zm0 0"/><path d="m32.097656.5h-13.800781v16.308594h-18.097656v13.800781h18.097656v18.09375h13.800781v-18.09375h16.304688v-13.800781h-16.304688zm0 0"/><path d="m297.1875 51.816406h13.800781v232.875h-13.800781zm0 0"/><path d="m330.722656 31.695312-20.65625-27.980468c-1.289062-1.742188-3.320312-2.78125-5.484375-2.804688-2.214843.023438-4.21875.980469-5.542969 2.695313l-21.507812 27.984375c-1.601562 2.082031-1.878906 4.894531-.714844 7.253906 1.15625 2.355469 3.5625 3.847656 6.1875 3.847656h11.277344v-.03125h19.542969v.03125h11.34375c2.601562 0 4.984375-1.464844 6.15625-3.789062 1.171875-2.324219.941406-5.113282-.601563-7.207032zm0 0"/></svg>