<svg height="512" viewBox="0 0 57 56" width="512" xmlns="http://www.w3.org/2000/svg"><path id="Shape" d="m27 34.35v-2.79c1.8747678-.6810043 3.5803231-1.7589152 5-3.16v2.86zm-15.39-15.35 2.18 2c-5.33 2.51-2.74 8 5.21 8 1.0488745.0031687 2.0949966-.1074788 3.12-.33l1.88 1.74c-13.31 3.26-25.43-7.28-12.39-11.41zm7.39 8c-3.72 0-6-1.46-6-2.5s2.28-2.5 6-2.5 6 1.46 6 2.5-2.28 2.5-6 2.5zm7.22 2.72-1.95-1.79c5.26-2.53 2.63-7.93-5.27-7.93-1.0086773-.003054-2.0146617.104251-3 .32l-2-1.86c1.6485413-.3098785 3.3225919-.4638912 5-.46 7.29 0 13 2.64 13 6 0 2.1-2.24 4.35-5.78 5.72zm29-29.46c.4804877-.38107648 1.1789235-.30048773 1.56.18s.3004877 1.17892352-.18 1.56l-23.6 19c-.3769969-.5341613-.8205749-1.0180646-1.32-1.44zm-47.22 18.14v-4.19c7.55 2.05 15.44-.11 19-3.81v6.73c-5.53-1.75-13.91-1.58-19 1.27zm19-12.4c0 3.3-5.56 7-13 7-1.6841251.0015989-3.3625025-.1964497-5-.59l1.89-1.74c1.0217374.2218029 2.0644677.3324463 3.11.33 8.05 0 10.47-5.49 5.21-8l2.18-2c3.41 1.11 5.61 2.91 5.61 5zm-7 .5c0 1-2.28 2.5-6 2.5s-6-1.46-6-2.5 2.28-2.5 6-2.5 6 1.46 6 2.5zm-6-6.5c1.6974465-.0076798 3.3917654.14634919 5.06.46l-2.06 1.86c-.9853383-.21574901-1.9913227-.32305401-3-.32-8 0-10.46 5.44-5.27 7.93l-1.95 1.79c-3.54-1.37-5.78-3.62-5.78-5.72 0-3.36 5.71-6 13-6zm-13 30v-19.6c1.41967688 1.4010848 3.12523224 2.4789957 5 3.16v6.28c-1.22544375 1.0410657-1.95221591 2.5527518-2 4.16v11.14c-1.78044477-1.1195848-2.90080751-3.0391396-3-5.14zm1.31 15.82c-.34163646.2078466-.78427401.1314976-1.03653954-.178789s-.23666191-.7591894.03653954-1.051211l2.69-2.24v2.1zm3.69-17.42c3.58 3.72 11.49 5.85 19 3.81v3.37l-19 11.75zm2.09 24.24 16.91-10.23v12.71c-6.12 1.88-13.33.54-16.91-2.48zm23.91-4.64c0 2.61-1.94 4.89-5 6.34v-13.14l5-3zm24.64-27.08c-56.76 34.36-54.23 32.82-54.33 32.9-.21435935.1911371-.51440599.2533957-.78711524.1633236-.27270926-.0900721-.4766501-.3187908-.535-.6s.03775589-.5721865.25211524-.7633236c56.33-34.82 53.85-33.28 54-33.36.4583963-.4004064 1.1545935-.3533963 1.555.105.4004064.4583964.3533963 1.1545935-.105 1.555z" transform="translate(-1)"/></svg>