<svg id="Glyph" enable-background="new 0 0 64 64" height="512" viewBox="0 0 64 64" width="512" xmlns="http://www.w3.org/2000/svg"><g fill="rgb(0,0,0)"><path d="m5.799 18.381c-1.826 1.243-2.299 3.731-1.057 5.557l7.187 10.561-4.781-17.036z"/><path d="m28.947 2.629-2.867 1.951 7.238-2.031c-1.304-.815-3.018-.841-4.371.08z"/><path d="m35.053 61.371 2.867-1.951-7.238 2.031c1.304.815 3.018.841 4.371-.08z"/><path d="m58.201 45.619c1.826-1.243 2.299-3.731 1.057-5.557l-7.187-10.561 4.781 17.037z"/><path d="m8.725 15.681 3.275 11.669v-16.742l-.504.141c-2.127.597-3.367 2.805-2.771 4.932z"/><path d="m38.455 3.184-2.907.816h6.59c-.981-.839-2.347-1.19-3.683-.816z"/><path d="m25.545 60.816 2.907-.816h-6.59c.981.839 2.347 1.19 3.683.816z"/><path d="m52 53.392.504-.141c2.127-.597 3.367-2.805 2.771-4.932l-3.275-11.67z"/><path d="m14 10v44c0 2.209 1.791 4 4 4h28c2.209 0 4-1.791 4-4v-44c0-2.209-1.791-4-4-4h-28c-2.209 0-4 1.791-4 4zm5 45h-2v-2h2zm26-46h2v2h-2zm0 44h2v2h-2zm-13-32c5.738 0 10.444 4.394 10.95 10h-7.09c-.45-1.72-2-3-3.86-3s-3.41 1.28-3.86 3h-7.09c.506-5.606 5.212-10 10.95-10zm2 11c0 1.1-.9 2-2 2s-2-.9-2-2 .9-2 2-2 2 .9 2 2zm-5.86 1c.45 1.72 2 3 3.86 3s3.41-1.28 3.86-3h7.09c-.506 5.606-5.212 10-10.95 10s-10.444-4.394-10.95-10zm-9.14-22h-2v-2h2z"/></g></svg>