<svg height="512pt" viewBox="0 -45 512.00109 512" width="512pt" xmlns="http://www.w3.org/2000/svg"><path d="m497 150h-110.304688c-32.066406-37.734375-71.804687-64.460938-116.304687-78.417969 27.570313 22.007813 45.609375 55.480469 45.609375 93.417969s-18.039062 71.410156-45.609375 93.417969c44.5-13.953125 84.238281-40.683594 116.304687-78.417969h110.304688c8.292969 0 15-6.707031 15-15 0-8.289062-6.707031-15-15-15zm0 0"/><path d="m497 90h-84.628906c-61.140625-60.542969-131.980469-90-216.371094-90-73.109375 0-136.085938 21.429688-190.445312 65.523438-6.433594 5.214843-7.429688 14.660156-2.199219 21.09375 5.1875 6.429687 14.648437 7.410156 21.09375 2.195312 48.808593-39.578125 105.589843-58.8125 171.550781-58.8125 79.042969 0 142.398438 27.160156 199.410156 85.488281 2.8125 2.886719 6.679688 4.511719 10.722656 4.511719h90.867188c8.292969 0 15-6.707031 15-15 0-8.289062-6.707031-15-15-15zm0 0"/><path d="m196 150c-8.273438 0-15 6.722656-15 15s6.726562 15 15 15c8.277344 0 15-6.722656 15-15s-6.722656-15-15-15zm0 0"/><path d="m196 75c-49.707031 0-90 40.292969-90 90s40.292969 90 90 90 90-40.292969 90-90-40.292969-90-90-90zm0 135c-24.8125 0-45-20.1875-45-45s20.1875-45 45-45c24.816406 0 45 20.1875 45 45s-20.183594 45-45 45zm0 0"/><path d="m397.929688 387.816406c-39.15625 13.097656-111.109376-6.691406-144.933594-51.808594l-28.199219-37.601562c-9.492187.957031-19.074219 1.59375-28.796875 1.59375-5.0625 0-9.996094-.570312-15-.832031v105.832031c0 8.289062 6.710938 15 15 15 8.292969 0 15-6.710938 15-15v-75l18.003906 23.992188c33.605469 44.8125 93.105469 67.734374 141.285156 67.734374 13.546876 0 26.203126-1.800781 37.132813-5.449218 27.699219-9.226563 43.578125-29.75 43.578125-56.277344 0-33.089844-26.910156-60-60-60-25.386719 0-48.121094 16.070312-56.570312 40.003906-2.769532 7.808594 1.316406 16.378906 9.140624 19.132813 7.792969 2.753906 16.375-1.320313 19.128907-9.140625 4.234375-11.953125 15.617187-19.996094 28.300781-19.996094 16.539062 0 30 13.460938 30 30 0 4.980469 0 20.125-23.070312 27.816406zm0 0"/><path d="m121.613281 258.417969c-27.574219-22.007813-45.613281-55.480469-45.613281-93.417969s18.039062-71.410156 45.613281-93.417969c-46.820312 14.683594-85.457031 43.089844-118.316406 84.027344-4.394531 5.492187-4.394531 13.285156 0 18.78125 32.859375 40.941406 71.496094 69.34375 118.316406 84.027344zm0 0"/></svg>