<svg height="512" viewBox="0 0 512 512" width="512" xmlns="http://www.w3.org/2000/svg"><g id="_OUTLINE" data-name="/ OUTLINE"><path d="m415.14941 98.36963a223.475 223.475 0 0 0 -67.88671-46.99414l-6.5254 14.60937a207.55263 207.55263 0 0 1 63.04493 43.64453z"/><path d="m171.2627 65.98486-6.5254-14.60937a225.163 225.163 0 0 0 -119.98925 129.95851l15.08595 5.332a209.08546 209.08546 0 0 1 111.4287-120.68114z"/><path d="m109.62988 403.78271a209.26491 209.26491 0 0 1 -49.79588-78.44871l-15.08593 5.332a225.3589 225.3589 0 0 0 53.62205 84.4839z"/><path d="m417.60645 386.96 12.42382 10.081a225.05732 225.05732 0 0 0 22.33887-33.1836l-14.01758-7.71484a208.94865 208.94865 0 0 1 -20.74511 30.81744z"/><path d="m274.45312 67.75244-25.57812-17.05176v-.00048a16.00028 16.00028 0 0 0 -24.875 13.31347v34.10352a15.99444 15.99444 0 0 0 24.875 13.3125l25.57812-17.05127a16.00009 16.00009 0 0 0 0-26.626zm-34.45312 30.36475-.042-34.12842a.29914.29914 0 0 1 .042.0249v-.00049l25.57812 17.05225z"/><path d="m336 256a64 64 0 1 0 -64 64 64.07239 64.07239 0 0 0 64-64zm-64 48a48 48 0 1 1 48-48 48.05405 48.05405 0 0 1 -48 48z"/><path d="m264 252.687-21.657 21.656 11.314 11.314 26.343-26.344v-35.313h-16z"/><path d="m80 288v-8h40v8a24.02718 24.02718 0 0 0 24 24h16a24.02718 24.02718 0 0 0 24-24v-64a24.02718 24.02718 0 0 0 -24-24h-16a24.02718 24.02718 0 0 0 -24 24v8h-40v-8a24.02718 24.02718 0 0 0 -24-24h-16a24.02718 24.02718 0 0 0 -24 24v64a24.02718 24.02718 0 0 0 24 24h16a24.02718 24.02718 0 0 0 24-24zm56-64a8.00917 8.00917 0 0 1 8-8h16a8.00917 8.00917 0 0 1 8 8v64a8.00917 8.00917 0 0 1 -8 8h-16a8.00917 8.00917 0 0 1 -8-8zm-56 24h40v16h-40zm-48 40v-64a8.00917 8.00917 0 0 1 8-8h16a8.00917 8.00917 0 0 1 8 8v64a8.00917 8.00917 0 0 1 -8 8h-16a8.00917 8.00917 0 0 1 -8-8z"/><path d="m96 432a24 24 0 0 0 0 48h72v-.02795a39.96343 39.96343 0 0 0 32 16.02795h112a40.04552 40.04552 0 0 0 40-40v-24zm0 32a8 8 0 0 1 0-16h64v8a40.037 40.037 0 0 0 .80493 8zm240-8a24.0275 24.0275 0 0 1 -24 24h-112a24.0275 24.0275 0 0 1 -24-24v-8h160z"/><path d="m248 360h16v16h-16z"/><path d="m160 352h16v16h-16z"/><path d="m168 400h16v16h-16z"/><path d="m192 368h16v16h-16z"/><path d="m216 392h16v16h-16z"/><path d="m216 344h16v16h-16z"/><path d="m264 400h16v16h-16z"/><path d="m432 247.50293a65.42965 65.42965 0 0 0 38.62793-18.81693l6.05859-6.0586a65.51183 65.51183 0 0 0 19.31348-46.6274v-8h-8a65.51024 65.51024 0 0 0 -46.62793 19.314l-6.05859 6.0586a66.19 66.19 0 0 0 -11.31348 15.10531 66.19 66.19 0 0 0 -11.31348-15.10535l-6.05859-6.0586a65.51024 65.51024 0 0 0 -46.62793-19.31396h-8v8a65.51183 65.51183 0 0 0 19.31348 46.62744l6.05859 6.0586a65.42965 65.42965 0 0 0 38.62793 18.81689v16.49707h-48v16h8.9375l5.37207 42.97656a24.03946 24.03946 0 0 0 23.81543 21.02344h35.75a24.03946 24.03946 0 0 0 23.81543-21.02344l5.37207-42.97656h8.9375v-16h-48zm14.62793-42.81693 6.05859-6.0586a49.576 49.576 0 0 1 26.55274-13.86621 49.58107 49.58107 0 0 1 -13.86719 26.55281l-6.05859 6.0586a49.576 49.576 0 0 1 -26.55274 13.86621 49.58107 49.58107 0 0 1 13.86719-26.55281zm-57.94141 12.68652-6.05859-6.0586a49.58107 49.58107 0 0 1 -13.86719-26.55273 49.576 49.576 0 0 1 26.55274 13.86621l6.05859 6.0586a49.58107 49.58107 0 0 1 13.86719 26.55273 49.576 49.576 0 0 1 -26.55274-13.86617zm66.25098 62.62748-5.124 40.99219a8.01243 8.01243 0 0 1 -7.9385 7.00781h-35.75a8.01243 8.01243 0 0 1 -7.93848-7.00781l-5.12402-40.99219z"/><path d="m417.225 100h43.773v16h-43.773z" transform="matrix(.406 -.914 .914 .406 162.084 465.405)"/><path d="m410.801 144h17.509v16h-17.509z" transform="matrix(.406 -.914 .914 .406 110.255 473.658)"/><path d="m168 152a24.0275 24.0275 0 0 0 24 24h128a24.0275 24.0275 0 0 0 24-24v-24h-16v-88a24.02718 24.02718 0 0 0 -24-24h-96a24.02718 24.02718 0 0 0 -24 24v88h-16zm32-112a8.00917 8.00917 0 0 1 8-8h96a8.00917 8.00917 0 0 1 8 8v88h-112zm-16 104h144v8a8.00917 8.00917 0 0 1 -8 8h-128a8.00917 8.00917 0 0 1 -8-8z"/><path d="m376 372.68652v-14.05908a23.84254 23.84254 0 0 0 -7.0293-16.9707l-16-16a24.02784 24.02784 0 0 0 -33.9414 0l-25.373 25.373a24.02666 24.02666 0 0 0 0 33.94042l16 16a23.84385 23.84385 0 0 0 16.9707 7.02984h14.05957l65.65625 65.65674a24.97075 24.97075 0 0 0 35.31446-35.31348zm54.34277 89.65674a8.9696 8.9696 0 0 1 -12.68554 0l-70.34375-70.34326h-20.68648a7.94524 7.94524 0 0 1 -5.65625-2.34326l-16-16a8.00889 8.00889 0 0 1 0-11.31348l25.373-25.373a8.00772 8.00772 0 0 1 11.3125 0l16 16a7.94677 7.94677 0 0 1 2.34375 5.65718v20.686l70.34277 70.34326a8.98022 8.98022 0 0 1 0 12.68656z"/><path d="m457.225 100h43.773v16h-43.773z" transform="matrix(.406 -.914 .914 .406 185.839 501.958)"/><path d="m450.801 144h17.509v16h-17.509z" transform="matrix(.406 -.914 .914 .406 134.009 510.211)"/></g></svg>