<svg height="464pt" viewBox="-40 0 464 464.00009" width="464pt" xmlns="http://www.w3.org/2000/svg"><path d="m360.523438 40h16c4.417968 0 8 3.582031 8 8v24c0 4.417969-3.582032 8-8 8h-16c-4.417969 0-8-3.582031-8-8v-24c0-4.417969 3.582031-8 8-8zm0 0"/><path d="m7.722656 304c28.035156 4.332031 48.738282 28.433594 48.800782 56.800781-.476563 55.335938 43.101562 101.039063 98.398437 103.199219h1.601563c55.226562 0 100-44.769531 100-100v-317.601562c.28125-2.796876 2.355468-5.082032 5.113281-5.632813 2.757812-.554687 5.550781.761719 6.886719 3.234375 8.644531 21.976562 29.984374 36.308594 53.597656 36h14.402344c4.417968 0 8-3.582031 8-8v-24c0-4.417969-3.582032-8-8-8h-2.402344c-9.882813.03125-18.773438-6.003906-22.398438-15.199219-6.136718-14.9375-20.652344-24.7187498-36.800781-24.800781h-24c-28.394531-.0507812-51.902344 22.054688-53.597656 50.398438l-1.601563 28h-14.398437v16h14.398437v16h-16v16h12.800782v16h-15.199219v16h14.398437v16h-16.800781v16h14.402344l-12 173.601562c0 2.429688-1.972657 4.398438-4.402344 4.398438s-4.398437-1.96875-4.398437-4.398438v-156c.097656-2.90625-1.386719-5.636719-3.878907-7.132812-2.496093-1.496094-5.605469-1.523438-8.121093-.066407l-152 88c-3.3125 1.597657-5.109376 5.25-4.351563 8.851563.757813 3.601562 3.875 6.21875 7.550781 6.347656zm0 0"/></svg>