<svg height="512" viewBox="0 0 60 57" width="512" xmlns="http://www.w3.org/2000/svg"><g id="Page-1" fill="none" fill-rule="evenodd"><g id="031---Brain-Research" fill="rgb(0,0,0)" fill-rule="nonzero"><path id="Shape" d="m55.706 40.573-18.506 6.171c-.5114121.1702625-1.0469906.2567115-1.586.256h-8.889c-1.5795116-.0016226-3.1238787.4661776-4.437 1.344l-.733.488c-.297208.205674-.6822701.2349653-1.0071691.0766144s-.5390655-.4796973-.5601743-.8405141.1541256-.7049443.4583434-.9001003l.733-.488c1.6412983-1.0972994 3.5716845-1.682054 5.546-1.68h6.075c.6357735-.8499147.6942642-1.9999679.148-2.91l-.089-.147c-.724812-1.2015132-2.0238031-1.9379999-3.427-1.943h-5.232c-2.2992529-.0028916-4.5296206-.7851243-6.327-2.219-1.4409762-1.1501989-3.2292643-1.7780209-5.073-1.781h-1.8v20.0000002l24.3-.0000002c1.100291.0002808 2.1794091-.3024536 3.119-.875l18.745-11.41c.4191789-.2550253.7112004-.6751781.8041289-1.1569593.0929286-.4817812-.0218745-.9804045-.3161289-1.3730407-.448326-.6029972-1.2332366-.8498448-1.946-.612z"/><rect id="Rectangle-path" height="23" rx="1" width="7" x="2" y="34"/><path id="Shape" d="m16.922 27c.628192-.001562 1.2539519-.0781034 1.864-.228-.0980771-.491961-.1476479-.9923581-.148-1.494 0-.063.011-.125.012-.188-2.1784976-.1111934-3.8885156-1.9086679-3.891-4.09-.0011483-.5553733.4446784-1.0083333 1-1.016.2635876-.0032029.5175253.0990619.7053268.2840464s.2938922.4373477.2946732.7009536v.031c.0115186.5707924.2502137 1.1134187.6631836 1.5076172s.9661056.6074108 1.5368164.5923828c.1783665-.6100841.4326923-1.1953358.757-1.742.1836345-.3065339.5168537-.491815.8741371-.4860498.3572833.0057652.6843511.2017009.858.514.1736488.3122991.1674974.6935159-.0161371 1.0000498-.8496427 1.4173493-1.0290167 3.1378756-.49 4.7.6456864 1.8980315 2.2594956 3.3041285 4.2280569 3.6838668 1.9685613.3797382 3.9895908-.3251933 5.2949431-1.8468668.2927859-.2948401.7254282-.4020367 1.122-.278 1.3501171.5383596 2.8060391.7587154 4.255.644.7494645-.0508264 1.4906343-.1873841 2.209-.407.3415459-.1048575.7130881-.0195372.9746703.2238215s.3734637.6077839.2935.956c-.0799637.3482162-.3396244.6273211-.6811703.7321785-.7136584.2127938-1.4459669.3571125-2.187.431.436 1.172 1.537 2.063 4.451 3.039 1.3790032.4379481 2.6077572 1.2534223 3.547 2.354.4564897.5632339 1.2254016.7655791 1.9.5.5889726-.251341.9713582-.8296403.972-1.47.0002158-.1645602-.0264693-.3280492-.079-.484-.2555365-.8237677-.6058837-1.6150691-1.044-2.358-.7621488.3270681-1.5614036.5597923-2.38.693-.0529649.0079361-.1064439.011947-.16.012-.5203205-.0019141-.9522293-.4025178-.9932143-.9212251-.0409849-.5187074.322651-.9821699.8362143-1.0657749 2.3787077-.3939275 4.4646725-1.8119888 5.706-3.879-2.0262936.8279324-4.313743.7255857-6.258-.28-.5530102-.289026-1.0665555-.6479699-1.528-1.068-1.9944337.8835022-4.3305783.0335536-5.291-1.925-.2416824-.4932118-.0403425-1.0890358.4509705-1.334555.4913131-.2455193 1.0886883-.0488295 1.3380295.440555.2820832.5362571.7782754.9277971 1.365428 1.0774447.5871527.1496477 1.2102226.0433742 1.714572-.2924447.8605755-.5976781 1.1518839-1.7365065.684-2.674-.2416824-.4932118-.0403425-1.0890358.4509705-1.334555.4913131-.2455193 1.0886883-.0488295 1.3380295.440555.7109593 1.4192292.5363085 3.1216842-.448 4.367.260723.1993918.5396172.3738263.833.521 2.2515631 1.1198593 4.971944.6205051 6.679-1.226l.02-.021c1.4556955-1.6074808 1.8408985-3.915964.986-5.909-.3438882.3050797-.7289975.5602483-1.144.758-.5000938.234721-1.095779.0195938-1.3305-.4805s-.0195938-1.095779.4805-1.3305c.5467403-.2563278 1.0008218-.67548 1.3-1.2.6778087-1.1867999.4288376-2.6864677-.5960996-3.5905819s-2.5439507-.9640152-3.6369004-.1434181c-.4418278.3313708-1.0686292.2418278-1.4-.2s-.2418278-1.0686292.2-1.4c.5260702-.3922294 1.1266606-.6729586 1.765-.825-.7749172-3.81850072-4.0830326-6.5966874-7.978-6.7.028518.18116521.04688.36378379.055.547 0 .55228475-.4477153 1-1 1s-1-.44771525-1-1c.0194104-1.04153684-.5251344-2.01237161-1.4240357-2.53882401-.8989014-.52645239-2.0120272-.52645239-2.9109286 0-.8989013.5264524-1.4434461 1.49728717-1.4240357 2.53882401 0 .55228475-.4477153 1-1 1s-1-.44771525-1-1c.0033066-.59528749.1165393-1.18484389.334-1.739-1.057418-.73188946-2.3130006-1.1236703-3.599-1.123-2.9001589-.00684453-5.4366834 1.9515137-6.164 4.759-.1474328.52341522-.6860966.83308428-1.2126039.69710617-.5265072-.13597811-.8478548-.66775757-.7233961-1.19710617.0948065-.36045545.2133998-.71423083.355-1.059-.2596889-.05604475-.5243509-.0858611-.79-.089-2.0014402.00843295-3.6953268 1.48032382-3.983 3.461 1.4378373.07606801 2.7663751.79095491 3.622 1.949.3299901.44320851.2382085 1.0700099-.205 1.4s-1.0700099.2382085-1.4-.205c-.5375703-.73161063-1.3921294-1.16260565-2.3-1.16-1.2954343.00586697-2.4287024.8730566-2.7729832 2.1219181-.3442807 1.2488616.1845468 2.5742506 1.2939832 3.2430819.473308.2849789.6259789.899692.341 1.373-.284979.473308-.899692.6259789-1.373.341-.4281096-.2633217-.8129798-.5911866-1.141-.972-.51055595 1.0584066-.77710387 2.21789-.78 3.393-.00111669 4.3792275 3.5427863 7.9329721 7.922 7.944zm14.92-7.9c2.5260177-.0123507 4.6922682-1.8057014 5.176-4.285.0615112-.3563391.3106065-.6517108.651453-.7724785.3408466-.1207677.720339-.0481154.9924777.1900059.2721386.2381213.3945231.6046113.3200693.9584726-.5922982 3.0462952-3.0458543 5.3851354-6.117 5.831-.8392457 2.3900434-3.0999054 3.9865114-5.633 3.978-.5522847 0-1-.4477153-1-1s.4477153-1 1-1c1.4291879.0054603 2.7507192-.7586514 3.459-2-1.6327733-.2625874-3.1272786-1.0738601-4.237-2.3-.3705831-.4095191-.3390191-1.0419169.0705-1.4125s1.0419169-.3390191 1.4125.0705c.9971883 1.1061644 2.4157133 1.7389609 3.905 1.742zm-5.342-10.1c.5522847 0 1 .44771525 1 1 0 .5522847-.4477153 1-1 1-1.9329966 0-3.5 1.5670034-3.5 3.5 0 .5522847-.4477153 1-1 1s-1-.4477153-1-1c.0033068-3.0361953 2.4638047-5.4966932 5.5-5.5z"/><path id="Shape" d="m4.293 5.707c.39237889.37897221 1.01608478.37355237 1.40181858-.01218142.38573379-.3857338.39115363-1.00943969.01218142-1.40181858l-2-2c-.39237889-.37897221-1.01608478-.37355237-1.40181858.01218142-.38573379.3857338-.39115363 1.00943969-.01218142 1.40181858z"/><path id="Shape" d="m55 6c.2651948-.00005664.5195073-.10545063.707-.293l2-2c.2599566-.25107447.3642126-.62287789.2726972-.97250732-.0915155-.34962944-.3645604-.6226744-.7141899-.71418984-.3496294-.09151544-.7214328.01274058-.9725073.27269716l-2 2c-.2859079.28599425-.3714219.71603662-.216678 1.08965456s.5192821.61725909.923678.61734544z"/><path id="Shape" d="m4.293 26.293-2 2c-.25995658.2510745-.3642126.6228779-.27269716.9725073.09151544.3496295.3645604.6226744.71418984.7141899.34962943.0915154.72143285-.0127406.97250732-.2726972l2-2c.37897221-.3923789.37355237-1.0160848-.01218142-1.4018186-.3857338-.3857338-1.00943969-.3911536-1.40181858-.0121814z"/><path id="Shape" d="m56.293 29.707c.3923789.3789722 1.0160848.3735524 1.4018186-.0121814s.3911536-1.0094397.0121814-1.4018186l-2-2c-.3923789-.3789722-1.0160848-.3735524-1.4018186.0121814s-.3911536 1.0094397-.0121814 1.4018186z"/><path id="Shape" d="m4 16c0-.5522847-.44771525-1-1-1h-2c-.55228475 0-1 .4477153-1 1s.44771525 1 1 1h2c.55228475 0 1-.4477153 1-1z"/><path id="Shape" d="m59 15h-2c-.5522847 0-1 .4477153-1 1s.4477153 1 1 1h2c.5522847 0 1-.4477153 1-1s-.4477153-1-1-1z"/></g></g></svg>