<?xml version="1.0" encoding="iso-8859-1"?>
<!-- Generator: Adobe Illustrator 19.0.0, SVG Export Plug-In . SVG Version: 6.00 Build 0)  -->
<svg version="1.1" id="Capa_1" xmlns="http://www.w3.org/2000/svg" xmlns:xlink="http://www.w3.org/1999/xlink" x="0px" y="0px"
	 viewBox="0 0 512 512" style="enable-background:new 0 0 512 512;" xml:space="preserve">
<g>
	<g>
		<rect x="90.289" y="436.498" width="331.51" height="60.283"/>
	</g>
</g>
<g>
	<g>
		<path d="M393.342,74.155c-10.829,0-21.442,1.437-31.702,4.28c-8.736-16.557-21.274-30.808-36.811-41.72
			c-20.022-14.062-43.58-21.495-68.126-21.495c-24.656,0-48.301,7.494-68.378,21.672c-15.537,10.973-28.049,25.278-36.741,41.886
			c-10.635-3.073-21.659-4.624-32.928-4.624C53.229,74.155,0,127.385,0,192.812c0,55.016,37.981,102.405,90.285,115.238v98.389
			h331.511v-98.41C474.052,295.163,512,247.78,512,192.811C512,127.385,458.771,74.155,393.342,74.155z"/>
	</g>
</g>
<g>
</g>
<g>
</g>
<g>
</g>
<g>
</g>
<g>
</g>
<g>
</g>
<g>
</g>
<g>
</g>
<g>
</g>
<g>
</g>
<g>
</g>
<g>
</g>
<g>
</g>
<g>
</g>
<g>
</g>
</svg>
