<svg height="512" viewBox="0 0 56 56" width="512" xmlns="http://www.w3.org/2000/svg"><g id="Page-1" fill="none" fill-rule="evenodd"><g id="011---Boardgame-Piece" fill="rgb(0,0,0)" fill-rule="nonzero" transform="translate(0 -1)"><path id="Shape" d="m30.259 29.548c-.6920873.000458-1.315824.4175679-1.5806123 1.056999-.2647884.6394311-.1185384 1.3753924.3706123 1.865001.6770167.6477546 1.7439833.6477546 2.421 0 .4892791-.4897374.6354653-1.2259409.3704206-1.8654626-.2650448-.6395217-.8891514-1.0564835-1.5814206-1.0565374z"/><path id="Shape" d="m36.58 24.93c-2.5582365-2.5582932-6.405656-3.3236258-9.7481978-1.9391214s-5.5219425 4.6461886-5.5219425 8.2641214 2.1794007 6.879617 5.5219425 8.2641214 7.1899613.6191718 9.7481978-1.9391214c1.6860981-1.6729147 2.6344542-3.949801 2.6344542-6.325s-.9483561-4.6520853-2.6344542-6.325zm-3.7 8.95c-.6901768.7024222-1.6352617 1.0956064-2.62 1.09-1.5004183-.0033978-2.8518295-.908085-3.4267412-2.2939938s-.2606992-2.9815408.7967412-4.0460062c1.4699492-1.400127 3.7800508-1.400127 5.25 0 .7011707.6951237 1.0938796 1.6426691 1.09 2.63.0056064.9847383-.3875778 1.9298232-1.09 2.62z"/><path id="Shape" d="m27.715 13.036c.0487861-.2193782.009655-.4491391-.109-.64l-2.267-3.78c-.1637404-.27891807-.4606318-.4527359-.784-.459-.131113.00120118-.2597837.03560513-.374.1-3.5752428 1.9125492-6.8791031 4.2939249-9.824 7.081-2.7967382 2.9523331-5.18470869 6.2665671-7.1 9.854-.20565799.4216438-.04526868.9304954.365 1.158l3.786 2.264c.177016.119061.3946185.1615736.6034294.1178909s.3911246-.1698568.5055706-.3498909c1.7911277-3.0712778 3.9364639-5.9217691 6.392-8.493 2.5624931-2.4497717 5.4035845-4.5904074 8.465-6.378.1744663-.1043603.297916-.276321.341-.475z"/><path id="Shape" d="m32.177 48.656-1.261 1.261-1.16 1.161 5.685 5.685c.3200344.3057798.8239656.3057798 1.144 0l1.278-1.278c.3152023-.3158081.3152023-.8271919 0-1.143z"/><path id="Shape" d="m55.763 36.441-5.685-5.685-1.161 1.16-1.261 1.261 5.686 5.686c.1515422.1516259.3571278.2368155.5715.2368155s.4199578-.0851896.5715-.2368155l1.278-1.278c.3158683-.3159229.3158683-.8280771 0-1.144z"/><path id="Shape" d="m51.29 23.02-3.53-3.53c-.4428774-.4404015-1.0274569-.7096623-1.65-.76l-6.03-.47c-.9197437-.065631-1.747323-.5824-2.21-1.38l-8.03-13.69c-1.1398906-1.9518716-3.5691907-2.72855725-5.63-1.8-5.2638496 2.35892573-10.1074957 5.5610014-14.34 9.48-3.9189986 4.2325043-7.12107427 9.0761504-9.48 14.34-.92806508 2.0608373-.15148697 4.489801 1.8 5.63l13.7 8.03c.7917662.4671049 1.3038105 1.2931032 1.37 2.21l.47 6.03c.0503377.6225431.3195985 1.2071226.76 1.65l3.53 3.53c1.022344 1.0202355 2.677656 1.0202355 3.7 0l3.56-3.56 2.19-2.2 2.56-2.55c.3013235-.3064923.7661051-.3832823 1.15-.19.06.02 2.04.83 5.24-2.37s2.39-5.18 2.36-5.26c-.165161-.3827868-.0865117-.8271553.2-1.13l2.55-2.56 2.2-2.19 3.56-3.56c1.0202355-1.022344 1.0202355-2.677656 0-3.7zm-37.06 6.38c-.5018257.8335238-1.4071165 1.3394216-2.38 1.33-.5168914.0000546-1.024404-.1380441-1.47-.4l-3.78-2.27c-1.33136521-.7828616-1.81152062-2.4744182-1.09-3.84 2.01611844-3.7431445 4.5140502-7.2059571 7.43-10.3 3.0883896-2.906642 6.5404765-5.40074957 10.27-7.42 1.3662052-.71553895 3.0534654-.23660312 3.84 1.09l2.27 3.78c.3881339.6343031.5103144 1.3961345.34 2.12-.1655136.7248155-.6209192 1.3500947-1.26 1.73-2.9183266 1.7089842-5.6296075 3.749156-8.08 6.08-2.3367018 2.4551572-4.3803898 5.1733629-6.09 8.1zm23.77 9.6c-4.2746816 4.2746714-11.2053007 4.274666-15.4799755-.0000122-4.2746749-4.2746782-4.2746749-11.2052974 0-15.4799756 4.2746748-4.2746782 11.2052939-4.2746836 15.4799755-.0000122 2.0576933 2.0501621 3.2143286 4.8353027 3.2143286 7.74s-1.1566353 5.6898379-3.2143286 7.74z"/></g></g></svg>