<svg id="Layer_1" enable-background="new 0 0 68 68" height="512" viewBox="0 0 68 68" width="512" xmlns="http://www.w3.org/2000/svg"><g id="_x34_5"><path d="m9 9h11v11h-11z"/><path d="m9 22h11v11h-11z"/><path d="m9 46h11v-11h-11zm5.5-8.0600586c1.4199219 0 2.5599365 1.1401367 2.5599365 2.5600586 0 1.4101563-1.1400146 2.5600586-2.5599365 2.5600586-1.4200439 0-2.5600586-1.1499023-2.5600586-2.5600586 0-1.4199219 1.1400147-2.5600586 2.5600586-2.5600586z"/><path d="m9 48h11v11h-11z"/><path d="m22 20h11v-11h-11zm5.5-8.0600586c1.4199219 0 2.5599365 1.1401367 2.5599365 2.5600586 0 1.4101563-1.1400146 2.5600586-2.5599365 2.5600586-1.4200439 0-2.5600586-1.1499023-2.5600586-2.5600586 0-1.4199219 1.1400147-2.5600586 2.5600586-2.5600586z"/><path d="m22 22h11v11h-11z"/><path d="m22 35h11v11h-11z"/><path d="m22 48h11v11h-11z"/><path d="m35 9h11v11h-11z"/><path d="m35 33h11v-11h-11zm5.5-8.0600586c1.4199219 0 2.5599365 1.1401367 2.5599365 2.5600586 0 1.4101563-1.1400146 2.5600586-2.5599365 2.5600586-1.4200439 0-2.5600586-1.1499023-2.5600586-2.5600586 0-1.4199219 1.1400147-2.5600586 2.5600586-2.5600586z"/><path d="m35 35h11v11h-11z"/><path d="m35 59h11v-11h-11zm5.5-8.0600586c1.4199219 0 2.5599365 1.1401367 2.5599365 2.5600586 0 1.4101563-1.1400146 2.5600586-2.5599365 2.5600586-1.4200439 0-2.5600586-1.1499023-2.5600586-2.5600586 0-1.4199219 1.1400147-2.5600586 2.5600586-2.5600586z"/><path d="m48 20h11v-11h-11zm5.5-8.0600586c1.4199219 0 2.5599365 1.1401367 2.5599365 2.5600586 0 1.4101563-1.1400146 2.5600586-2.5599365 2.5600586-1.4200439 0-2.5600586-1.1499023-2.5600586-2.5600586 0-1.4199219 1.1400147-2.5600586 2.5600586-2.5600586z"/><path d="m48 22h11v11h-11z"/><path d="m48 35h11v11h-11z"/><path d="m48 48h11v11h-11z"/><path d="m61 2h-54c-2.75 0-5 2.2399902-5 5v54c0 2.7600098 2.25 5 5 5h54c2.7600098 0 5-2.2399902 5-5v-54c0-2.7600098-2.2399902-5-5-5zm0 58c0 .5500488-.4500732 1-1 1h-52c-.5500488 0-1-.4499512-1-1v-52c0-.5500488.4499512-1 1-1h52c.5499268 0 1 .4499512 1 1z"/></g></svg>