<svg height="512" viewBox="0 0 56 56" width="512" xmlns="http://www.w3.org/2000/svg"><g id="Page-1" fill="none" fill-rule="evenodd"><g id="001---Volley-Ball" fill="rgb(0,0,0)" fill-rule="nonzero" transform="translate(0 -1)"><path id="Shape" d="m56 38v3h-18.852c2.1803243-1.0021826 4.1826064-2.3532501 5.928-4h11.924c.5522847 0 1 .4477153 1 1z"/><path id="Rectangle-path" d="m5 43h4v4h-4z"/><path id="Rectangle-path" d="m11 43h4v4h-4z"/><path id="Rectangle-path" d="m17 43h4v4h-4z"/><path id="Shape" d="m9.219 14.19c.53670756-1.4884616 1.248006-2.9080373 2.119-4.229 1.727-.24 16.554-1.951 24.019 8.4-2.1368502 1.3175513-4.5177756 2.1899904-7 2.565-5.0036211-5.0695574-12.062154-7.5539485-19.138-6.736z"/><path id="Shape" d="m44.91 10.37c.8429955 1.3324663 1.5244523 2.7605043 2.03 4.254-4.288 9.131-14.789 13.555-18.756 14.941-.4-3.133-.133-3.906.616-6.682 7.1260819-1.2112205 13.173243-5.9081868 16.11-12.513z"/><path id="Shape" d="m48 21c-.0072375 1.0907423-.1038946 2.1790549-.289 3.254-4.4906026 5.6364154-10.5178462 9.8512832-17.353 12.135-.8117385-1.5257433-1.4212027-3.1507571-1.813-4.834 3.669-1.25 13.916-5.4 19.127-14.063.2124376 1.1573909.3221977 2.3312886.328 3.508z"/><path id="Shape" d="m33.084 40.32c-.6046909-.6844169-1.1613509-1.4098123-1.666-2.171 5.7122798-1.9401254 10.8800076-5.2135339 15.075-9.549-2.396282 5.7847895-7.3555675 10.1194026-13.409 11.72z"/><path id="Rectangle-path" d="m41 43h4v4h-4z"/><path id="Rectangle-path" d="m47 49h4v3h-4z"/><path id="Rectangle-path" d="m41 49h4v3h-4z"/><path id="Rectangle-path" d="m5 49h4v3h-4z"/><path id="Rectangle-path" d="m11 49h4v3h-4z"/><path id="Rectangle-path" d="m17 49h4v3h-4z"/><path id="Rectangle-path" d="m23 49h4v3h-4z"/><path id="Shape" d="m21.134 18.169c2.1413787 1.0314307 4.088104 2.4256704 5.754 4.121-1.011426 2.8522806-1.1798058 5.9355404-.485 8.881v.014c.4684876 2.4254864 1.3467149 4.753448 2.597 6.884.5518882.9467272 1.176078 1.849412 1.867 2.7-2.2804376.3586086-4.6069635.3013517-6.867-.169-3.4802672-6.9329432-4.49128-14.8457231-2.866-22.431z"/><path id="Rectangle-path" d="m29 43h4v4h-4z"/><path id="Rectangle-path" d="m23 43h4v4h-4z"/><path id="Rectangle-path" d="m29 49h4v3h-4z"/><path id="Rectangle-path" d="m35 49h4v3h-4z"/><path id="Rectangle-path" d="m35 43h4v4h-4z"/><path id="Shape" d="m14.153 35.4c-2.795-9.7-1.644-16.066-.5-19.319 1.919678.170343 3.8071095.6019962 5.61 1.283-1.7099194 7.5439752-.9444574 15.4380869 2.183 22.513-2.7252626-.9492536-5.2130899-2.4764719-7.293-4.477z"/><path id="Rectangle-path" d="m5 54h4v3h-4z"/><path id="Rectangle-path" d="m11 54h4v3h-4z"/><path id="Rectangle-path" d="m17 54h4v3h-4z"/><path id="Rectangle-path" d="m23 54h4v3h-4z"/><path id="Rectangle-path" d="m29 54h4v3h-4z"/><path id="Rectangle-path" d="m35 54h4v3h-4z"/><path id="Rectangle-path" d="m41 54h4v3h-4z"/><path id="Rectangle-path" d="m47 54h4v3h-4z"/><path id="Rectangle-path" d="m47 43h4v4h-4z"/><path id="Shape" d="m43.555 8.456c-.3195914.80354498-.6869127 1.587275-1.1 2.347-4.8389954-5.49797397-11.6745706-8.83403419-18.986-9.266 7.4700961-1.7743012 15.2933667.92057132 20.086 6.919z"/><path id="Shape" d="m18.059 3.67c8.7778512-1.17409393 17.5517967 2.1859883 23.3 8.923-1.2001915 1.7620342-2.6713423 3.3232968-4.359 4.626-6.854-9.568-18.982-9.8-23.958-9.447 1.4396726-1.62946791 3.1339828-3.01477002 5.017-4.102z"/><path id="Shape" d="m8.583 16.292c.98719499-.1657141 1.9851935-.2589632 2.986-.279-.988 3.12-1.829 8.387-.338 15.849-3.01492648-4.5937923-3.97480757-10.2378062-2.648-15.57z"/><path id="Shape" d="m0 38c0-.5522847.44771525-1 1-1h11.924c1.7453936 1.6467499 3.7476757 2.9978174 5.928 4h-18.852z"/><path id="Rectangle-path" d="m0 43h3v14h-3z"/><path id="Rectangle-path" d="m53 43h3v14h-3z"/></g></g></svg>