<svg id="Capa_1" enable-background="new 0 0 512 512" height="512" viewBox="0 0 512 512" width="512" xmlns="http://www.w3.org/2000/svg"><g><path d="m30.585 212h30v-60h30v-90h30v90h60v-60h270v-30h-270v-32h270v-30c-3.054 0-460.285 0-450 0v30h30v32h-30v30h30z"/><path d="m390.585 197v15h46c41.353 0 75-33.647 75-75v-15h-46c-41.352 0-75 33.647-75 75z"/><path d="m.585 332c0 77.651 59.312 141.709 135 149.253v30.747h180v-30.747c75.688-7.544 135-71.602 135-149.253v-90h-450v90zm330-30h60v30h-60zm-90 0h60v30h-60zm-90 0h60v30h-60zm-90 0h60v30h-60z"/><path d="m90.585 182v30h284.617c-13.705-18.104-35.213-30-59.617-30z"/></g></svg>