<svg height="512" viewBox="0 0 24 24" width="512" xmlns="http://www.w3.org/2000/svg"><g id="no_image"><g><path d="m19 4h-9c-.553 0-1 .447-1 1s.447 1 1 1h9c.552 0 1 .448 1 1v9c0 .553.447 1 1 1s1-.447 1-1v-9c0-1.654-1.346-3-3-3z"/><path d="m3.707 2.293c-.391-.391-1.023-.391-1.414 0s-.391 1.023 0 1.414l.907.907c-.723.549-1.2 1.409-1.2 2.386v10c0 1.654 1.346 3 3 3h13.586l1.707 1.707c.195.195.451.293.707.293s.512-.098.707-.293c.391-.391.391-1.023 0-1.414zm4.293 7.207c0 .275-.225.5-.5.5s-.5-.225-.5-.5c0-.317.349-.552.619-.467l.354.354c.01.037.027.072.027.113zm-1.946-2.032c-.636.454-1.054 1.193-1.054 2.032 0 1.379 1.121 2.5 2.5 2.5.839 0 1.578-.418 2.032-1.054l2.054 2.054-1.586 1.586-.879-.879c-1.17-1.17-3.072-1.17-4.242 0l-.879.879v-7.586c0-.43.274-.789.655-.931zm-1.054 10.532c-.43 0-.789-.274-.931-.655l2.224-2.224c.375-.373 1.039-.373 1.414 0l1.586 1.586c.391.391 1.023.391 1.414 0l2.293-2.293 3.586 3.586z"/></g></g></svg>