<svg id="Layer_1" enable-background="new 0 0 512 512" height="512" viewBox="0 0 512 512" width="512" xmlns="http://www.w3.org/2000/svg"><g><path d="m94.807 23.818c-2.419-5.406-7.795-8.882-13.716-8.872 0 0-66.115.107-66.115.107-4.994.008-9.656 2.501-12.437 6.65-2.78 4.148-3.312 9.408-1.422 14.03 0 0 16.09 39.319 16.09 39.319h100.53z"/><path d="m131.164 105.054h-101.68l11.049 27.001h102.715z"/><path d="m386.48 353.054-5.834-26.254c-1.525-6.863-7.612-11.746-14.643-11.746h-119.492c-13.575 0-24.77-7.617-30.714-20.899l-59.122-132.1h-103.865l82.264 201.028c18.165 44.394 58.245 71.971 104.599 71.971h36.327v-20c0-34.187 27.813-62 62-62z"/><path d="m480 383.054h-142c-17.645 0-32 14.355-32 32v50c0 17.645 14.355 32 32 32h142c17.645 0 32-14.355 32-32v-50c0-17.645-14.356-32-32-32z"/></g></svg>