<svg fill="none" height="512" viewBox="0 0 24 24" width="512" xmlns="http://www.w3.org/2000/svg"><g fill="rgb(0,0,0)"><path d="m2.75 11.5c0-5.10863 4.14137-9.25 9.25-9.25 5.1086 0 9.25 4.14137 9.25 9.25 0 .4142.3358.75.75.75s.75-.3358.75-.75c0-5.93706-4.8129-10.75-10.75-10.75-5.93706 0-10.75 4.81294-10.75 10.75 0 5.9371 4.81294 10.75 10.75 10.75.4142 0 .75-.3358.75-.75s-.3358-.75-.75-.75c-5.10863 0-9.25-4.1414-9.25-9.25z"/><path d="m8.25 11.5c0-2.07107 1.67893-3.75 3.75-3.75 2.0711 0 3.75 1.67893 3.75 3.75 0 2.0711-1.6789 3.75-3.75 3.75-2.07107 0-3.75-1.6789-3.75-3.75z"/><path d="m12 5.25c-3.45178 0-6.25 2.79822-6.25 6.25 0 .4142-.33579.75-.75.75s-.75-.3358-.75-.75c0-4.28021 3.46979-7.75 7.75-7.75.4142 0 .75.33579.75.75s-.3358.75-.75.75z"/><path d="m17.8327 12.4102c.9577-.4271 2.2315-.4541 3.1589.3805l.0333.03 1.2045 1.3777c.332.3177.5206.7578.5206 1.2188v4.0828c0 2.0711-1.6789 3.75-3.75 3.75h-.7889c-.9377 0-1.8545-.2776-2.6348-.7978l-1.2578-.8385c-.7343-.4895-.9892-1.4493-.5945-2.2387l.2233-.4465c.3961-.7924 1.3597-1.1135 2.1521-.7174.0644.0323.1395-.0092.1495-.0775l-.245-3.0899v-.0297c0-1.2471.8712-2.1767 1.8288-2.6038z"/></g></svg>