<svg height="512pt" viewBox="0 0 512 512" width="512pt" xmlns="http://www.w3.org/2000/svg"><path d="m456.835938 0h-401.667969c-30.421875 0-55.167969 24.746094-55.167969 55.167969v294.238281c0 30.417969 24.746094 55.164062 55.167969 55.164062h127.296875l42.15625 84.316407c7.34375 14.6875 18.78125 23.113281 31.378906 23.113281s24.035156-8.425781 31.378906-23.113281l42.160156-84.316407h127.296876c30.417968 0 55.164062-24.746093 55.164062-55.164062v-294.238281c0-30.421875-24.746094-55.167969-55.164062-55.167969zm25.164062 349.40625c0 13.875-11.289062 25.164062-25.164062 25.164062h-136.566407c-5.683593 0-10.875 3.210938-13.417969 8.292969l-46.304687 92.609375c-1.867187 3.730469-3.621094 5.566406-4.546875 6.269532-.925781-.703126-2.679688-2.539063-4.546875-6.269532l-46.304687-92.609375c-2.539063-5.082031-7.734376-8.292969-13.414063-8.292969h-136.566406c-13.878907 0-25.167969-11.289062-25.167969-25.164062v-294.238281c0-13.878907 11.289062-25.167969 25.167969-25.167969h401.667969c13.875 0 25.164062 11.289062 25.164062 25.167969zm0 0"/><path d="m256 262.105469c-25.988281 0-47.132812 21.144531-47.132812 47.132812s21.144531 47.132813 47.132812 47.132813 47.136719-21.140625 47.136719-47.132813c0-25.988281-21.148438-47.132812-47.136719-47.132812zm0 64.265625c-9.445312 0-17.132812-7.683594-17.132812-17.132813s7.6875-17.132812 17.132812-17.132812c9.449219 0 17.136719 7.683593 17.136719 17.132812s-7.6875 17.132813-17.136719 17.132813zm0 0"/><path d="m256 64.265625c-25.988281 0-47.132812 21.144531-47.132812 47.132813v69.308593c0 25.988281 21.144531 47.132813 47.132812 47.132813s47.136719-21.144532 47.136719-47.132813v-69.308593c0-25.988282-21.148438-47.132813-47.136719-47.132813zm17.136719 116.4375c0 9.449219-7.6875 17.136719-17.136719 17.136719-9.445312 0-17.132812-7.6875-17.132812-17.136719v-69.304687c0-9.445313 7.6875-17.132813 17.132812-17.132813 9.449219 0 17.136719 7.6875 17.136719 17.132813zm0 0"/></svg>